<?xml version="1.0" standalone="no"?>
<!DOCTYPE svg PUBLIC "-//W3C//DTD SVG 1.1//EN" "http://www.w3.org/Graphics/SVG/1.1/DTD/svg11.dtd" >
<svg xmlns="http://www.w3.org/2000/svg" xmlns:xlink="http://www.w3.org/1999/xlink" version="1.1">
<metadata>
Created by FontForge 20161013 at Thu Jul 26 16:59:51 2012
 By ,,,
2012 Svend Smital published by FSI FontShop International GmbH
</metadata>
<defs>
<font id="SuperGroteskPro-Bold" horiz-adv-x="620" >
  <font-face 
    font-family="SuperGroteskPro-Bold"
    font-weight="700"
    font-stretch="normal"
    units-per-em="1000"
    panose-1="2 11 8 4 2 1 1 2 1 2"
    ascent="780"
    descent="-220"
    x-height="460"
    cap-height="720"
    bbox="-1120 -260 1243 980"
    underline-thickness="100"
    underline-position="-300"
    unicode-range="U+000D-FEFF"
  />
<missing-glyph horiz-adv-x="575" 
d="M50 0v720h475v-720h-475zM200 150h175v420h-175v-420z" />
    <glyph glyph-name=".notdef" horiz-adv-x="575" 
d="M50 0v720h475v-720h-475zM200 150h175v420h-175v-420z" />
    <glyph glyph-name=".null" horiz-adv-x="0" 
 />
    <glyph glyph-name=".null" horiz-adv-x="0" 
 />
    <glyph glyph-name="nonmarkingreturn" horiz-adv-x="333" 
 />
    <glyph glyph-name="CR" unicode="&#xd;" horiz-adv-x="250" 
 />
    <glyph glyph-name="space" unicode=" " horiz-adv-x="250" 
 />
    <glyph glyph-name="exclam" unicode="!" horiz-adv-x="300" 
d="M60 230v490h180v-490h-180zM60 0v180h180v-180h-180z" />
    <glyph glyph-name="quotedbl" unicode="&#x22;" horiz-adv-x="470" 
d="M270 400l-10 320h150l-10 -320h-130zM70 400l-10 320h150l-10 -320h-130z" />
    <glyph glyph-name="numbersign" unicode="#" horiz-adv-x="700" 
d="M140 0v140h-100v150h100v120h-100v150h100v120h160v-120h100v120h160v-120h100v-150h-100v-120h100v-150h-100v-140h-160v140h-100v-140h-160zM300 290h100v120h-100v-120z" />
    <glyph glyph-name="dollar" unicode="$" horiz-adv-x="527" 
d="M232 -104v88q-101 12 -197 77l89 142l59 -35q35 -21 73 -21q27 0 44 11t17 33q0 36 -58 68l-94 53q-109 61 -109 190q0 80 50 132.5t126 65.5v91h95v-90q93 -11 155 -60l-64 -149q-63 57 -120 57q-27 0 -43.5 -14t-16.5 -37q0 -19 12 -30.5t41 -26.5l85 -44
q75 -38 100.5 -86t25.5 -117q0 -84 -46.5 -140t-128.5 -69v-89h-95z" />
    <glyph glyph-name="percent" unicode="%" horiz-adv-x="890" 
d="M680 -20q-81 0 -125.5 54t-44.5 146t44.5 146t125.5 54t125.5 -54t44.5 -146t-44.5 -146t-125.5 -54zM160 0l410 680h160l-410 -680h-160zM210 300q-81 0 -125.5 54t-44.5 146t44.5 146t125.5 54t125.5 -54t44.5 -146t-44.5 -146t-125.5 -54zM680 110q16 0 23 14t7 56
t-7 56t-23 14t-23 -14t-7 -56t7 -56t23 -14zM210 430q16 0 23 14t7 56t-7 56t-23 14t-23 -14t-7 -56t7 -56t23 -14z" />
    <glyph glyph-name="ampersand" unicode="&#x26;" horiz-adv-x="640" 
d="M274 -18q-116 0 -190 62.5t-74 164.5q0 128 138 201q-51 67 -51 130q0 67 55 110t132 43q91 0 139.5 -48t48.5 -106q0 -85 -89 -139l-35 -21l91 -120q17 23 17 53q0 18 -6 40h176q2 -24 2 -35q0 -122 -75 -207l83 -110h-197l-13 18q-75 -36 -152 -36zM277 473
q40 19 40 51q0 19 -10.5 31t-26.5 12q-13 0 -25 -11t-12 -26q0 -12 9 -24zM329 156l-99 137q-40 -35 -40 -71q0 -31 25.5 -56t57.5 -25q27 0 56 15z" />
    <glyph glyph-name="quotesingle" unicode="'" horiz-adv-x="270" 
d="M70 400l-10 320h150l-10 -320h-130z" />
    <glyph glyph-name="parenleft" unicode="(" horiz-adv-x="420" 
d="M260 -145q-240 189 -240 480t240 480l130 -140q-180 -147 -180 -340t180 -340z" />
    <glyph glyph-name="parenright" unicode=")" horiz-adv-x="420" 
d="M160 -145l-130 140q180 147 180 340t-180 340l130 140q240 -189 240 -480t-240 -480z" />
    <glyph glyph-name="asterisk" unicode="*" horiz-adv-x="384" 
d="M142 380l2 88l-74 -46l-50 86l78 42l-78 42l50 86l74 -46l-2 88h100l-2 -88l74 46l50 -86l-78 -42l78 -42l-50 -86l-74 46l2 -88h-100z" />
    <glyph glyph-name="plus" unicode="+" horiz-adv-x="564" 
d="M207 50v180h-180v150h180v180h150v-180h180v-150h-180v-180h-150z" />
    <glyph glyph-name="comma" unicode="," horiz-adv-x="360" 
d="M150 -178l-100 78q40 44 40 120v160h180v-160q0 -57 -36 -112t-84 -86z" />
    <glyph glyph-name="hyphen" unicode="-" horiz-adv-x="340" 
d="M40 210v150h270v-150h-270z" />
    <glyph glyph-name="period" unicode="." horiz-adv-x="360" 
d="M90 0v180h180v-180h-180z" />
    <glyph glyph-name="slash" unicode="/" horiz-adv-x="450" 
d="M0 -100l310 880h140l-310 -880h-140z" />
    <glyph glyph-name="zero" unicode="0" horiz-adv-x="580" 
d="M290 -15q-118 0 -189 69t-71 176t71 176t189 69t189 -69t71 -176t-71 -176t-189 -69zM290 140q36 0 58 26t22 64q0 39 -21.5 64.5t-58.5 25.5t-58.5 -25.5t-21.5 -64.5t21.5 -64.5t58.5 -25.5z" />
    <glyph glyph-name="one" unicode="1" horiz-adv-x="380" 
d="M140 0v280l-110 -60v170l120 70h170v-460h-180z" />
    <glyph glyph-name="two" unicode="2" horiz-adv-x="560" 
d="M40 0v100q0 47 31 81t75 51t88 28t75 20.5t31 19.5q0 40 -60 40q-70 0 -100 -60l-160 60q75 135 260 135q113 0 176.5 -46t63.5 -109q0 -45 -29 -77t-70 -48t-82 -26.5t-70 -19.5t-29 -19l280 10l-10 -140h-470z" />
    <glyph glyph-name="three" unicode="3" horiz-adv-x="540" 
d="M270 -215q-107 0 -171.5 53t-88.5 142l150 50q8 -38 35.5 -64t64.5 -26q38 0 54 17t16 53q0 29 -18.5 49.5t-41.5 20.5h-30v140h30q40 0 40 57q0 53 -50 53q-29 0 -50.5 -19.5t-29.5 -50.5l-150 50q35 78 89 121.5t151 43.5q93 0 156.5 -49.5t63.5 -135.5q0 -82 -70 -123
q90 -51 90 -167q0 -88 -62.5 -151.5t-177.5 -63.5z" />
    <glyph glyph-name="four" unicode="4" horiz-adv-x="565" 
d="M290 -200v200h-300l250 460h230v-320h80l-10 -140h-70v-200h-180zM210 140h80v170z" />
    <glyph glyph-name="five" unicode="5" horiz-adv-x="490" 
d="M210 -215q-77 0 -121.5 24.5t-108.5 89.5l130 101q41 -60 100 -60q28 0 54 19.5t26 60.5q0 39 -24.5 69.5t-88.5 30.5q-67 0 -127 -40l17 380h363l-10 -150h-215l-5 -70q48 20 90 20q80 0 130 -64t50 -156q0 -112 -68 -183.5t-192 -71.5z" />
    <glyph glyph-name="six" unicode="6" horiz-adv-x="580" 
d="M290 -15q-119 0 -189.5 70.5t-70.5 184.5q0 70 21.5 122.5t68.5 117.5l145 205h210l-155 -210h9q95 0 158 -68.5t63 -176.5q0 -107 -71 -176t-189 -69zM290 140q36 0 58 26t22 64q0 39 -21.5 64.5t-58.5 25.5t-58.5 -25.5t-21.5 -64.5t21.5 -64.5t58.5 -25.5z" />
    <glyph glyph-name="seven" unicode="7" horiz-adv-x="510" 
d="M70 -200l230 500h-300l20 160h480v-160l-230 -500h-200z" />
    <glyph glyph-name="eight" unicode="8" horiz-adv-x="590" 
d="M295 -20q-127 0 -196 66.5t-69 173.5q0 105 93 161q-63 38 -63 139q0 77 66 128.5t169 51.5q102 0 168.5 -51.5t66.5 -128.5q0 -99 -65 -139q95 -57 95 -161q0 -107 -69 -173.5t-196 -66.5zM295 427q32 0 47.5 19t15.5 45q0 24 -16 42.5t-47 18.5q-33 0 -49.5 -18.5
t-16.5 -42.5q0 -26 16.5 -45t49.5 -19zM295 140q37 0 61 19.5t24 60.5q0 40 -24.5 60t-60.5 20q-38 0 -61.5 -20t-23.5 -60q0 -80 85 -80z" />
    <glyph glyph-name="nine" unicode="9" horiz-adv-x="580" 
d="M122 -200l138 185h-9q-95 0 -158 68.5t-63 176.5q0 107 71 176t189 69q119 0 189.5 -70.5t70.5 -184.5q0 -71 -22 -126t-68 -114l-140 -180h-198zM290 140q37 0 58.5 25.5t21.5 64.5t-21.5 64.5t-58.5 25.5q-36 0 -58 -26t-22 -64q0 -39 21.5 -64.5t58.5 -25.5z" />
    <glyph glyph-name="colon" unicode=":" horiz-adv-x="360" 
d="M90 280v180h180v-180h-180zM90 0v180h180v-180h-180z" />
    <glyph glyph-name="semicolon" unicode=";" horiz-adv-x="360" 
d="M90 280v180h180v-180h-180zM150 -178l-100 78q40 44 40 120v160h180v-160q0 -57 -36 -112t-84 -86z" />
    <glyph glyph-name="less" unicode="&#x3c;" horiz-adv-x="564" 
d="M537 -20l-510 270v110l510 260v-180l-320 -135l320 -145v-180z" />
    <glyph glyph-name="equal" unicode="=" horiz-adv-x="564" 
d="M27 340v140h510v-140h-510zM27 130v140h510v-140h-510z" />
    <glyph glyph-name="greater" unicode="&#x3e;" horiz-adv-x="564" 
d="M27 -20v180l320 145l-320 135v180l510 -260v-110z" />
    <glyph glyph-name="question" unicode="?" horiz-adv-x="530" 
d="M170 230q-3 27 -3 51q0 55 17 94.5t41 60t47.5 35t40.5 28.5t17 31q0 22 -14 36t-36 14q-70 0 -70 -80l-190 20q0 94 68.5 157t191.5 63q122 0 186 -50.5t64 -129.5q0 -42 -12.5 -75t-31.5 -51.5t-41 -37t-41 -33.5t-31.5 -39t-12.5 -54v-40h-190zM170 0v180h190v-180
h-190z" />
    <glyph glyph-name="at" unicode="@" horiz-adv-x="850" 
d="M426 -173q-172 0 -284 106t-112 276q0 171 112 276.5t284 105.5q168 0 281 -98t113 -257q0 -103 -60 -156.5t-141 -53.5q-91 0 -139 57q-32 -54 -117 -54q-60 0 -106.5 48t-46.5 132t46.5 132t106.5 48q72 0 108 -54v45h135v-189q0 -23 11.5 -36t27.5 -13q22 0 38.5 23
t16.5 65q0 111 -76 178t-197 67q-113 0 -190 -74t-77 -191q0 -116 80.5 -191.5t189.5 -75.5q51 0 86.5 13t73.5 44l160 -50q-111 -123 -324 -123zM411 140q25 0 42.5 17.5t17.5 52.5t-17.5 52.5t-42.5 17.5t-42.5 -17.5t-17.5 -51.5q0 -36 17.5 -53.5t42.5 -17.5z" />
    <glyph glyph-name="A" unicode="A" horiz-adv-x="700" 
d="M0 0l250 720h200l250 -720h-210l-34 110h-212l-34 -110h-210zM291 270h118l-58 200h-2z" />
    <glyph glyph-name="B" unicode="B" horiz-adv-x="630" 
d="M60 0v720h290q97 0 158.5 -51.5t61.5 -128.5q0 -118 -78 -143v-2q42 -16 80 -63t38 -112q0 -103 -67 -161.5t-163 -58.5h-320zM260 432h61q27 0 45 16.5t18 46.5q0 28 -18.5 45.5t-44.5 17.5h-61v-126zM260 171h79q29 0 46 20.5t17 51.5q0 30 -21 51t-51 21h-70v-144z
" />
    <glyph glyph-name="C" unicode="C" horiz-adv-x="675" 
d="M410 -20q-165 0 -272.5 107.5t-107.5 272.5t107.5 272.5t272.5 107.5q159 0 250 -90l-100 -170q-65 80 -150 80q-76 0 -128 -56t-52 -144t52 -144t128 -56q90 0 150 90l110 -160q-37 -52 -106.5 -81t-153.5 -29z" />
    <glyph glyph-name="D" unicode="D" horiz-adv-x="720" 
d="M60 0v720h280q62 0 122.5 -23t112 -66t83.5 -114t32 -157q0 -105 -54.5 -189.5t-134 -127.5t-161.5 -43h-280zM260 180q230 0 230 180t-230 180v-360z" />
    <glyph glyph-name="E" unicode="E" horiz-adv-x="560" 
d="M60 0v720h430l20 -180h-250v-90h220v-170h-220v-100h250l-20 -180h-430z" />
    <glyph glyph-name="F" unicode="F" horiz-adv-x="530" 
d="M60 0v720h430l20 -180h-250v-90h220v-170h-220v-280h-200z" />
    <glyph glyph-name="G" unicode="G" horiz-adv-x="785" 
d="M390 -20q-151 0 -255.5 108t-104.5 271q0 166 107.5 273.5t272.5 107.5q99 0 156.5 -27t123.5 -93l-120 -140q-45 45 -80.5 62.5t-79.5 17.5q-76 0 -128 -56t-52 -144q0 -85 49 -142.5t131 -57.5q48 0 78 14t62 46v60h-140l20 160h320v-260q-44 -66 -87 -106.5
t-112.5 -67t-160.5 -26.5z" />
    <glyph glyph-name="H" unicode="H" horiz-adv-x="740" 
d="M60 0v720h200v-260h220v260h200v-720h-200v280h-220v-280h-200z" />
    <glyph glyph-name="I" unicode="I" horiz-adv-x="320" 
d="M60 0v720h200v-720h-200z" />
    <glyph glyph-name="J" unicode="J" horiz-adv-x="440" 
d="M180 -20q-100 0 -180 60l80 160l30 -20q19 -13 37 -13q33 0 33 43v510h200v-550q0 -49 -12.5 -85t-31.5 -55.5t-47.5 -31.5t-53 -15t-55.5 -3z" />
    <glyph glyph-name="K" unicode="K" horiz-adv-x="670" 
d="M60 0v720h200v-270h2l158 270h230l-210 -330l230 -390h-230l-178 310h-2v-310h-200z" />
    <glyph glyph-name="L" unicode="L" horiz-adv-x="490" 
d="M60 0v720h200v-540h230l-20 -180h-410z" />
    <glyph glyph-name="M" unicode="M" horiz-adv-x="880" 
d="M60 0v720h200l180 -280l180 280h200v-720h-200v370h-2l-178 -250l-178 250h-2v-370h-200z" />
    <glyph glyph-name="N" unicode="N" horiz-adv-x="730" 
d="M60 0v720h180l228 -340h2v340h200v-720h-180l-228 340h-2v-340h-200z" />
    <glyph glyph-name="O" unicode="O" horiz-adv-x="820" 
d="M410 -20q-163 0 -271.5 110.5t-108.5 269.5t108.5 269.5t271.5 110.5t271.5 -110.5t108.5 -269.5t-108.5 -269.5t-271.5 -110.5zM410 160q76 0 128 56t52 144t-52 144t-128 56t-128 -56t-52 -144t52 -144t128 -56z" />
    <glyph glyph-name="P" unicode="P" horiz-adv-x="600" 
d="M60 0v720h290q103 0 171.5 -69.5t68.5 -165.5q0 -99 -66.5 -167t-153.5 -68h-110v-250h-200zM260 410h40q44 0 67 20t23 55t-23 55t-67 20h-40v-150z" />
    <glyph glyph-name="Q" unicode="Q" horiz-adv-x="820" 
d="M410 -20q-163 0 -271.5 110.5t-108.5 269.5t108.5 269.5t271.5 110.5t271.5 -110.5t108.5 -269.5q0 -130 -84 -243l104 -117h-180l-27 31q-86 -51 -193 -51zM410 160q34 0 68 13l-148 167h180l62 -71q18 39 18 91q0 88 -52 144t-128 56t-128 -56t-52 -144t52 -144
t128 -56z" />
    <glyph glyph-name="R" unicode="R" horiz-adv-x="650" 
d="M60 0v720h280q107 0 178.5 -63.5t71.5 -166.5q0 -76 -35 -120t-95 -70l190 -300h-230l-158 270h-2v-270h-200zM260 420h40q90 0 90 70t-90 70h-40v-140z" />
    <glyph glyph-name="S" unicode="S" horiz-adv-x="550" 
d="M295 -20q-153 0 -260 80l92 153l63 -37q38 -23 77 -23q26 0 42 12t16 35q0 27 -28 49t-67.5 41.5t-79 45.5t-67.5 73t-28 111q0 101 69 160.5t171 59.5q65 0 114 -13.5t96 -52.5l-68 -158q-66 60 -125 60q-30 0 -48.5 -16t-18.5 -40q0 -18 20.5 -34t52 -28.5t67.5 -34
t67.5 -47t52 -71.5t20.5 -105q0 -104 -62 -162t-168 -58z" />
    <glyph glyph-name="T" unicode="T" horiz-adv-x="520" 
d="M160 0v540h-150l20 180h460l20 -180h-150v-540h-200z" />
    <glyph glyph-name="U" unicode="U" horiz-adv-x="720" 
d="M360 -20q-134 0 -219.5 78.5t-85.5 211.5v450h200v-460q0 -50 30 -75t75 -25t75 25t30 75v460h200v-450q0 -133 -85.5 -211.5t-219.5 -78.5z" />
    <glyph glyph-name="V" unicode="V" horiz-adv-x="627" 
d="M202 0l-202 720h212l102 -420h2l99 420h212l-201 -720h-224z" />
    <glyph glyph-name="W" unicode="W" horiz-adv-x="1020" 
d="M230 0l-230 720h210l119 -410h2l109 410h140l109 -410h2l119 410h210l-230 -720h-190l-89 380h-2l-89 -380h-190z" />
    <glyph glyph-name="X" unicode="X" horiz-adv-x="646" 
d="M20 0l198 364l-187 356h213l79 -155l78 155h214l-186 -356l197 -364h-225l-78 158l-79 -158h-224z" />
    <glyph glyph-name="Y" unicode="Y" 
d="M210 0v230l-210 490h210l99 -280h2l99 280h210l-210 -490v-230h-200z" />
    <glyph glyph-name="Z" unicode="Z" 
d="M30 0l260 540h-250l30 180h520l-250 -540h250l-30 -180h-530z" />
    <glyph glyph-name="bracketleft" unicode="[" horiz-adv-x="370" 
d="M330 -110l-260 10v880l260 10l10 -160h-80v-580h80z" />
    <glyph glyph-name="backslash" unicode="\" horiz-adv-x="450" 
d="M310 -100l-310 880h140l310 -880h-140z" />
    <glyph glyph-name="bracketright" unicode="]" horiz-adv-x="370" 
d="M40 -110l-10 160h80v580h-80l10 160l260 -10v-880z" />
    <glyph glyph-name="asciicircum" unicode="^" horiz-adv-x="640" 
d="M0 320l220 400h200l220 -400h-240l-80 190l-80 -190h-240z" />
    <glyph glyph-name="underscore" unicode="_" horiz-adv-x="540" 
d="M0 -210v150h540v-150h-540z" />
    <glyph glyph-name="grave" unicode="`" horiz-adv-x="350" 
d="M180 560l-140 160h200l70 -160h-130z" />
    <glyph glyph-name="a" unicode="a" 
d="M240 -15q-83 0 -146.5 64.5t-63.5 180.5t63.5 180.5t146.5 64.5q46 0 87 -18.5t61 -51.5h2v55h180v-460h-180v55h-2q-20 -33 -61 -51.5t-87 -18.5zM310 135q37 0 58.5 26.5t21.5 68.5t-21.5 68.5t-58.5 26.5t-58.5 -26.5t-21.5 -68.5t21.5 -68.5t58.5 -26.5z" />
    <glyph glyph-name="b" unicode="b" 
d="M380 -15q-46 0 -87 18.5t-61 51.5h-2v-55h-180v730h180v-325h2q20 33 61 51.5t87 18.5q83 0 146.5 -64.5t63.5 -180.5t-63.5 -180.5t-146.5 -64.5zM310 135q37 0 58.5 26.5t21.5 68.5t-21.5 68.5t-58.5 26.5t-58.5 -26.5t-21.5 -68.5t21.5 -68.5t58.5 -26.5z" />
    <glyph glyph-name="c" unicode="c" horiz-adv-x="482" 
d="M290 -15q-118 0 -189 69.5t-71 175.5t71 175.5t189 69.5q102 0 177 -65l-99 -121q-40 36 -78 36q-33 0 -56.5 -24.5t-23.5 -70.5t23.5 -70.5t56.5 -24.5q40 0 77 36l99 -119q-64 -67 -176 -67z" />
    <glyph glyph-name="d" unicode="d" 
d="M240 -15q-83 0 -146.5 64.5t-63.5 180.5t63.5 180.5t146.5 64.5q46 0 87 -18.5t61 -51.5h2v325h180v-730h-180v55h-2q-20 -33 -61 -51.5t-87 -18.5zM310 135q37 0 58.5 26.5t21.5 68.5t-21.5 68.5t-58.5 26.5t-58.5 -26.5t-21.5 -68.5t21.5 -68.5t58.5 -26.5z" />
    <glyph glyph-name="e" unicode="e" horiz-adv-x="590" 
d="M300 -15q-125 0 -197.5 68.5t-72.5 176.5t72.5 176.5t197.5 68.5q51 0 96 -15.5t82.5 -48t59.5 -91t22 -135.5h-340q4 -27 27 -46t53 -19t48.5 8.5t41.5 31.5l140 -70q-90 -105 -230 -105zM220 280h160q-8 31 -26 45.5t-54 14.5t-54 -14.5t-26 -45.5z" />
    <glyph glyph-name="f" unicode="f" horiz-adv-x="385" 
d="M95 0v310h-80l20 150h60v90q0 180 220 180h50v-160q-48 0 -69 -12t-21 -48v-50h90v-150h-90v-310h-180z" />
    <glyph glyph-name="g" unicode="g" 
d="M290 -215q-98 0 -210 40l30 144q64 -34 180 -34q48 0 75 27.5t27 74.5q0 7 -2 23h-2q-39 -75 -148 -75q-83 0 -146.5 64.5t-63.5 180.5t63.5 180.5t146.5 64.5q46 0 87 -18.5t61 -51.5h2v55h180v-455q0 -120 -74.5 -170t-205.5 -50zM310 135q37 0 58.5 26.5t21.5 68.5
t-21.5 68.5t-58.5 26.5t-58.5 -26.5t-21.5 -68.5t21.5 -68.5t58.5 -26.5z" />
    <glyph glyph-name="h" unicode="h" horiz-adv-x="575" 
d="M50 0v730h180v-325h2q53 70 148 70q78 0 114 -43.5t36 -116.5v-315h-180v245q0 70 -60 70t-60 -70v-245h-180z" />
    <glyph glyph-name="i" unicode="i" horiz-adv-x="280" 
d="M50 560v160h180v-160h-180zM50 0v460h180v-460h-180z" />
    <glyph glyph-name="j" unicode="j" horiz-adv-x="280" 
d="M50 560v160h180v-160h-180zM80 -215q-48 0 -110 31v160q34 -20 53 -20q27 0 27 40v464h180v-510q0 -81 -40.5 -123t-109.5 -42z" />
    <glyph glyph-name="k" unicode="k" horiz-adv-x="570" 
d="M50 0v730h180v-440h2l118 170h200l-170 -220l190 -240h-210l-128 180h-2v-180h-180z" />
    <glyph glyph-name="l" unicode="l" horiz-adv-x="280" 
d="M50 0v730h180v-730h-180z" />
    <glyph glyph-name="m" unicode="m" horiz-adv-x="851" 
d="M50 0v460h180v-57h2q69 72 160 72q83 0 126 -72q38 38 69 55t75 17q66 0 105 -38.5t39 -105.5v-331h-180v250q0 28 -14 45.5t-40 17.5t-40 -17.5t-14 -45.5v-250h-180v250q0 28 -14 45.5t-40 17.5t-40 -17.5t-14 -45.5v-250h-180z" />
    <glyph glyph-name="n" unicode="n" horiz-adv-x="575" 
d="M50 0v460h180v-55h2q53 70 148 70q78 0 114 -43.5t36 -116.5v-315h-180v245q0 70 -60 70t-60 -70v-245h-180z" />
    <glyph glyph-name="o" unicode="o" horiz-adv-x="600" 
d="M300 -15q-125 0 -197.5 68.5t-72.5 176.5t72.5 176.5t197.5 68.5t197.5 -68.5t72.5 -176.5t-72.5 -176.5t-197.5 -68.5zM300 135q37 0 58.5 26.5t21.5 68.5q0 95 -80 95t-80 -95q0 -43 21.5 -69t58.5 -26z" />
    <glyph glyph-name="p" unicode="p" 
d="M50 -200v660h180v-55h2q20 33 61 51.5t87 18.5q83 0 146.5 -64.5t63.5 -180.5t-63.5 -180.5t-146.5 -64.5q-46 0 -87 18.5t-61 51.5h-2v-255h-180zM310 135q37 0 58.5 26.5t21.5 68.5t-21.5 68.5t-58.5 26.5t-58.5 -26.5t-21.5 -68.5t21.5 -68.5t58.5 -26.5z" />
    <glyph glyph-name="q" unicode="q" 
d="M390 -200v255h-2q-20 -33 -61 -51.5t-87 -18.5q-83 0 -146.5 64.5t-63.5 180.5t63.5 180.5t146.5 64.5q46 0 87 -18.5t61 -51.5h2v55h180v-660h-180zM310 135q37 0 58.5 26.5t21.5 68.5t-21.5 68.5t-58.5 26.5t-58.5 -26.5t-21.5 -68.5t21.5 -68.5t58.5 -26.5z" />
    <glyph glyph-name="r" unicode="r" horiz-adv-x="410" 
d="M50 0v460h180v-55h2q44 70 158 70v-180q-34 17 -65 17q-43 0 -69 -30t-26 -67v-215h-180z" />
    <glyph glyph-name="s" unicode="s" horiz-adv-x="485" 
d="M235 -15q-120 0 -210 60l57 122q88 -42 143 -42q12 0 17 0.5t9 5t4 14.5t-21.5 18t-52.5 16.5t-62 22t-52.5 42.5t-21.5 71q0 78 54.5 119t135.5 41q119 0 204 -42l-59 -123q-7 2 -37.5 13t-49 16.5t-28.5 5.5q-13 0 -20 -0.5t-13.5 -5.5t-6.5 -14q0 -13 23.5 -23
t57.5 -19.5t68 -23.5t57.5 -43t23.5 -71q0 -44 -18.5 -76.5t-50.5 -50t-69.5 -25.5t-81.5 -8z" />
    <glyph glyph-name="t" unicode="t" horiz-adv-x="410" 
d="M255 -20q-78 0 -119 35t-41 115v180h-80l20 150h60v120l180 30v-150h90v-150h-90v-110q0 -34 8.5 -47t31.5 -13q29 0 50 25v-145q-53 -40 -110 -40z" />
    <glyph glyph-name="u" unicode="u" horiz-adv-x="575" 
d="M195 -15q-78 0 -114 43.5t-36 116.5v315h180v-245q0 -70 60 -70t60 70v245h180v-460h-180v55h-2q-53 -70 -148 -70z" />
    <glyph glyph-name="v" unicode="v" horiz-adv-x="500" 
d="M165 0l-165 460h180l69 -240h2l69 240h180l-165 -460h-170z" />
    <glyph glyph-name="w" unicode="w" horiz-adv-x="760" 
d="M150 0l-150 460h180l59 -220h2l79 220h120l79 -220h2l59 220h180l-146 -460h-164l-69 210h-2l-69 -210h-160z" />
    <glyph glyph-name="x" unicode="x" horiz-adv-x="520" 
d="M10 0l160 230l-150 230h180l60 -100l60 100h180l-150 -230l160 -230h-200l-50 90l-50 -90h-200z" />
    <glyph glyph-name="y" unicode="y" horiz-adv-x="500" 
d="M83 -200l82 222l-165 438h180l67 -210h2l71 210h180l-237 -660h-180z" />
    <glyph glyph-name="z" unicode="z" horiz-adv-x="500" 
d="M20 0l180 320h-160l30 140h400l-180 -320h180l-30 -140h-420z" />
    <glyph glyph-name="braceleft" unicode="{" horiz-adv-x="380" 
d="M280 -100q-116 0 -153 40.5t-37 149.5v120q0 36 -15.5 48t-54.5 12v140q39 0 54.5 12t15.5 48v120q0 109 37 149.5t153 40.5h80v-140q-14 2 -20 2q-31 0 -45.5 -17.5t-14.5 -44.5v-160q0 -63 -50 -80q50 -17 50 -80v-160q0 -62 58 -62q6 0 22 2v-140h-80z" />
    <glyph glyph-name="bar" unicode="|" horiz-adv-x="450" 
d="M155 -100v880h140v-880h-140z" />
    <glyph glyph-name="braceright" unicode="}" horiz-adv-x="380" 
d="M20 -100v140q16 -2 22 -2q58 0 58 62v160q0 63 50 80q-50 17 -50 80v160q0 27 -14.5 44.5t-45.5 17.5q-6 0 -20 -2v140h80q116 0 153 -40.5t37 -149.5v-120q0 -36 15.5 -48t54.5 -12v-140q-39 0 -54.5 -12t-15.5 -48v-120q0 -109 -37 -149.5t-153 -40.5h-80z" />
    <glyph glyph-name="asciitilde" unicode="~" horiz-adv-x="720" 
d="M500 180q-51 0 -99 20t-88.5 40t-72.5 20q-31 0 -45.5 -15.5t-14.5 -54.5h-140q-2 30 -2 44q0 111 47 158.5t135 47.5q53 0 101 -20t87 -40t72 -20q32 0 46 15.5t14 54.5h140q1 -15 1 -41q0 -113 -46.5 -161t-134.5 -48z" />
    <glyph glyph-name="uni00A0" unicode="&#xa0;" horiz-adv-x="250" 
 />
    <glyph glyph-name="exclamdown" unicode="&#xa1;" horiz-adv-x="300" 
d="M60 340v180h180v-180h-180zM60 -200v490h180v-490h-180z" />
    <glyph glyph-name="cent" unicode="&#xa2;" horiz-adv-x="477" 
d="M240 -100v89q-96 14 -153 80.5t-57 160.5t56.5 160t153.5 81v89h100v-89q68 -10 127 -61l-99 -121q-40 36 -78 36q-33 0 -56.5 -24.5t-23.5 -70.5t23.5 -70.5t56.5 -24.5q40 0 77 36l99 -119q-48 -49 -126 -63v-89h-100z" />
    <glyph glyph-name="sterling" unicode="&#xa3;" horiz-adv-x="500" 
d="M20 0v160q45 30 62.5 74t17.5 126h-60l15 100h45v60q0 88 46 134t154 46q58 0 107.5 -25.5t72.5 -64.5l-60 -90q-31 37 -69 37q-22 0 -36.5 -13t-14.5 -34v-50h90l-15 -100h-75q0 -76 -12 -116t-38 -74h230l-20 -170h-440z" />
    <glyph glyph-name="currency" unicode="&#xa4;" horiz-adv-x="550" 
d="M76 2l-99 99l75 75q-32 59 -32 124t32 124l-75 75l99 99l75 -75q59 32 124 32t124 -32l75 75l99 -99l-75 -75q32 -59 32 -124t-32 -124l75 -75l-99 -99l-75 75q-59 -32 -124 -32t-124 32zM275 183q48 0 82 34t34 82t-34 82t-82 34t-82 -34t-34 -82t34 -82t82 -34z" />
    <glyph glyph-name="yen" unicode="&#xa5;" horiz-adv-x="640" 
d="M230 0v170h-190v110h163l-32 70h-131v110h80l-100 220h200l100 -263l100 263h200l-100 -220h80v-110h-131l-32 -70h163v-110h-190v-170h-180z" />
    <glyph glyph-name="brokenbar" unicode="&#xa6;" horiz-adv-x="270" 
d="M60 400v280h150v-280h-150zM60 0v280h150v-280h-150z" />
    <glyph glyph-name="section" unicode="&#xa7;" 
d="M300 -150q-139 0 -230 89l80 131q70 -70 130 -70q70 0 70 40q0 24 -34 43t-82.5 35.5t-97 39.5t-82.5 67t-34 105q0 102 95 166q-35 47 -35 114q0 87 63.5 138.5t156.5 51.5q130 0 210 -80l-70 -120q-22 22 -56 36t-64 14q-50 0 -50 -40q0 -24 34 -43t82.5 -35.5
t97 -39.5t82.5 -67t34 -105q0 -102 -95 -166q35 -46 35 -114q0 -87 -69.5 -138.5t-170.5 -51.5zM372 242q38 27 38 58q0 14 -7 26t-16 20.5t-28 17.5t-32.5 14.5t-40 15t-39.5 14.5q-37 -28 -37 -58q0 -14 7 -26t16.5 -20.5t28 -17.5t32 -14.5t39 -15t39.5 -14.5z" />
    <glyph glyph-name="dieresis" unicode="&#xa8;" horiz-adv-x="500" 
d="M300 560v160h160v-160h-160zM40 560v160h160v-160h-160z" />
    <glyph glyph-name="copyright" unicode="&#xa9;" horiz-adv-x="850" 
d="M425 -20q-168 0 -281.5 110.5t-113.5 269.5t113.5 269.5t281.5 110.5t281.5 -110.5t113.5 -269.5t-113.5 -269.5t-281.5 -110.5zM425 70q119 0 204.5 85.5t85.5 204.5t-85.5 204.5t-204.5 85.5t-204.5 -85.5t-85.5 -204.5t85.5 -204.5t204.5 -85.5zM435 126
q-100 0 -167 69t-67 165t67 165t167 69q108 0 162 -72l-72 -99q-45 45 -90 45q-41 0 -70 -30.5t-29 -77.5t29 -77.5t70 -30.5q45 0 90 45l72 -99q-54 -72 -162 -72z" />
    <glyph glyph-name="ordfeminine" unicode="&#xaa;" horiz-adv-x="430" 
d="M170 380q-49 0 -89.5 44t-40.5 111t40.5 111t89.5 44q63 0 90 -40v30h120v-290h-120v30q-27 -40 -90 -40zM50 210v120h330v-120h-330zM215 480q45 0 45 55t-45 55t-45 -55t45 -55z" />
    <glyph glyph-name="guillemotleft" unicode="&#xab;" horiz-adv-x="520" 
d="M400 80l-160 160l160 160l90 -90l-70 -70l70 -70zM180 80l-160 160l160 160l90 -90l-70 -70l70 -70z" />
    <glyph glyph-name="logicalnot" unicode="&#xac;" horiz-adv-x="564" 
d="M397 100v130h-370v150h510v-280h-140z" />
    <glyph glyph-name="uni00AD" unicode="&#xad;" horiz-adv-x="340" 
d="M40 210v150h270v-150h-270z" />
    <glyph glyph-name="registered" unicode="&#xae;" horiz-adv-x="540" 
d="M270 240q-104 0 -177 73t-73 177t73 177t177 73t177 -73t73 -177t-73 -177t-177 -73zM270 310q74 0 127 53t53 127t-53 127t-127 53t-127 -53t-53 -127t53 -127t127 -53zM170 370v240h130q39 0 64.5 -21.5t25.5 -58.5q0 -57 -45 -75l35 -85h-90l-25 80h-15v-80h-80z
M250 510h35q25 0 25 20q0 17 -25 17h-35v-37z" />
    <glyph glyph-name="macron" unicode="&#xaf;" horiz-adv-x="540" 
d="M75 584v113h390v-113h-390z" />
    <glyph glyph-name="degree" unicode="&#xb0;" horiz-adv-x="370" 
d="M185 430q-60 0 -102.5 42.5t-42.5 102.5t42.5 102.5t102.5 42.5t102.5 -42.5t42.5 -102.5t-42.5 -102.5t-102.5 -42.5zM185 520q23 0 39 16t16 39t-16 39t-39 16t-39 -16t-16 -39t16 -39t39 -16z" />
    <glyph glyph-name="plusminus" unicode="&#xb1;" horiz-adv-x="564" 
d="M207 180v160h-180v150h180v160h150v-160h180v-150h-180v-160h-150zM27 0v150h510v-150h-510z" />
    <glyph glyph-name="twosuperior" unicode="&#xb2;" horiz-adv-x="424" 
d="M57 310v62q0 50 29 89t63.5 58.5t63.5 42.5t29 44q0 11 -8 21t-27 10q-37 0 -37 -56l-123 11q6 74 52.5 111t111.5 37q81 0 122 -37.5t41 -95.5q0 -42 -25.5 -76t-56 -51t-56 -35t-25.5 -32h165l-12 -103h-307z" />
    <glyph glyph-name="threesuperior" unicode="&#xb3;" horiz-adv-x="424" 
d="M207 290q-77 0 -119 39.5t-49 102.5l118 13q8 -47 40 -47q41 0 41 42q0 45 -43 45h-14v81h9q19 1 28.5 9.5t9.5 28.5q0 33 -30 33q-19 0 -28 -13.5t-9 -32.5l-109 9q0 62 39.5 101t109.5 39q72 0 115 -31t43 -86q0 -53 -45 -83q62 -32 62 -107q0 -67 -47.5 -105
t-121.5 -38z" />
    <glyph glyph-name="acute" unicode="&#xb4;" horiz-adv-x="350" 
d="M40 560l70 160h200l-140 -160h-130z" />
    <glyph glyph-name="mu" unicode="&#xb5;" horiz-adv-x="580" 
d="M50 -200v660h180v-250q0 -70 60 -70t60 70v250h180v-460h-180v54q-24 -25 -46 -37.5t-35 -14.5t-39 -2v-200h-180z" />
    <glyph glyph-name="paragraph" unicode="&#xb6;" horiz-adv-x="700" 
d="M250 0v320h-50q-84 0 -142 56t-58 144t58 144t142 56h440v-720h-150v580h-90v-580h-150z" />
    <glyph glyph-name="periodcentered" unicode="&#xb7;" horiz-adv-x="340" 
d="M70 180v200h200v-200h-200z" />
    <glyph glyph-name="cedilla" unicode="&#xb8;" horiz-adv-x="210" 
d="M80 -260l-70 40q16 11 29 43.5t13 65.5q0 31 -12 51h130q13 -29 13 -57q0 -84 -103 -143z" />
    <glyph glyph-name="onesuperior" unicode="&#xb9;" horiz-adv-x="331" 
d="M124 310v270l-78 -52v140l88 52h130v-410h-140z" />
    <glyph glyph-name="ordmasculine" unicode="&#xba;" horiz-adv-x="430" 
d="M215 380q-81 0 -128 43t-47 112t47 112t128 43t128 -43t47 -112t-47 -112t-128 -43zM50 210v120h330v-120h-330zM215 480q45 0 45 55t-45 55t-45 -55t45 -55z" />
    <glyph glyph-name="guillemotright" unicode="&#xbb;" horiz-adv-x="520" 
d="M330 80l-90 90l70 70l-70 70l90 90l160 -160zM110 80l-90 90l70 70l-70 70l90 90l160 -160z" />
    <glyph glyph-name="onequarter" unicode="&#xbc;" horiz-adv-x="897" 
d="M124 269v270l-78 -52v140l88 52h130v-410h-140zM141 0l410 680h160l-410 -680h-160zM675 0v63h-186l153 347h173v-251h48v-96h-48v-63h-140zM617 159h58v137z" />
    <glyph glyph-name="onehalf" unicode="&#xbd;" horiz-adv-x="957" 
d="M124 269v270l-78 -52v140l88 52h130v-410h-140zM141 0l410 680h160l-410 -680h-160zM590 0v62q0 50 29 89t63.5 58.5t63.5 42.5t29 44q0 11 -8 21t-27 10q-37 0 -37 -56l-123 11q6 74 52.5 111t111.5 37q81 0 122 -37.5t41 -95.5q0 -42 -25.5 -76t-56 -51t-56 -35
t-25.5 -32h165l-12 -103h-307z" />
    <glyph glyph-name="threequarters" unicode="&#xbe;" horiz-adv-x="990" 
d="M207 249q-77 0 -119 39.5t-49 102.5l118 13q8 -47 40 -47q41 0 41 42q0 45 -43 45h-14v81h9q19 1 28.5 9.5t9.5 28.5q0 33 -30 33q-19 0 -28 -13.5t-9 -32.5l-109 9q0 62 39.5 101t109.5 39q72 0 115 -31t43 -86q0 -53 -45 -83q62 -32 62 -107q0 -67 -47.5 -105
t-121.5 -38zM234 0l410 680h160l-410 -680h-160zM768 0v63h-186l153 347h173v-251h48v-96h-48v-63h-140zM710 159h58v137z" />
    <glyph glyph-name="questiondown" unicode="&#xbf;" horiz-adv-x="530" 
d="M190 345v180h190v-180h-190zM270 -215q-122 0 -186 50.5t-64 129.5q0 42 12.5 75t31.5 51.5t41 37t41 33.5t31.5 39t12.5 54v40h190q3 -27 3 -51q0 -55 -17 -94.5t-41 -60t-47.5 -35t-40.5 -28.5t-17 -31q0 -23 14 -36.5t36 -13.5q70 0 70 80l190 -20q0 -94 -68.5 -157
t-191.5 -63z" />
    <glyph glyph-name="Agrave" unicode="&#xc0;" horiz-adv-x="700" 
d="M0 0l250 720h200l250 -720h-210l-34 110h-212l-34 -110h-210zM291 270h118l-58 200h-2zM290 780l-140 160h200l70 -160h-130z" />
    <glyph glyph-name="Aacute" unicode="&#xc1;" horiz-adv-x="700" 
d="M0 0l250 720h200l250 -720h-210l-34 110h-212l-34 -110h-210zM291 270h118l-58 200h-2zM280 780l70 160h200l-140 -160h-130z" />
    <glyph glyph-name="Acircumflex" unicode="&#xc2;" horiz-adv-x="700" 
d="M0 0l250 720h200l250 -720h-210l-34 110h-212l-34 -110h-210zM291 270h118l-58 200h-2zM150 780l110 160h180l110 -160h-160l-40 80l-40 -80h-160z" />
    <glyph glyph-name="Atilde" unicode="&#xc3;" horiz-adv-x="700" 
d="M0 0l250 720h200l250 -720h-210l-34 110h-212l-34 -110h-210zM291 270h118l-58 200h-2zM460 770q-40 0 -112 30t-88 30q-21 0 -25.5 -9t-4.5 -41h-100v40q0 68 25.5 99t84.5 31q40 0 112 -30t88 -30q21 0 25.5 9t4.5 41h100v-40q0 -68 -25.5 -99t-84.5 -31z" />
    <glyph glyph-name="Adieresis" unicode="&#xc4;" horiz-adv-x="700" 
d="M0 0l250 720h200l250 -720h-210l-34 110h-212l-34 -110h-210zM291 270h118l-58 200h-2zM400 780v160h160v-160h-160zM140 780v160h160v-160h-160z" />
    <glyph glyph-name="Aring" unicode="&#xc5;" horiz-adv-x="700" 
d="M0 0l250 720h200l250 -720h-210l-34 110h-212l-34 -110h-210zM291 270h118l-58 200h-2zM350 760q-46 0 -78 32t-32 78t32 78t78 32t78 -32t32 -78t-32 -78t-78 -32zM350 830q16 0 28 12t12 28t-12 28t-28 12t-28 -12t-12 -28t12 -28t28 -12z" />
    <glyph glyph-name="AE" unicode="&#xc6;" horiz-adv-x="940" 
d="M0 0l380 720h490l20 -180h-250v-90h220v-170h-220v-100h250l-20 -180h-430v110h-167l-53 -110h-220zM351 270h89v180h-2z" />
    <glyph glyph-name="Ccedilla" unicode="&#xc7;" horiz-adv-x="675" 
d="M410 -20q-165 0 -272.5 107.5t-107.5 272.5t107.5 272.5t272.5 107.5q159 0 250 -90l-100 -170q-65 80 -150 80q-76 0 -128 -56t-52 -144t52 -144t128 -56q90 0 150 90l110 -160q-37 -52 -106.5 -81t-153.5 -29zM380 -260l-70 40q16 11 29 43.5t13 65.5q0 31 -12 51h130
q13 -29 13 -57q0 -84 -103 -143z" />
    <glyph glyph-name="Egrave" unicode="&#xc8;" horiz-adv-x="560" 
d="M60 0v720h430l20 -180h-250v-90h220v-170h-220v-100h250l-20 -180h-430zM240 780l-140 160h200l70 -160h-130z" />
    <glyph glyph-name="Eacute" unicode="&#xc9;" horiz-adv-x="560" 
d="M60 0v720h430l20 -180h-250v-90h220v-170h-220v-100h250l-20 -180h-430zM170 780l70 160h200l-140 -160h-130z" />
    <glyph glyph-name="Ecircumflex" unicode="&#xca;" horiz-adv-x="560" 
d="M60 0v720h430l20 -180h-250v-90h220v-170h-220v-100h250l-20 -180h-430zM80 780l110 160h180l110 -160h-160l-40 80l-40 -80h-160z" />
    <glyph glyph-name="Edieresis" unicode="&#xcb;" horiz-adv-x="560" 
d="M60 0v720h430l20 -180h-250v-90h220v-170h-220v-100h250l-20 -180h-430zM330 780v160h160v-160h-160zM70 780v160h160v-160h-160z" />
    <glyph glyph-name="Igrave" unicode="&#xcc;" horiz-adv-x="320" 
d="M60 0v720h200v-720h-200zM100 780l-140 160h200l70 -160h-130z" />
    <glyph glyph-name="Iacute" unicode="&#xcd;" horiz-adv-x="320" 
d="M60 0v720h200v-720h-200zM90 780l70 160h200l-140 -160h-130z" />
    <glyph glyph-name="Icircumflex" unicode="&#xce;" horiz-adv-x="320" 
d="M60 0v720h200v-720h-200zM-40 780l110 160h180l110 -160h-160l-40 80l-40 -80h-160z" />
    <glyph glyph-name="Idieresis" unicode="&#xcf;" horiz-adv-x="320" 
d="M60 0v720h200v-720h-200zM210 780v160h160v-160h-160zM-50 780v160h160v-160h-160z" />
    <glyph glyph-name="Eth" unicode="&#xd0;" horiz-adv-x="720" 
d="M60 0v300h-90l19 120h71v300h280q62 0 122.5 -23t112 -66t83.5 -114t32 -157q0 -105 -54.5 -189.5t-134 -127.5t-161.5 -43h-280zM260 180q230 0 230 180t-230 180v-120h120l-20 -120h-100v-120z" />
    <glyph glyph-name="Ntilde" unicode="&#xd1;" horiz-adv-x="730" 
d="M60 0v720h180l228 -340h2v340h200v-720h-180l-228 340h-2v-340h-200zM475 770q-40 0 -112 30t-88 30q-21 0 -25.5 -9t-4.5 -41h-100v40q0 68 25.5 99t84.5 31q40 0 112 -30t88 -30q21 0 25.5 9t4.5 41h100v-40q0 -68 -25.5 -99t-84.5 -31z" />
    <glyph glyph-name="Ograve" unicode="&#xd2;" horiz-adv-x="820" 
d="M410 -20q-163 0 -271.5 110.5t-108.5 269.5t108.5 269.5t271.5 110.5t271.5 -110.5t108.5 -269.5t-108.5 -269.5t-271.5 -110.5zM410 160q76 0 128 56t52 144t-52 144t-128 56t-128 -56t-52 -144t52 -144t128 -56zM350 780l-140 160h200l70 -160h-130z" />
    <glyph glyph-name="Oacute" unicode="&#xd3;" horiz-adv-x="820" 
d="M410 -20q-163 0 -271.5 110.5t-108.5 269.5t108.5 269.5t271.5 110.5t271.5 -110.5t108.5 -269.5t-108.5 -269.5t-271.5 -110.5zM410 160q76 0 128 56t52 144t-52 144t-128 56t-128 -56t-52 -144t52 -144t128 -56zM340 780l70 160h200l-140 -160h-130z" />
    <glyph glyph-name="Ocircumflex" unicode="&#xd4;" horiz-adv-x="820" 
d="M410 -20q-163 0 -271.5 110.5t-108.5 269.5t108.5 269.5t271.5 110.5t271.5 -110.5t108.5 -269.5t-108.5 -269.5t-271.5 -110.5zM410 160q76 0 128 56t52 144t-52 144t-128 56t-128 -56t-52 -144t52 -144t128 -56zM210 780l110 160h180l110 -160h-160l-40 80l-40 -80
h-160z" />
    <glyph glyph-name="Otilde" unicode="&#xd5;" horiz-adv-x="820" 
d="M410 -20q-163 0 -271.5 110.5t-108.5 269.5t108.5 269.5t271.5 110.5t271.5 -110.5t108.5 -269.5t-108.5 -269.5t-271.5 -110.5zM410 160q76 0 128 56t52 144t-52 144t-128 56t-128 -56t-52 -144t52 -144t128 -56zM520 770q-40 0 -112 30t-88 30q-21 0 -25.5 -9t-4.5 -41
h-100v40q0 68 25.5 99t84.5 31q40 0 112 -30t88 -30q21 0 25.5 9t4.5 41h100v-40q0 -68 -25.5 -99t-84.5 -31z" />
    <glyph glyph-name="Odieresis" unicode="&#xd6;" horiz-adv-x="820" 
d="M410 -20q-163 0 -271.5 110.5t-108.5 269.5t108.5 269.5t271.5 110.5t271.5 -110.5t108.5 -269.5t-108.5 -269.5t-271.5 -110.5zM410 160q76 0 128 56t52 144t-52 144t-128 56t-128 -56t-52 -144t52 -144t128 -56zM460 780v160h160v-160h-160zM200 780v160h160v-160h-160
z" />
    <glyph glyph-name="multiply" unicode="&#xd7;" horiz-adv-x="564" 
d="M142 40l-100 100l140 140l-140 140l100 100l140 -140l140 140l100 -100l-140 -140l140 -140l-100 -100l-140 140z" />
    <glyph glyph-name="Oslash" unicode="&#xd8;" horiz-adv-x="820" 
d="M130 -20l-70 60l62 68q-92 105 -92 252q0 159 108.5 269.5t271.5 110.5q127 0 226 -71l64 71l70 -60l-67 -74q87 -104 87 -246q0 -159 -108.5 -269.5t-271.5 -110.5q-124 0 -219 67zM255 253l253 277q-44 30 -98 30q-76 0 -128 -56t-52 -144q0 -60 25 -107zM410 160
q76 0 128 56t52 144q0 54 -22 100l-250 -274q41 -26 92 -26z" />
    <glyph glyph-name="Ugrave" unicode="&#xd9;" horiz-adv-x="720" 
d="M360 -20q-134 0 -219.5 78.5t-85.5 211.5v450h200v-460q0 -50 30 -75t75 -25t75 25t30 75v460h200v-450q0 -133 -85.5 -211.5t-219.5 -78.5zM300 780l-140 160h200l70 -160h-130z" />
    <glyph glyph-name="Uacute" unicode="&#xda;" horiz-adv-x="720" 
d="M360 -20q-134 0 -219.5 78.5t-85.5 211.5v450h200v-460q0 -50 30 -75t75 -25t75 25t30 75v460h200v-450q0 -133 -85.5 -211.5t-219.5 -78.5zM290 780l70 160h200l-140 -160h-130z" />
    <glyph glyph-name="Ucircumflex" unicode="&#xdb;" horiz-adv-x="720" 
d="M360 -20q-134 0 -219.5 78.5t-85.5 211.5v450h200v-460q0 -50 30 -75t75 -25t75 25t30 75v460h200v-450q0 -133 -85.5 -211.5t-219.5 -78.5zM160 780l110 160h180l110 -160h-160l-40 80l-40 -80h-160z" />
    <glyph glyph-name="Udieresis" unicode="&#xdc;" horiz-adv-x="720" 
d="M360 -20q-134 0 -219.5 78.5t-85.5 211.5v450h200v-460q0 -50 30 -75t75 -25t75 25t30 75v460h200v-450q0 -133 -85.5 -211.5t-219.5 -78.5zM410 780v160h160v-160h-160zM150 780v160h160v-160h-160z" />
    <glyph glyph-name="Yacute" unicode="&#xdd;" 
d="M210 0v230l-210 490h210l99 -280h2l99 280h210l-210 -490v-230h-200zM240 780l70 160h200l-140 -160h-130z" />
    <glyph glyph-name="Thorn" unicode="&#xde;" horiz-adv-x="600" 
d="M70 0v720h200v-110h90q103 0 171.5 -69.5t68.5 -165.5q0 -99 -66.5 -167t-153.5 -68h-110v-140h-200zM270 300h40q44 0 67 20t23 55t-23 55t-67 20h-40v-150z" />
    <glyph glyph-name="germandbls" unicode="&#xdf;" horiz-adv-x="630" 
d="M50 0v475q0 129 69 197t191 68q60 0 107 -16.5t72.5 -42.5t38 -52t12.5 -49q0 -95 -72 -134q56 -14 94 -65t38 -131q0 -113 -61 -181.5t-189 -68.5h-50v150q55 0 87.5 25t32.5 75t-32.5 75t-87.5 25v130q60 0 60 50q0 24 -16 42t-44 18q-70 0 -70 -80v-510h-180z" />
    <glyph glyph-name="agrave" unicode="&#xe0;" 
d="M240 -15q-83 0 -146.5 64.5t-63.5 180.5t63.5 180.5t146.5 64.5q46 0 87 -18.5t61 -51.5h2v55h180v-460h-180v55h-2q-20 -33 -61 -51.5t-87 -18.5zM310 135q37 0 58.5 26.5t21.5 68.5t-21.5 68.5t-58.5 26.5t-58.5 -26.5t-21.5 -68.5t21.5 -68.5t58.5 -26.5zM270 560
l-140 160h200l70 -160h-130z" />
    <glyph glyph-name="aacute" unicode="&#xe1;" 
d="M240 -15q-83 0 -146.5 64.5t-63.5 180.5t63.5 180.5t146.5 64.5q46 0 87 -18.5t61 -51.5h2v55h180v-460h-180v55h-2q-20 -33 -61 -51.5t-87 -18.5zM310 135q37 0 58.5 26.5t21.5 68.5t-21.5 68.5t-58.5 26.5t-58.5 -26.5t-21.5 -68.5t21.5 -68.5t58.5 -26.5zM220 560
l70 160h200l-140 -160h-130z" />
    <glyph glyph-name="acircumflex" unicode="&#xe2;" 
d="M240 -15q-83 0 -146.5 64.5t-63.5 180.5t63.5 180.5t146.5 64.5q46 0 87 -18.5t61 -51.5h2v55h180v-460h-180v55h-2q-20 -33 -61 -51.5t-87 -18.5zM310 135q37 0 58.5 26.5t21.5 68.5t-21.5 68.5t-58.5 26.5t-58.5 -26.5t-21.5 -68.5t21.5 -68.5t58.5 -26.5zM120 560
l110 160h180l110 -160h-160l-40 80l-40 -80h-160z" />
    <glyph glyph-name="atilde" unicode="&#xe3;" 
d="M240 -15q-83 0 -146.5 64.5t-63.5 180.5t63.5 180.5t146.5 64.5q46 0 87 -18.5t61 -51.5h2v55h180v-460h-180v55h-2q-20 -33 -61 -51.5t-87 -18.5zM310 135q37 0 58.5 26.5t21.5 68.5t-21.5 68.5t-58.5 26.5t-58.5 -26.5t-21.5 -68.5t21.5 -68.5t58.5 -26.5zM430 550
q-40 0 -112 30t-88 30q-21 0 -25.5 -9t-4.5 -41h-100v40q0 68 25.5 99t84.5 31q40 0 112 -30t88 -30q21 0 25.5 9t4.5 41h100v-40q0 -68 -25.5 -99t-84.5 -31z" />
    <glyph glyph-name="adieresis" unicode="&#xe4;" 
d="M240 -15q-83 0 -146.5 64.5t-63.5 180.5t63.5 180.5t146.5 64.5q46 0 87 -18.5t61 -51.5h2v55h180v-460h-180v55h-2q-20 -33 -61 -51.5t-87 -18.5zM310 135q37 0 58.5 26.5t21.5 68.5t-21.5 68.5t-58.5 26.5t-58.5 -26.5t-21.5 -68.5t21.5 -68.5t58.5 -26.5zM380 560v160
h160v-160h-160zM120 560v160h160v-160h-160z" />
    <glyph glyph-name="aring" unicode="&#xe5;" 
d="M240 -15q-83 0 -146.5 64.5t-63.5 180.5t63.5 180.5t146.5 64.5q46 0 87 -18.5t61 -51.5h2v55h180v-460h-180v55h-2q-20 -33 -61 -51.5t-87 -18.5zM310 135q37 0 58.5 26.5t21.5 68.5t-21.5 68.5t-58.5 26.5t-58.5 -26.5t-21.5 -68.5t21.5 -68.5t58.5 -26.5zM310 540
q-46 0 -78 32t-32 78t32 78t78 32t78 -32t32 -78t-32 -78t-78 -32zM310 610q16 0 28 12t12 28t-12 28t-28 12t-28 -12t-12 -28t12 -28t28 -12z" />
    <glyph glyph-name="ae" unicode="&#xe6;" horiz-adv-x="940" 
d="M240 -15q-83 0 -146.5 64.5t-63.5 180.5t63.5 180.5t146.5 64.5q46 0 87 -18.5t61 -51.5h2v55h158q45 15 102 15q51 0 96 -15.5t82.5 -48t59.5 -91t22 -135.5h-340q4 -27 27 -46t53 -19t48.5 8.5t41.5 31.5l140 -70q-90 -105 -230 -105q-58 0 -104 15h-156v55h-2
q-20 -33 -61 -51.5t-87 -18.5zM570 280h160q-8 31 -26 45.5t-54 14.5t-54 -14.5t-26 -45.5zM310 135q37 0 58.5 26.5t21.5 68.5t-21.5 68.5t-58.5 26.5t-58.5 -26.5t-21.5 -68.5t21.5 -68.5t58.5 -26.5z" />
    <glyph glyph-name="ccedilla" unicode="&#xe7;" horiz-adv-x="482" 
d="M290 -15q-118 0 -189 69.5t-71 175.5t71 175.5t189 69.5q102 0 177 -65l-99 -121q-40 36 -78 36q-33 0 -56.5 -24.5t-23.5 -70.5t23.5 -70.5t56.5 -24.5q40 0 77 36l99 -119q-64 -67 -176 -67zM250 -255l-70 40q16 11 29 43.5t13 65.5q0 31 -12 51h130q13 -29 13 -57
q0 -84 -103 -143z" />
    <glyph glyph-name="egrave" unicode="&#xe8;" horiz-adv-x="590" 
d="M300 -15q-125 0 -197.5 68.5t-72.5 176.5t72.5 176.5t197.5 68.5q51 0 96 -15.5t82.5 -48t59.5 -91t22 -135.5h-340q4 -27 27 -46t53 -19t48.5 8.5t41.5 31.5l140 -70q-90 -105 -230 -105zM220 280h160q-8 31 -26 45.5t-54 14.5t-54 -14.5t-26 -45.5zM250 560l-140 160
h200l70 -160h-130z" />
    <glyph glyph-name="eacute" unicode="&#xe9;" horiz-adv-x="590" 
d="M300 -15q-125 0 -197.5 68.5t-72.5 176.5t72.5 176.5t197.5 68.5q51 0 96 -15.5t82.5 -48t59.5 -91t22 -135.5h-340q4 -27 27 -46t53 -19t48.5 8.5t41.5 31.5l140 -70q-90 -105 -230 -105zM220 280h160q-8 31 -26 45.5t-54 14.5t-54 -14.5t-26 -45.5zM220 560l70 160h200
l-140 -160h-130z" />
    <glyph glyph-name="ecircumflex" unicode="&#xea;" horiz-adv-x="590" 
d="M300 -15q-125 0 -197.5 68.5t-72.5 176.5t72.5 176.5t197.5 68.5q51 0 96 -15.5t82.5 -48t59.5 -91t22 -135.5h-340q4 -27 27 -46t53 -19t48.5 8.5t41.5 31.5l140 -70q-90 -105 -230 -105zM220 280h160q-8 31 -26 45.5t-54 14.5t-54 -14.5t-26 -45.5zM100 560l110 160
h180l110 -160h-160l-40 80l-40 -80h-160z" />
    <glyph glyph-name="edieresis" unicode="&#xeb;" horiz-adv-x="590" 
d="M300 -15q-125 0 -197.5 68.5t-72.5 176.5t72.5 176.5t197.5 68.5q51 0 96 -15.5t82.5 -48t59.5 -91t22 -135.5h-340q4 -27 27 -46t53 -19t48.5 8.5t41.5 31.5l140 -70q-90 -105 -230 -105zM220 280h160q-8 31 -26 45.5t-54 14.5t-54 -14.5t-26 -45.5zM350 560v160h160
v-160h-160zM90 560v160h160v-160h-160z" />
    <glyph glyph-name="igrave" unicode="&#xec;" horiz-adv-x="280" 
d="M50 0v460h180v-460h-180zM80 560l-140 160h200l70 -160h-130z" />
    <glyph glyph-name="iacute" unicode="&#xed;" horiz-adv-x="280" 
d="M50 0v460h180v-460h-180zM70 560l70 160h200l-140 -160h-130z" />
    <glyph glyph-name="icircumflex" unicode="&#xee;" horiz-adv-x="280" 
d="M50 0v460h180v-460h-180zM-60 560l110 160h180l110 -160h-160l-40 80l-40 -80h-160z" />
    <glyph glyph-name="idieresis" unicode="&#xef;" horiz-adv-x="280" 
d="M50 0v460h180v-460h-180zM190 560v160h160v-160h-160zM-70 560v160h160v-160h-160z" />
    <glyph glyph-name="eth" unicode="&#xf0;" horiz-adv-x="600" 
d="M452 648l-60 -34l107 -162q43 -66 57 -116t14 -106q0 -108 -72.5 -176.5t-197.5 -68.5t-197.5 68.5t-72.5 176.5q0 104 65.5 174.5t161.5 70.5h18l-36 52l-71 -40l-47 82l64 36l-86 125h216l24 -37l66 37zM300 135q37 0 58.5 26.5t21.5 68.5q0 95 -80 95t-80 -95
q0 -43 21.5 -69t58.5 -26z" />
    <glyph glyph-name="ntilde" unicode="&#xf1;" horiz-adv-x="575" 
d="M50 0v460h180v-55h2q53 70 148 70q78 0 114 -43.5t36 -116.5v-315h-180v245q0 70 -60 70t-60 -70v-245h-180zM400 550q-40 0 -112 30t-88 30q-21 0 -25.5 -9t-4.5 -41h-100v40q0 68 25.5 99t84.5 31q40 0 112 -30t88 -30q21 0 25.5 9t4.5 41h100v-40q0 -68 -25.5 -99
t-84.5 -31z" />
    <glyph glyph-name="ograve" unicode="&#xf2;" horiz-adv-x="600" 
d="M300 -15q-125 0 -197.5 68.5t-72.5 176.5t72.5 176.5t197.5 68.5t197.5 -68.5t72.5 -176.5t-72.5 -176.5t-197.5 -68.5zM300 135q37 0 58.5 26.5t21.5 68.5q0 95 -80 95t-80 -95q0 -43 21.5 -69t58.5 -26zM250 560l-140 160h200l70 -160h-130z" />
    <glyph glyph-name="oacute" unicode="&#xf3;" horiz-adv-x="600" 
d="M300 -15q-125 0 -197.5 68.5t-72.5 176.5t72.5 176.5t197.5 68.5t197.5 -68.5t72.5 -176.5t-72.5 -176.5t-197.5 -68.5zM300 135q37 0 58.5 26.5t21.5 68.5q0 95 -80 95t-80 -95q0 -43 21.5 -69t58.5 -26zM220 560l70 160h200l-140 -160h-130z" />
    <glyph glyph-name="ocircumflex" unicode="&#xf4;" horiz-adv-x="600" 
d="M300 -15q-125 0 -197.5 68.5t-72.5 176.5t72.5 176.5t197.5 68.5t197.5 -68.5t72.5 -176.5t-72.5 -176.5t-197.5 -68.5zM300 135q37 0 58.5 26.5t21.5 68.5q0 95 -80 95t-80 -95q0 -43 21.5 -69t58.5 -26zM100 560l110 160h180l110 -160h-160l-40 80l-40 -80h-160z" />
    <glyph glyph-name="otilde" unicode="&#xf5;" horiz-adv-x="600" 
d="M300 -15q-125 0 -197.5 68.5t-72.5 176.5t72.5 176.5t197.5 68.5t197.5 -68.5t72.5 -176.5t-72.5 -176.5t-197.5 -68.5zM300 135q37 0 58.5 26.5t21.5 68.5q0 95 -80 95t-80 -95q0 -43 21.5 -69t58.5 -26zM410 550q-40 0 -112 30t-88 30q-21 0 -25.5 -9t-4.5 -41h-100v40
q0 68 25.5 99t84.5 31q40 0 112 -30t88 -30q21 0 25.5 9t4.5 41h100v-40q0 -68 -25.5 -99t-84.5 -31z" />
    <glyph glyph-name="odieresis" unicode="&#xf6;" horiz-adv-x="600" 
d="M300 -15q-125 0 -197.5 68.5t-72.5 176.5t72.5 176.5t197.5 68.5t197.5 -68.5t72.5 -176.5t-72.5 -176.5t-197.5 -68.5zM300 135q37 0 58.5 26.5t21.5 68.5q0 95 -80 95t-80 -95q0 -43 21.5 -69t58.5 -26zM350 560v160h160v-160h-160zM90 560v160h160v-160h-160z" />
    <glyph glyph-name="divide" unicode="&#xf7;" horiz-adv-x="564" 
d="M207 440v150h150v-150h-150zM27 230v150h510v-150h-510zM207 20v150h150v-150h-150z" />
    <glyph glyph-name="oslash" unicode="&#xf8;" horiz-adv-x="600" 
d="M90 -15l-50 50l42 40q-52 63 -52 155q0 108 72.5 176.5t197.5 68.5q98 0 164 -43l46 43l50 -50l-42 -40q52 -64 52 -155q0 -108 -72.5 -176.5t-197.5 -68.5q-94 0 -164 43zM210 194l124 117q-18 14 -49 14q-80 0 -80 -95q0 -18 5 -36zM285 135q37 0 58.5 26.5t21.5 68.5
v12l-109 -102q15 -5 29 -5z" />
    <glyph glyph-name="ugrave" unicode="&#xf9;" horiz-adv-x="575" 
d="M195 -15q-78 0 -114 43.5t-36 116.5v315h180v-245q0 -70 60 -70t60 70v245h180v-460h-180v55h-2q-53 -70 -148 -70zM240 560l-140 160h200l70 -160h-130z" />
    <glyph glyph-name="uacute" unicode="&#xfa;" horiz-adv-x="575" 
d="M195 -15q-78 0 -114 43.5t-36 116.5v315h180v-245q0 -70 60 -70t60 70v245h180v-460h-180v55h-2q-53 -70 -148 -70zM200 560l70 160h200l-140 -160h-130z" />
    <glyph glyph-name="ucircumflex" unicode="&#xfb;" horiz-adv-x="575" 
d="M195 -15q-78 0 -114 43.5t-36 116.5v315h180v-245q0 -70 60 -70t60 70v245h180v-460h-180v55h-2q-53 -70 -148 -70zM85 560l110 160h180l110 -160h-160l-40 80l-40 -80h-160z" />
    <glyph glyph-name="udieresis" unicode="&#xfc;" horiz-adv-x="575" 
d="M195 -15q-78 0 -114 43.5t-36 116.5v315h180v-245q0 -70 60 -70t60 70v245h180v-460h-180v55h-2q-53 -70 -148 -70zM335 560v160h160v-160h-160zM75 560v160h160v-160h-160z" />
    <glyph glyph-name="yacute" unicode="&#xfd;" horiz-adv-x="500" 
d="M83 -200l82 222l-165 438h180l67 -210h2l71 210h180l-237 -660h-180zM170 560l70 160h200l-140 -160h-130z" />
    <glyph glyph-name="thorn" unicode="&#xfe;" 
d="M50 -200v930h180v-325q22 33 63 51.5t87 18.5q83 0 146.5 -64.5t63.5 -180.5t-63.5 -180.5t-146.5 -64.5q-46 0 -87 18.5t-63 51.5v-255h-180zM310 135q37 0 58.5 26.5t21.5 68.5t-21.5 68.5t-58.5 26.5t-58.5 -26.5t-21.5 -68.5t21.5 -68.5t58.5 -26.5z" />
    <glyph glyph-name="ydieresis" unicode="&#xff;" horiz-adv-x="500" 
d="M83 -200l82 222l-165 438h180l67 -210h2l71 210h180l-237 -660h-180zM305 560v160h160v-160h-160zM45 560v160h160v-160h-160z" />
    <glyph glyph-name="Amacron" unicode="&#x100;" horiz-adv-x="700" 
d="M0 0l250 720h200l250 -720h-210l-34 110h-212l-34 -110h-210zM291 270h118l-58 200h-2zM135 804v113h430v-113h-430z" />
    <glyph glyph-name="amacron" unicode="&#x101;" 
d="M240 -15q-83 0 -146.5 64.5t-63.5 180.5t63.5 180.5t146.5 64.5q46 0 87 -18.5t61 -51.5h2v55h180v-460h-180v55h-2q-20 -33 -61 -51.5t-87 -18.5zM310 135q37 0 58.5 26.5t21.5 68.5t-21.5 68.5t-58.5 26.5t-58.5 -26.5t-21.5 -68.5t21.5 -68.5t58.5 -26.5zM116 584v113
h390v-113h-390z" />
    <glyph glyph-name="Abreve" unicode="&#x102;" horiz-adv-x="700" 
d="M0 0l250 720h200l250 -720h-210l-34 110h-212l-34 -110h-210zM291 270h118l-58 200h-2zM350 770q-103 0 -141.5 45.5t-38.5 124.5h110q0 -38 16 -54t54 -16t54 16t16 54h110q0 -79 -38.5 -124.5t-141.5 -45.5z" />
    <glyph glyph-name="abreve" unicode="&#x103;" 
d="M240 -15q-83 0 -146.5 64.5t-63.5 180.5t63.5 180.5t146.5 64.5q46 0 87 -18.5t61 -51.5h2v55h180v-460h-180v55h-2q-20 -33 -61 -51.5t-87 -18.5zM310 135q37 0 58.5 26.5t21.5 68.5t-21.5 68.5t-58.5 26.5t-58.5 -26.5t-21.5 -68.5t21.5 -68.5t58.5 -26.5zM315 550
q-103 0 -141.5 45.5t-38.5 124.5h110q0 -38 16.5 -54t53.5 -16t53.5 16t16.5 54h110q0 -79 -38.5 -124.5t-141.5 -45.5z" />
    <glyph glyph-name="Aogonek" unicode="&#x104;" horiz-adv-x="700" 
d="M291 270h118l-58 200h-2zM0 0l250 720h200l250 -720h-55q-43 -62 -43 -86q0 -27 28 -27q8 0 40 4v-91q-31 -20 -92 -20q-45 0 -74 23t-29 69q0 72 80 128h-65l-34 110h-212l-34 -110h-210z" />
    <glyph glyph-name="aogonek" unicode="&#x105;" 
d="M240 -15q-83 0 -146.5 64.5t-63.5 180.5t63.5 180.5t146.5 64.5q46 0 87 -18.5t61 -51.5h2v55h180v-460h-25q-43 -62 -43 -86q0 -27 28 -27q8 0 40 4v-91q-31 -20 -92 -20q-45 0 -74 23t-29 69q0 72 80 128h-65v55h-2q-20 -33 -61 -51.5t-87 -18.5zM310 135
q37 0 58.5 26.5t21.5 68.5t-21.5 68.5t-58.5 26.5t-58.5 -26.5t-21.5 -68.5t21.5 -68.5t58.5 -26.5z" />
    <glyph glyph-name="Cacute" unicode="&#x106;" horiz-adv-x="675" 
d="M410 -20q-165 0 -272.5 107.5t-107.5 272.5t107.5 272.5t272.5 107.5q159 0 250 -90l-100 -170q-65 80 -150 80q-76 0 -128 -56t-52 -144t52 -144t128 -56q90 0 150 90l110 -160q-37 -52 -106.5 -81t-153.5 -29zM300 780l70 160h200l-140 -160h-130z" />
    <glyph glyph-name="cacute" unicode="&#x107;" horiz-adv-x="482" 
d="M290 -15q-118 0 -189 69.5t-71 175.5t71 175.5t189 69.5q102 0 177 -65l-99 -121q-40 36 -78 36q-33 0 -56.5 -24.5t-23.5 -70.5t23.5 -70.5t56.5 -24.5q40 0 77 36l99 -119q-64 -67 -176 -67zM185 560l70 160h200l-140 -160h-130z" />
    <glyph glyph-name="Ccircumflex" unicode="&#x108;" horiz-adv-x="675" 
d="M410 -20q-165 0 -272.5 107.5t-107.5 272.5t107.5 272.5t272.5 107.5q159 0 250 -90l-100 -170q-65 80 -150 80q-76 0 -128 -56t-52 -144t52 -144t128 -56q90 0 150 90l110 -160q-37 -52 -106.5 -81t-153.5 -29zM200 780l110 160h180l110 -160h-160l-40 80l-40 -80h-160z
" />
    <glyph glyph-name="ccircumflex" unicode="&#x109;" horiz-adv-x="482" 
d="M290 -15q-118 0 -189 69.5t-71 175.5t71 175.5t189 69.5q102 0 177 -65l-99 -121q-40 36 -78 36q-33 0 -56.5 -24.5t-23.5 -70.5t23.5 -70.5t56.5 -24.5q40 0 77 36l99 -119q-64 -67 -176 -67zM80 560l110 160h180l110 -160h-160l-40 80l-40 -80h-160z" />
    <glyph glyph-name="Cdotaccent" unicode="&#x10a;" horiz-adv-x="675" 
d="M410 -20q-165 0 -272.5 107.5t-107.5 272.5t107.5 272.5t272.5 107.5q159 0 250 -90l-100 -170q-65 80 -150 80q-76 0 -128 -56t-52 -144t52 -144t128 -56q90 0 150 90l110 -160q-37 -52 -106.5 -81t-153.5 -29zM310 780v160h180v-160h-180z" />
    <glyph glyph-name="cdotaccent" unicode="&#x10b;" horiz-adv-x="482" 
d="M290 -15q-118 0 -189 69.5t-71 175.5t71 175.5t189 69.5q102 0 177 -65l-99 -121q-40 36 -78 36q-33 0 -56.5 -24.5t-23.5 -70.5t23.5 -70.5t56.5 -24.5q40 0 77 36l99 -119q-64 -67 -176 -67zM190 560v160h180v-160h-180z" />
    <glyph glyph-name="Ccaron" unicode="&#x10c;" horiz-adv-x="675" 
d="M410 -20q-165 0 -272.5 107.5t-107.5 272.5t107.5 272.5t272.5 107.5q159 0 250 -90l-100 -170q-65 80 -150 80q-76 0 -128 -56t-52 -144t52 -144t128 -56q90 0 150 90l110 -160q-37 -52 -106.5 -81t-153.5 -29zM320 780l-110 160h140l40 -80l40 80h140l-110 -160h-140z
" />
    <glyph glyph-name="ccaron" unicode="&#x10d;" horiz-adv-x="482" 
d="M290 -15q-118 0 -189 69.5t-71 175.5t71 175.5t189 69.5q102 0 177 -65l-99 -121q-40 36 -78 36q-33 0 -56.5 -24.5t-23.5 -70.5t23.5 -70.5t56.5 -24.5q40 0 77 36l99 -119q-64 -67 -176 -67zM200 560l-110 160h140l40 -80l40 80h140l-110 -160h-140z" />
    <glyph glyph-name="Dcaron" unicode="&#x10e;" horiz-adv-x="720" 
d="M60 0v720h280q62 0 122.5 -23t112 -66t83.5 -114t32 -157q0 -105 -54.5 -189.5t-134 -127.5t-161.5 -43h-280zM260 180q230 0 230 180t-230 180v-360zM230 780l-110 160h140l40 -80l40 80h140l-110 -160h-140z" />
    <glyph glyph-name="dcaron" unicode="&#x10f;" 
d="M240 -15q-83 0 -146.5 64.5t-63.5 180.5t63.5 180.5t146.5 64.5q46 0 87 -18.5t61 -51.5h2v325h180v-730h-180v55h-2q-20 -33 -61 -51.5t-87 -18.5zM310 135q37 0 58.5 26.5t21.5 68.5t-21.5 68.5t-58.5 26.5t-58.5 -26.5t-21.5 -68.5t21.5 -68.5t58.5 -26.5zM777 730
l-30 -260h-132v260h162z" />
    <glyph glyph-name="Dcroat" unicode="&#x110;" horiz-adv-x="720" 
d="M60 0v300h-90l19 120h71v300h280q62 0 122.5 -23t112 -66t83.5 -114t32 -157q0 -105 -54.5 -189.5t-134 -127.5t-161.5 -43h-280zM260 180q230 0 230 180t-230 180v-120h120l-20 -120h-100v-120z" />
    <glyph glyph-name="dcroat" unicode="&#x111;" 
d="M240 -15q-83 0 -146.5 64.5t-63.5 180.5t63.5 180.5t146.5 64.5q46 0 87 -18.5t63 -51.5v125h-150l10 120h140v80h180v-80h70l-10 -120h-60v-530h-180v55q-22 -33 -63 -51.5t-87 -18.5zM310 135q37 0 58.5 26.5t21.5 68.5t-21.5 68.5t-58.5 26.5t-58.5 -26.5t-21.5 -68.5
t21.5 -68.5t58.5 -26.5z" />
    <glyph glyph-name="Emacron" unicode="&#x112;" horiz-adv-x="560" 
d="M60 0v720h430l20 -180h-250v-90h220v-170h-220v-100h250l-20 -180h-430zM60 804v113h430v-113h-430z" />
    <glyph glyph-name="emacron" unicode="&#x113;" horiz-adv-x="590" 
d="M300 -15q-125 0 -197.5 68.5t-72.5 176.5t72.5 176.5t197.5 68.5q51 0 96 -15.5t82.5 -48t59.5 -91t22 -135.5h-340q4 -27 27 -46t53 -19t48.5 8.5t41.5 31.5l140 -70q-90 -105 -230 -105zM220 280h160q-8 31 -26 45.5t-54 14.5t-54 -14.5t-26 -45.5zM103 584v113h390
v-113h-390z" />
    <glyph glyph-name="Edotaccent" unicode="&#x116;" horiz-adv-x="560" 
d="M60 0v720h430l20 -180h-250v-90h220v-170h-220v-100h250l-20 -180h-430zM185 780v160h180v-160h-180z" />
    <glyph glyph-name="edotaccent" unicode="&#x117;" horiz-adv-x="590" 
d="M300 -15q-125 0 -197.5 68.5t-72.5 176.5t72.5 176.5t197.5 68.5q51 0 96 -15.5t82.5 -48t59.5 -91t22 -135.5h-340q4 -27 27 -46t53 -19t48.5 8.5t41.5 31.5l140 -70q-90 -105 -230 -105zM220 280h160q-8 31 -26 45.5t-54 14.5t-54 -14.5t-26 -45.5zM210 560v160h180
v-160h-180z" />
    <glyph glyph-name="Eogonek" unicode="&#x118;" horiz-adv-x="560" 
d="M60 0v720h430l20 -180h-250v-90h220v-170h-220v-100h250l-20 -180h-38q-43 -62 -43 -86q0 -27 28 -27q8 0 40 4v-91q-31 -20 -92 -20q-45 0 -74 23t-29 69q0 72 80 128h-302z" />
    <glyph glyph-name="eogonek" unicode="&#x119;" horiz-adv-x="590" 
d="M300 -15q-125 0 -197.5 68.5t-72.5 176.5t72.5 176.5t197.5 68.5q51 0 96 -15.5t82.5 -48t59.5 -91t22 -135.5h-340q4 -27 27 -46t53 -19t48.5 8.5t41.5 31.5l140 -70q-2 -2 -20.5 -23.5t-31.5 -38t-30 -39.5t-26 -42.5t-9 -32.5q0 -27 28 -27q8 0 40 4v-91
q-31 -20 -92 -20q-45 0 -74 23t-29 69q0 64 64 116q-24 -3 -50 -3zM220 280h160q-8 31 -26 45.5t-54 14.5t-54 -14.5t-26 -45.5z" />
    <glyph glyph-name="Ecaron" unicode="&#x11a;" horiz-adv-x="560" 
d="M60 0v720h430l20 -180h-250v-90h220v-170h-220v-100h250l-20 -180h-430zM195 780l-110 160h140l40 -80l40 80h140l-110 -160h-140z" />
    <glyph glyph-name="ecaron" unicode="&#x11b;" horiz-adv-x="590" 
d="M300 -15q-125 0 -197.5 68.5t-72.5 176.5t72.5 176.5t197.5 68.5q51 0 96 -15.5t82.5 -48t59.5 -91t22 -135.5h-340q4 -27 27 -46t53 -19t48.5 8.5t41.5 31.5l140 -70q-90 -105 -230 -105zM220 280h160q-8 31 -26 45.5t-54 14.5t-54 -14.5t-26 -45.5zM220 560l-110 160
h140l40 -80l40 80h140l-110 -160h-140z" />
    <glyph glyph-name="Gcircumflex" unicode="&#x11c;" horiz-adv-x="785" 
d="M390 -20q-151 0 -255.5 108t-104.5 271q0 166 107.5 273.5t272.5 107.5q99 0 156.5 -27t123.5 -93l-120 -140q-45 45 -80.5 62.5t-79.5 17.5q-76 0 -128 -56t-52 -144q0 -85 49 -142.5t131 -57.5q48 0 78 14t62 46v60h-140l20 160h320v-260q-44 -66 -87 -106.5
t-112.5 -67t-160.5 -26.5zM210 780l110 160h180l110 -160h-160l-40 80l-40 -80h-160z" />
    <glyph glyph-name="gcircumflex" unicode="&#x11d;" 
d="M290 -215q-98 0 -210 40l30 144q64 -34 180 -34q48 0 75 27.5t27 74.5q0 7 -2 23h-2q-39 -75 -148 -75q-83 0 -146.5 64.5t-63.5 180.5t63.5 180.5t146.5 64.5q46 0 87 -18.5t61 -51.5h2v55h180v-455q0 -120 -74.5 -170t-205.5 -50zM310 135q37 0 58.5 26.5t21.5 68.5
t-21.5 68.5t-58.5 26.5t-58.5 -26.5t-21.5 -68.5t21.5 -68.5t58.5 -26.5zM120 560l110 160h180l110 -160h-160l-40 80l-40 -80h-160z" />
    <glyph glyph-name="Gbreve" unicode="&#x11e;" horiz-adv-x="785" 
d="M390 -20q-151 0 -255.5 108t-104.5 271q0 166 107.5 273.5t272.5 107.5q99 0 156.5 -27t123.5 -93l-120 -140q-45 45 -80.5 62.5t-79.5 17.5q-76 0 -128 -56t-52 -144q0 -85 49 -142.5t131 -57.5q48 0 78 14t62 46v60h-140l20 160h320v-260q-44 -66 -87 -106.5
t-112.5 -67t-160.5 -26.5zM410 770q-103 0 -141.5 45.5t-38.5 124.5h110q0 -38 16 -54t54 -16t54 16t16 54h110q0 -79 -38.5 -124.5t-141.5 -45.5z" />
    <glyph glyph-name="gbreve" unicode="&#x11f;" 
d="M290 -215q-98 0 -210 40l30 144q64 -34 180 -34q48 0 75 27.5t27 74.5q0 7 -2 23h-2q-39 -75 -148 -75q-83 0 -146.5 64.5t-63.5 180.5t63.5 180.5t146.5 64.5q46 0 87 -18.5t61 -51.5h2v55h180v-455q0 -120 -74.5 -170t-205.5 -50zM310 135q37 0 58.5 26.5t21.5 68.5
t-21.5 68.5t-58.5 26.5t-58.5 -26.5t-21.5 -68.5t21.5 -68.5t58.5 -26.5zM320 550q-103 0 -141.5 45.5t-38.5 124.5h110q0 -38 16 -54t54 -16t54 16t16 54h110q0 -79 -38.5 -124.5t-141.5 -45.5z" />
    <glyph glyph-name="Gdotaccent" unicode="&#x120;" horiz-adv-x="785" 
d="M390 -20q-151 0 -255.5 108t-104.5 271q0 166 107.5 273.5t272.5 107.5q99 0 156.5 -27t123.5 -93l-120 -140q-45 45 -80.5 62.5t-79.5 17.5q-76 0 -128 -56t-52 -144q0 -85 49 -142.5t131 -57.5q48 0 78 14t62 46v60h-140l20 160h320v-260q-44 -66 -87 -106.5
t-112.5 -67t-160.5 -26.5zM320 780v160h180v-160h-180z" />
    <glyph glyph-name="gdotaccent" unicode="&#x121;" 
d="M290 -215q-98 0 -210 40l30 144q64 -34 180 -34q48 0 75 27.5t27 74.5q0 7 -2 23h-2q-39 -75 -148 -75q-83 0 -146.5 64.5t-63.5 180.5t63.5 180.5t146.5 64.5q46 0 87 -18.5t61 -51.5h2v55h180v-455q0 -120 -74.5 -170t-205.5 -50zM310 135q37 0 58.5 26.5t21.5 68.5
t-21.5 68.5t-58.5 26.5t-58.5 -26.5t-21.5 -68.5t21.5 -68.5t58.5 -26.5zM230 560v160h180v-160h-180z" />
    <glyph glyph-name="Gcommaaccent" unicode="&#x122;" horiz-adv-x="785" 
d="M390 -20q-151 0 -255.5 108t-104.5 271q0 166 107.5 273.5t272.5 107.5q99 0 156.5 -27t123.5 -93l-120 -140q-45 45 -80.5 62.5t-79.5 17.5q-76 0 -128 -56t-52 -144q0 -85 49 -142.5t131 -57.5q48 0 78 14t62 46v60h-140l20 160h320v-260q-44 -66 -87 -106.5
t-112.5 -67t-160.5 -26.5zM376 -255l-70 40q16 11 29 43.5t13 65.5q0 31 -12 51h130q13 -29 13 -57q0 -84 -103 -143z" />
    <glyph glyph-name="gcommaaccent" unicode="&#x123;" 
d="M290 -215q-98 0 -210 40l30 144q64 -34 180 -34q48 0 75 27.5t27 74.5q0 7 -2 23h-2q-39 -75 -148 -75q-83 0 -146.5 64.5t-63.5 180.5t63.5 180.5t146.5 64.5q46 0 87 -18.5t61 -51.5h2v55h180v-455q0 -120 -74.5 -170t-205.5 -50zM310 135q37 0 58.5 26.5t21.5 68.5
t-21.5 68.5t-58.5 26.5t-58.5 -26.5t-21.5 -68.5t21.5 -68.5t58.5 -26.5zM339 760l70 -40q-16 -11 -29 -43.5t-13 -65.5q0 -31 12 -51h-130q-13 29 -13 57q0 84 103 143z" />
    <glyph glyph-name="Hcircumflex" unicode="&#x124;" horiz-adv-x="740" 
d="M60 0v720h200v-260h220v260h200v-720h-200v280h-220v-280h-200zM170 780l110 160h180l110 -160h-160l-40 80l-40 -80h-160z" />
    <glyph glyph-name="hcircumflex" unicode="&#x125;" horiz-adv-x="575" 
d="M50 0v730h180v-325h2q53 70 148 70q78 0 114 -43.5t36 -116.5v-315h-180v245q0 70 -60 70t-60 -70v-245h-180zM91 780l110 160h180l110 -160h-160l-40 80l-40 -80h-160z" />
    <glyph glyph-name="Hbar" unicode="&#x126;" horiz-adv-x="740" 
d="M-10 530l10 120h60v70h200v-70h220v70h200v-70h70l-10 -120h-60v-530h-200v280h-220v-280h-200v530h-70zM260 460h220v70h-220v-70z" />
    <glyph glyph-name="hbar" unicode="&#x127;" horiz-adv-x="575" 
d="M-20 530l10 120h60v80h180v-80h150l-10 -120h-140v-125h2q53 70 148 70q78 0 114 -43.5t36 -116.5v-315h-180v245q0 70 -60 70t-60 -70v-245h-180v530h-70z" />
    <glyph glyph-name="Imacron" unicode="&#x12a;" horiz-adv-x="320" 
d="M60 0v720h200v-720h-200zM-55 804v113h430v-113h-430z" />
    <glyph glyph-name="imacron" unicode="&#x12b;" horiz-adv-x="280" 
d="M50 0v460h180v-460h-180zM-55 584v113h390v-113h-390z" />
    <glyph glyph-name="Iogonek" unicode="&#x12e;" horiz-adv-x="320" 
d="M60 0v720h200v-720h-25q-43 -62 -43 -86q0 -27 28 -27q8 0 40 4v-91q-31 -20 -92 -20q-45 0 -74 23t-29 69q0 72 80 128h-85z" />
    <glyph glyph-name="iogonek" unicode="&#x12f;" horiz-adv-x="280" 
d="M50 0v460h180v-460h-25q-43 -62 -43 -86q0 -27 28 -27q8 0 40 4v-91q-31 -20 -92 -20q-45 0 -74 23t-29 69q0 72 80 128h-65zM50 560v160h180v-160h-180z" />
    <glyph glyph-name="Idotaccent" unicode="&#x130;" horiz-adv-x="320" 
d="M60 0v720h200v-720h-200zM70 780v160h180v-160h-180z" />
    <glyph glyph-name="dotlessi" unicode="&#x131;" horiz-adv-x="280" 
d="M50 0v460h180v-460h-180z" />
    <glyph glyph-name="Jcircumflex" unicode="&#x134;" horiz-adv-x="440" 
d="M180 -20q-100 0 -180 60l80 160l30 -20q19 -13 37 -13q33 0 33 43v510h200v-550q0 -49 -12.5 -85t-31.5 -55.5t-47.5 -31.5t-53 -15t-55.5 -3zM80 780l110 160h180l110 -160h-160l-40 80l-40 -80h-160z" />
    <glyph glyph-name="jcircumflex" unicode="&#x135;" horiz-adv-x="280" 
d="M-60 560l110 160h180l110 -160h-160l-40 80l-40 -80h-160zM80 -215q-48 0 -110 31v160q34 -20 53 -20q27 0 27 40v464h180v-510q0 -81 -40.5 -123t-109.5 -42z" />
    <glyph glyph-name="Kcommaaccent" unicode="&#x136;" horiz-adv-x="670" 
d="M60 0v720h200v-270h2l158 270h230l-210 -330l230 -390h-230l-178 310h-2v-310h-200zM326 -255l-70 40q16 11 29 43.5t13 65.5q0 31 -12 51h130q13 -29 13 -57q0 -84 -103 -143z" />
    <glyph glyph-name="kcommaaccent" unicode="&#x137;" horiz-adv-x="570" 
d="M50 0v730h180v-440h2l118 170h200l-170 -220l190 -240h-210l-128 180h-2v-180h-180zM265 -255l-70 40q16 11 29 43.5t13 65.5q0 31 -12 51h130q13 -29 13 -57q0 -84 -103 -143z" />
    <glyph glyph-name="Lacute" unicode="&#x139;" horiz-adv-x="490" 
d="M60 0v720h200v-540h230l-20 -180h-410zM90 780l70 160h200l-140 -160h-130z" />
    <glyph glyph-name="lacute" unicode="&#x13a;" horiz-adv-x="280" 
d="M50 0v730h180v-730h-180zM70 780l70 160h200l-140 -160h-130z" />
    <glyph glyph-name="Lcommaaccent" unicode="&#x13b;" horiz-adv-x="490" 
d="M60 0v720h200v-540h230l-20 -180h-410zM226 -255l-70 40q16 11 29 43.5t13 65.5q0 31 -12 51h130q13 -29 13 -57q0 -84 -103 -143z" />
    <glyph glyph-name="lcommaaccent" unicode="&#x13c;" horiz-adv-x="280" 
d="M50 0v730h180v-730h-180zM110 -255l-70 40q16 11 29 43.5t13 65.5q0 31 -12 51h130q13 -29 13 -57q0 -84 -103 -143z" />
    <glyph glyph-name="Lcaron" unicode="&#x13d;" horiz-adv-x="490" 
d="M60 0v720h200v-540h230l-20 -180h-410zM502 720l-30 -260h-132v260h162z" />
    <glyph glyph-name="lcaron" unicode="&#x13e;" horiz-adv-x="280" 
d="M50 0v730h180v-730h-180zM443 730l-30 -260h-132v260h162z" />
    <glyph glyph-name="Lslash" unicode="&#x141;" horiz-adv-x="490" 
d="M60 0v180l-60 -60v180l60 60v360h200v-160l120 120v-180l-120 -120v-200h230l-20 -180h-410z" />
    <glyph glyph-name="lslash" unicode="&#x142;" horiz-adv-x="280" 
d="M50 0v180l-60 -60v180l60 60v370h180v-190l60 60v-180l-60 -60v-360h-180z" />
    <glyph glyph-name="Nacute" unicode="&#x143;" horiz-adv-x="730" 
d="M60 0v720h180l228 -340h2v340h200v-720h-180l-228 340h-2v-340h-200zM295 780l70 160h200l-140 -160h-130z" />
    <glyph glyph-name="nacute" unicode="&#x144;" horiz-adv-x="575" 
d="M50 0v460h180v-55h2q53 70 148 70q78 0 114 -43.5t36 -116.5v-315h-180v245q0 70 -60 70t-60 -70v-245h-180zM210 560l70 160h200l-140 -160h-130z" />
    <glyph glyph-name="Ncommaaccent" unicode="&#x145;" horiz-adv-x="730" 
d="M60 0v720h180l228 -340h2v340h200v-720h-180l-228 340h-2v-340h-200zM341 -255l-70 40q16 11 29 43.5t13 65.5q0 31 -12 51h130q13 -29 13 -57q0 -84 -103 -143z" />
    <glyph glyph-name="ncommaaccent" unicode="&#x146;" horiz-adv-x="575" 
d="M50 0v460h180v-55h2q53 70 148 70q78 0 114 -43.5t36 -116.5v-315h-180v245q0 70 -60 70t-60 -70v-245h-180zM260 -255l-70 40q16 11 29 43.5t13 65.5q0 31 -12 51h130q13 -29 13 -57q0 -84 -103 -143z" />
    <glyph glyph-name="Ncaron" unicode="&#x147;" horiz-adv-x="730" 
d="M60 0v720h180l228 -340h2v340h200v-720h-180l-228 340h-2v-340h-200zM290 780l-110 160h140l40 -80l40 80h140l-110 -160h-140z" />
    <glyph glyph-name="ncaron" unicode="&#x148;" horiz-adv-x="575" 
d="M50 0v460h180v-55h2q53 70 148 70q78 0 114 -43.5t36 -116.5v-315h-180v245q0 70 -60 70t-60 -70v-245h-180zM215 560l-110 160h140l40 -80l40 80h140l-110 -160h-140z" />
    <glyph glyph-name="Omacron" unicode="&#x14c;" horiz-adv-x="820" 
d="M410 -20q-163 0 -271.5 110.5t-108.5 269.5t108.5 269.5t271.5 110.5t271.5 -110.5t108.5 -269.5t-108.5 -269.5t-271.5 -110.5zM410 160q76 0 128 56t52 144t-52 144t-128 56t-128 -56t-52 -144t52 -144t128 -56zM195 804v113h430v-113h-430z" />
    <glyph glyph-name="omacron" unicode="&#x14d;" horiz-adv-x="600" 
d="M300 -15q-125 0 -197.5 68.5t-72.5 176.5t72.5 176.5t197.5 68.5t197.5 -68.5t72.5 -176.5t-72.5 -176.5t-197.5 -68.5zM300 135q37 0 58.5 26.5t21.5 68.5q0 95 -80 95t-80 -95q0 -43 21.5 -69t58.5 -26zM106 584v113h390v-113h-390z" />
    <glyph glyph-name="Ohungarumlaut" unicode="&#x150;" horiz-adv-x="820" 
d="M410 -20q-163 0 -271.5 110.5t-108.5 269.5t108.5 269.5t271.5 110.5t271.5 -110.5t108.5 -269.5t-108.5 -269.5t-271.5 -110.5zM410 160q76 0 128 56t52 144t-52 144t-128 56t-128 -56t-52 -144t52 -144t128 -56zM435 780l80 160h190l-150 -160h-120zM195 780l80 160
h190l-150 -160h-120z" />
    <glyph glyph-name="ohungarumlaut" unicode="&#x151;" horiz-adv-x="600" 
d="M300 -15q-125 0 -197.5 68.5t-72.5 176.5t72.5 176.5t197.5 68.5t197.5 -68.5t72.5 -176.5t-72.5 -176.5t-197.5 -68.5zM300 135q37 0 58.5 26.5t21.5 68.5q0 95 -80 95t-80 -95q0 -43 21.5 -69t58.5 -26zM335 560l80 160h190l-150 -160h-120zM95 560l80 160h190
l-150 -160h-120z" />
    <glyph glyph-name="OE" unicode="&#x152;" horiz-adv-x="1070" 
d="M410 -20q-163 0 -271.5 110.5t-108.5 269.5t108.5 269.5t271.5 110.5q85 0 160 -33v13h430l20 -180h-260l10 -90h220v-170h-220l-10 -100h260l-20 -180h-430v14q-73 -34 -160 -34zM410 160q76 0 128 56t52 144t-52 144t-128 56t-128 -56t-52 -144t52 -144t128 -56z" />
    <glyph glyph-name="oe" unicode="&#x153;" horiz-adv-x="940" 
d="M300 -15q-125 0 -197.5 68.5t-72.5 176.5t72.5 176.5t197.5 68.5q103 0 175 -50q73 50 175 50q51 0 96 -15.5t82.5 -48t59.5 -91t22 -135.5h-340q4 -27 27 -46t53 -19t48.5 8.5t41.5 31.5l140 -70q-90 -105 -230 -105q-103 0 -175 51q-69 -51 -175 -51zM570 280h160
q-8 31 -26 45.5t-54 14.5t-54 -14.5t-26 -45.5zM300 135q37 0 58.5 26.5t21.5 68.5q0 95 -80 95t-80 -95q0 -43 21.5 -69t58.5 -26z" />
    <glyph glyph-name="Racute" unicode="&#x154;" horiz-adv-x="650" 
d="M60 0v720h280q107 0 178.5 -63.5t71.5 -166.5q0 -76 -35 -120t-95 -70l190 -300h-230l-158 270h-2v-270h-200zM260 420h40q90 0 90 70t-90 70h-40v-140zM215 780l70 160h200l-140 -160h-130z" />
    <glyph glyph-name="racute" unicode="&#x155;" horiz-adv-x="410" 
d="M50 0v460h180v-55h2q44 70 158 70v-180q-34 17 -65 17q-43 0 -69 -30t-26 -67v-215h-180zM150 560l70 160h200l-140 -160h-130z" />
    <glyph glyph-name="Rcommaaccent" unicode="&#x156;" horiz-adv-x="650" 
d="M60 0v720h280q107 0 178.5 -63.5t71.5 -166.5q0 -76 -35 -120t-95 -70l190 -300h-230l-158 270h-2v-270h-200zM260 420h40q90 0 90 70t-90 70h-40v-140zM316 -255l-70 40q16 11 29 43.5t13 65.5q0 31 -12 51h130q13 -29 13 -57q0 -84 -103 -143z" />
    <glyph glyph-name="rcommaaccent" unicode="&#x157;" horiz-adv-x="410" 
d="M50 0v460h180v-55h2q44 70 158 70v-180q-34 17 -65 17q-43 0 -69 -30t-26 -67v-215h-180zM115 -255l-70 40q16 11 29 43.5t13 65.5q0 31 -12 51h130q13 -29 13 -57q0 -84 -103 -143z" />
    <glyph glyph-name="Rcaron" unicode="&#x158;" horiz-adv-x="650" 
d="M60 0v720h280q107 0 178.5 -63.5t71.5 -166.5q0 -76 -35 -120t-95 -70l190 -300h-230l-158 270h-2v-270h-200zM260 420h40q90 0 90 70t-90 70h-40v-140zM205 780l-110 160h140l40 -80l40 80h140l-110 -160h-140z" />
    <glyph glyph-name="rcaron" unicode="&#x159;" horiz-adv-x="410" 
d="M50 0v460h180v-55h2q44 70 158 70v-180q-34 17 -65 17q-43 0 -69 -30t-26 -67v-215h-180zM150 560l-110 160h140l40 -80l40 80h140l-110 -160h-140z" />
    <glyph glyph-name="Sacute" unicode="&#x15a;" horiz-adv-x="550" 
d="M295 -20q-153 0 -260 80l92 153l63 -37q38 -23 77 -23q26 0 42 12t16 35q0 27 -28 49t-67.5 41.5t-79 45.5t-67.5 73t-28 111q0 101 69 160.5t171 59.5q65 0 114 -13.5t96 -52.5l-68 -158q-66 60 -125 60q-30 0 -48.5 -16t-18.5 -40q0 -18 20.5 -34t52 -28.5t67.5 -34
t67.5 -47t52 -71.5t20.5 -105q0 -104 -62 -162t-168 -58zM225 780l70 160h200l-140 -160h-130z" />
    <glyph glyph-name="sacute" unicode="&#x15b;" horiz-adv-x="485" 
d="M235 -15q-120 0 -210 60l57 122q88 -42 143 -42q12 0 17 0.5t9 5t4 14.5t-21.5 18t-52.5 16.5t-62 22t-52.5 42.5t-21.5 71q0 78 54.5 119t135.5 41q119 0 204 -42l-59 -123q-7 2 -37.5 13t-49 16.5t-28.5 5.5q-13 0 -20 -0.5t-13.5 -5.5t-6.5 -14q0 -13 23.5 -23
t57.5 -19.5t68 -23.5t57.5 -43t23.5 -71q0 -44 -18.5 -76.5t-50.5 -50t-69.5 -25.5t-81.5 -8zM170 560l70 160h200l-140 -160h-130z" />
    <glyph glyph-name="Scircumflex" unicode="&#x15c;" horiz-adv-x="550" 
d="M295 -20q-153 0 -260 80l92 153l63 -37q38 -23 77 -23q26 0 42 12t16 35q0 27 -28 49t-67.5 41.5t-79 45.5t-67.5 73t-28 111q0 101 69 160.5t171 59.5q65 0 114 -13.5t96 -52.5l-68 -158q-66 60 -125 60q-30 0 -48.5 -16t-18.5 -40q0 -18 20.5 -34t52 -28.5t67.5 -34
t67.5 -47t52 -71.5t20.5 -105q0 -104 -62 -162t-168 -58zM95 780l110 160h180l110 -160h-160l-40 80l-40 -80h-160z" />
    <glyph glyph-name="scircumflex" unicode="&#x15d;" horiz-adv-x="485" 
d="M235 -15q-120 0 -210 60l57 122q88 -42 143 -42q12 0 17 0.5t9 5t4 14.5t-21.5 18t-52.5 16.5t-62 22t-52.5 42.5t-21.5 71q0 78 54.5 119t135.5 41q119 0 204 -42l-59 -123q-7 2 -37.5 13t-49 16.5t-28.5 5.5q-13 0 -20 -0.5t-13.5 -5.5t-6.5 -14q0 -13 23.5 -23
t57.5 -19.5t68 -23.5t57.5 -43t23.5 -71q0 -44 -18.5 -76.5t-50.5 -50t-69.5 -25.5t-81.5 -8zM50 560l110 160h180l110 -160h-160l-40 80l-40 -80h-160z" />
    <glyph glyph-name="Scedilla" unicode="&#x15e;" horiz-adv-x="550" 
d="M295 -20q-153 0 -260 80l92 153l63 -37q38 -23 77 -23q26 0 42 12t16 35q0 27 -28 49t-67.5 41.5t-79 45.5t-67.5 73t-28 111q0 101 69 160.5t171 59.5q65 0 114 -13.5t96 -52.5l-68 -158q-66 60 -125 60q-30 0 -48.5 -16t-18.5 -40q0 -18 20.5 -34t52 -28.5t67.5 -34
t67.5 -47t52 -71.5t20.5 -105q0 -104 -62 -162t-168 -58zM270 -260l-70 40q16 11 29 43.5t13 65.5q0 31 -12 51h130q13 -29 13 -57q0 -84 -103 -143z" />
    <glyph glyph-name="scedilla" unicode="&#x15f;" horiz-adv-x="485" 
d="M235 -15q-120 0 -210 60l57 122q88 -42 143 -42q12 0 17 0.5t9 5t4 14.5t-21.5 18t-52.5 16.5t-62 22t-52.5 42.5t-21.5 71q0 78 54.5 119t135.5 41q119 0 204 -42l-59 -123q-7 2 -37.5 13t-49 16.5t-28.5 5.5q-13 0 -20 -0.5t-13.5 -5.5t-6.5 -14q0 -13 23.5 -23
t57.5 -19.5t68 -23.5t57.5 -43t23.5 -71q0 -44 -18.5 -76.5t-50.5 -50t-69.5 -25.5t-81.5 -8zM220 -255l-70 40q16 11 29 43.5t13 65.5q0 31 -12 51h130q13 -29 13 -57q0 -84 -103 -143z" />
    <glyph glyph-name="Scaron" unicode="&#x160;" horiz-adv-x="550" 
d="M295 -20q-153 0 -260 80l92 153l63 -37q38 -23 77 -23q26 0 42 12t16 35q0 27 -28 49t-67.5 41.5t-79 45.5t-67.5 73t-28 111q0 101 69 160.5t171 59.5q65 0 114 -13.5t96 -52.5l-68 -158q-66 60 -125 60q-30 0 -48.5 -16t-18.5 -40q0 -18 20.5 -34t52 -28.5t67.5 -34
t67.5 -47t52 -71.5t20.5 -105q0 -104 -62 -162t-168 -58zM220 780l-110 160h140l40 -80l40 80h140l-110 -160h-140z" />
    <glyph glyph-name="scaron" unicode="&#x161;" horiz-adv-x="485" 
d="M235 -15q-120 0 -210 60l57 122q88 -42 143 -42q12 0 17 0.5t9 5t4 14.5t-21.5 18t-52.5 16.5t-62 22t-52.5 42.5t-21.5 71q0 78 54.5 119t135.5 41q119 0 204 -42l-59 -123q-7 2 -37.5 13t-49 16.5t-28.5 5.5q-13 0 -20 -0.5t-13.5 -5.5t-6.5 -14q0 -13 23.5 -23
t57.5 -19.5t68 -23.5t57.5 -43t23.5 -71q0 -44 -18.5 -76.5t-50.5 -50t-69.5 -25.5t-81.5 -8zM170 560l-110 160h140l40 -80l40 80h140l-110 -160h-140z" />
    <glyph glyph-name="Tcommaaccent" unicode="&#x162;" horiz-adv-x="520" 
d="M160 0v540h-150l20 180h460l20 -180h-150v-540h-200zM230 -260l-70 40q16 11 29 43.5t13 65.5q0 31 -12 51h130q13 -29 13 -57q0 -84 -103 -143z" />
    <glyph glyph-name="tcommaaccent" unicode="&#x163;" horiz-adv-x="410" 
d="M255 -20q-78 0 -119 35t-41 115v180h-80l20 150h60v120l180 30v-150h90v-150h-90v-110q0 -34 8.5 -47t31.5 -13q29 0 50 25v-145q-53 -40 -110 -40zM200 -255l-70 40q16 11 29 43.5t13 65.5q0 31 -12 51h130q13 -29 13 -57q0 -84 -103 -143z" />
    <glyph glyph-name="Tcaron" unicode="&#x164;" horiz-adv-x="520" 
d="M160 0v540h-150l20 180h460l20 -180h-150v-540h-200zM195 780l-110 160h140l40 -80l40 80h140l-110 -160h-140z" />
    <glyph glyph-name="tcaron" unicode="&#x165;" horiz-adv-x="410" 
d="M255 -20q-78 0 -119 35t-41 115v180h-80l20 150h60v120l180 30v-150h90v-150h-90v-110q0 -34 8.5 -47t31.5 -13q29 0 50 25v-145q-53 -40 -110 -40zM487 768l-30 -260h-132v260h162z" />
    <glyph glyph-name="Umacron" unicode="&#x16a;" horiz-adv-x="720" 
d="M360 -20q-134 0 -219.5 78.5t-85.5 211.5v450h200v-460q0 -50 30 -75t75 -25t75 25t30 75v460h200v-450q0 -133 -85.5 -211.5t-219.5 -78.5zM145 804v113h430v-113h-430z" />
    <glyph glyph-name="umacron" unicode="&#x16b;" horiz-adv-x="575" 
d="M195 -15q-78 0 -114 43.5t-36 116.5v315h180v-245q0 -70 60 -70t60 70v245h180v-460h-180v55h-2q-53 -70 -148 -70zM95 584v113h390v-113h-390z" />
    <glyph glyph-name="Ubreve" unicode="&#x16c;" horiz-adv-x="720" 
d="M360 -20q-134 0 -219.5 78.5t-85.5 211.5v450h200v-460q0 -50 30 -75t75 -25t75 25t30 75v460h200v-450q0 -133 -85.5 -211.5t-219.5 -78.5zM360 770q-103 0 -141.5 45.5t-38.5 124.5h110q0 -38 16 -54t54 -16t54 16t16 54h110q0 -79 -38.5 -124.5t-141.5 -45.5z" />
    <glyph glyph-name="ubreve" unicode="&#x16d;" horiz-adv-x="575" 
d="M195 -15q-78 0 -114 43.5t-36 116.5v315h180v-245q0 -70 60 -70t60 70v245h180v-460h-180v55h-2q-53 -70 -148 -70zM287 550q-103 0 -141.5 45.5t-38.5 124.5h110q0 -38 16.5 -54t53.5 -16t53.5 16t16.5 54h110q0 -79 -38.5 -124.5t-141.5 -45.5z" />
    <glyph glyph-name="Uring" unicode="&#x16e;" horiz-adv-x="720" 
d="M360 -20q-134 0 -219.5 78.5t-85.5 211.5v450h200v-460q0 -50 30 -75t75 -25t75 25t30 75v460h200v-450q0 -133 -85.5 -211.5t-219.5 -78.5zM360 760q-46 0 -78 32t-32 78t32 78t78 32t78 -32t32 -78t-32 -78t-78 -32zM360 830q16 0 28 12t12 28t-12 28t-28 12t-28 -12
t-12 -28t12 -28t28 -12z" />
    <glyph glyph-name="uring" unicode="&#x16f;" horiz-adv-x="575" 
d="M195 -15q-78 0 -114 43.5t-36 116.5v315h180v-245q0 -70 60 -70t60 70v245h180v-460h-180v55h-2q-53 -70 -148 -70zM285 540q-46 0 -78 32t-32 78t32 78t78 32t78 -32t32 -78t-32 -78t-78 -32zM285 610q17 0 28.5 12t11.5 28t-11.5 28t-28.5 12t-28.5 -12t-11.5 -28
t11.5 -28t28.5 -12z" />
    <glyph glyph-name="Uhungarumlaut" unicode="&#x170;" horiz-adv-x="720" 
d="M360 -20q-134 0 -219.5 78.5t-85.5 211.5v450h200v-460q0 -50 30 -75t75 -25t75 25t30 75v460h200v-450q0 -133 -85.5 -211.5t-219.5 -78.5zM385 780l80 160h190l-150 -160h-120zM145 780l80 160h190l-150 -160h-120z" />
    <glyph glyph-name="uhungarumlaut" unicode="&#x171;" horiz-adv-x="575" 
d="M195 -15q-78 0 -114 43.5t-36 116.5v315h180v-245q0 -70 60 -70t60 70v245h180v-460h-180v55h-2q-53 -70 -148 -70zM320 560l80 160h190l-150 -160h-120zM80 560l80 160h190l-150 -160h-120z" />
    <glyph glyph-name="Uogonek" unicode="&#x172;" horiz-adv-x="720" 
d="M360 -20q-134 0 -219.5 78.5t-85.5 211.5v450h200v-460q0 -50 30 -75t75 -25t75 25t30 75v460h200v-450q0 -110 -62 -186q-5 -6 -23.5 -28t-30.5 -37.5t-27 -36.5t-23 -38.5t-8 -29.5q0 -27 28 -27q12 0 40 4v-91q-31 -20 -92 -20q-45 0 -74 23t-29 69q0 62 60 113
q-33 -5 -64 -5z" />
    <glyph glyph-name="uogonek" unicode="&#x173;" horiz-adv-x="575" 
d="M433 -220q-45 0 -74 23t-29 69q0 72 80 128h-65v55h-2q-53 -70 -148 -70q-78 0 -114 43.5t-36 116.5v315h180v-245q0 -70 60 -70t60 70v245h180v-460h-25q-43 -62 -43 -86q0 -27 28 -27q8 0 40 4v-91q-31 -20 -92 -20z" />
    <glyph glyph-name="Ydieresis" unicode="&#x178;" 
d="M210 0v230l-210 490h210l99 -280h2l99 280h210l-210 -490v-230h-200zM360 780v160h160v-160h-160zM100 780v160h160v-160h-160z" />
    <glyph glyph-name="Zacute" unicode="&#x179;" 
d="M30 0l260 540h-250l30 180h520l-250 -540h250l-30 -180h-530zM260 780l70 160h200l-140 -160h-130z" />
    <glyph glyph-name="zacute" unicode="&#x17a;" horiz-adv-x="500" 
d="M20 0l180 320h-160l30 140h400l-180 -320h180l-30 -140h-420zM190 560l70 160h200l-140 -160h-130z" />
    <glyph glyph-name="Zdotaccent" unicode="&#x17b;" 
d="M30 0l260 540h-250l30 180h520l-250 -540h250l-30 -180h-530zM240 780v160h180v-160h-180z" />
    <glyph glyph-name="zdotaccent" unicode="&#x17c;" horiz-adv-x="500" 
d="M20 0l180 320h-160l30 140h400l-180 -320h180l-30 -140h-420zM180 560v160h180v-160h-180z" />
    <glyph glyph-name="Zcaron" unicode="&#x17d;" 
d="M30 0l260 540h-250l30 180h520l-250 -540h250l-30 -180h-530zM250 780l-110 160h140l40 -80l40 80h140l-110 -160h-140z" />
    <glyph glyph-name="zcaron" unicode="&#x17e;" horiz-adv-x="500" 
d="M20 0l180 320h-160l30 140h400l-180 -320h180l-30 -140h-420zM190 560l-110 160h140l40 -80l40 80h140l-110 -160h-140z" />
    <glyph glyph-name="florin" unicode="&#x192;" horiz-adv-x="550" 
d="M0 -190l25 130h40q35 0 48 8t17 32l65 372h-101l18 98h99l14 73q20 105 62.5 141.5t155.5 36.5q7 0 107 -1l-30 -140h-50q-34 0 -45 -10.5t-15 -39.5l-8 -60h97l-19 -98h-96l-63 -366q-18 -106 -62.5 -141t-165.5 -35h-93z" />
    <glyph glyph-name="Scommaaccent" unicode="&#x218;" horiz-adv-x="550" 
d="M295 -20q-153 0 -260 80l92 153l63 -37q38 -23 77 -23q26 0 42 12t16 35q0 27 -28 49t-67.5 41.5t-79 45.5t-67.5 73t-28 111q0 101 69 160.5t171 59.5q65 0 114 -13.5t96 -52.5l-68 -158q-66 60 -125 60q-30 0 -48.5 -16t-18.5 -40q0 -18 20.5 -34t52 -28.5t67.5 -34
t67.5 -47t52 -71.5t20.5 -105q0 -104 -62 -162t-168 -58zM266 -255l-70 40q16 11 29 43.5t13 65.5q0 31 -12 51h130q13 -29 13 -57q0 -84 -103 -143z" />
    <glyph glyph-name="scommaaccent" unicode="&#x219;" horiz-adv-x="485" 
d="M235 -15q-120 0 -210 60l57 122q88 -42 143 -42q12 0 17 0.5t9 5t4 14.5t-21.5 18t-52.5 16.5t-62 22t-52.5 42.5t-21.5 71q0 78 54.5 119t135.5 41q119 0 204 -42l-59 -123q-7 2 -37.5 13t-49 16.5t-28.5 5.5q-13 0 -20 -0.5t-13.5 -5.5t-6.5 -14q0 -13 23.5 -23
t57.5 -19.5t68 -23.5t57.5 -43t23.5 -71q0 -44 -18.5 -76.5t-50.5 -50t-69.5 -25.5t-81.5 -8zM220 -255l-70 40q16 11 29 43.5t13 65.5q0 31 -12 51h130q13 -29 13 -57q0 -84 -103 -143z" />
    <glyph glyph-name="uni021A" unicode="&#x21a;" horiz-adv-x="520" 
d="M160 0v540h-150l20 180h460l20 -180h-150v-540h-200zM226 -255l-70 40q16 11 29 43.5t13 65.5q0 31 -12 51h130q13 -29 13 -57q0 -84 -103 -143z" />
    <glyph glyph-name="uni021B" unicode="&#x21b;" horiz-adv-x="410" 
d="M255 -20q-78 0 -119 35t-41 115v180h-80l20 150h60v120l180 30v-150h90v-150h-90v-110q0 -34 8.5 -47t31.5 -13q29 0 50 25v-145q-53 -40 -110 -40zM200 -255l-70 40q16 11 29 43.5t13 65.5q0 31 -12 51h130q13 -29 13 -57q0 -84 -103 -143z" />
    <glyph glyph-name="uni0237" unicode="&#x237;" horiz-adv-x="280" 
d="M80 -215q-48 0 -110 31v160q34 -20 53 -20q27 0 27 40v464h180v-510q0 -81 -40.5 -123t-109.5 -42z" />
    <glyph glyph-name="uni02BB" unicode="&#x2bb;" horiz-adv-x="300" 
d="M70 440v140q0 56 29 106t71 84l100 -70q-13 -20 -20 -32t-13.5 -37.5t-6.5 -55.5v-135h-160z" />
    <glyph glyph-name="afii57929" unicode="&#x2bc;" horiz-adv-x="300" 
d="M130 390l-100 70q13 20 20 32t13.5 37.5t6.5 55.5v135h160v-140q0 -56 -29 -106t-71 -84z" />
    <glyph glyph-name="circumflex" unicode="&#x2c6;" horiz-adv-x="480" 
d="M40 560l110 160h180l110 -160h-160l-40 80l-40 -80h-160z" />
    <glyph glyph-name="caron" unicode="&#x2c7;" horiz-adv-x="440" 
d="M150 560l-110 160h140l40 -80l40 80h140l-110 -160h-140z" />
    <glyph glyph-name="breve" unicode="&#x2d8;" horiz-adv-x="440" 
d="M220 550q-103 0 -141.5 45.5t-38.5 124.5h110q0 -38 16 -54t54 -16t54 16t16 54h110q0 -79 -38.5 -124.5t-141.5 -45.5z" />
    <glyph glyph-name="dotaccent" unicode="&#x2d9;" horiz-adv-x="260" 
d="M40 560v160h180v-160h-180z" />
    <glyph glyph-name="ring" unicode="&#x2da;" horiz-adv-x="300" 
d="M150 540q-46 0 -78 32t-32 78t32 78t78 32t78 -32t32 -78t-32 -78t-78 -32zM150 610q16 0 28 12t12 28t-12 28t-28 12t-28 -12t-12 -28t12 -28t28 -12z" />
    <glyph glyph-name="ogonek" unicode="&#x2db;" horiz-adv-x="210" 
d="M111 -220q-45 0 -74 23t-29 69q0 72 80 128h90q-43 -62 -43 -86q0 -27 28 -27q14 0 40 4v-91q-31 -20 -92 -20z" />
    <glyph glyph-name="tilde" unicode="&#x2dc;" horiz-adv-x="520" 
d="M370 550q-40 0 -112 30t-88 30q-21 0 -25.5 -9t-4.5 -41h-100v40q0 68 25.5 99t84.5 31q40 0 112 -30t88 -30q21 0 25.5 9t4.5 41h100v-40q0 -68 -25.5 -99t-84.5 -31z" />
    <glyph glyph-name="hungarumlaut" unicode="&#x2dd;" horiz-adv-x="590" 
d="M280 560l80 160h190l-150 -160h-120zM40 560l80 160h190l-150 -160h-120z" />
    <glyph glyph-name="gravecomb" unicode="&#x300;" horiz-adv-x="1" 
d="M-349 560l-140 160h200l70 -160h-130z" />
    <glyph glyph-name="acutecomb" unicode="&#x301;" horiz-adv-x="1" 
d="M-379 560l70 160h200l-140 -160h-130z" />
    <glyph glyph-name="uni0302" unicode="&#x302;" horiz-adv-x="1" 
d="M-499 560l110 160h180l110 -160h-160l-40 80l-40 -80h-160z" />
    <glyph glyph-name="tildecomb" unicode="&#x303;" horiz-adv-x="1" 
d="M-189 550q-40 0 -112 30t-88 30q-21 0 -25.5 -9t-4.5 -41h-100v40q0 68 25.5 99t84.5 31q40 0 112 -30t88 -30q21 0 25.5 9t4.5 41h100v-40q0 -68 -25.5 -99t-84.5 -31z" />
    <glyph glyph-name="uni0304" unicode="&#x304;" horiz-adv-x="1" 
d="M-465 584v113h390v-113h-390z" />
    <glyph glyph-name="uni0306" unicode="&#x306;" horiz-adv-x="1" 
d="M-220 550q-103 0 -141.5 45.5t-38.5 124.5h110q0 -38 16 -54t54 -16t54 16t16 54h110q0 -79 -38.5 -124.5t-141.5 -45.5z" />
    <glyph glyph-name="uni0307" unicode="&#x307;" horiz-adv-x="1" 
d="M-220 560v160h180v-160h-180z" />
    <glyph glyph-name="uni0308" unicode="&#x308;" horiz-adv-x="1" 
d="M-199 560v160h160v-160h-160zM-459 560v160h160v-160h-160z" />
    <glyph glyph-name="uni030A" unicode="&#x30a;" horiz-adv-x="1" 
d="M-149 540q-46 0 -78 32t-32 78t32 78t78 32t78 -32t32 -78t-32 -78t-78 -32zM-149 610q17 0 28.5 12t11.5 28t-11.5 28t-28.5 12t-28.5 -12t-11.5 -28t11.5 -28t28.5 -12z" />
    <glyph glyph-name="uni030B" unicode="&#x30b;" horiz-adv-x="1" 
d="M-310 560l80 160h190l-150 -160h-120zM-550 560l80 160h190l-150 -160h-120z" />
    <glyph glyph-name="uni030C" unicode="&#x30c;" horiz-adv-x="1" 
d="M-309 560l-110 160h140l40 -80l40 80h140l-110 -160h-140z" />
    <glyph glyph-name="uni0312" unicode="&#x312;" horiz-adv-x="1" 
d="M-280 760l70 -40q-16 -11 -29 -43.5t-13 -65.5q0 -31 12 -51h-130q-13 29 -13 57q0 84 103 143z" />
    <glyph glyph-name="uni0313" unicode="&#x313;" horiz-adv-x="1" 
d="M-108 720l-30 -260h-132v260h162z" />
    <glyph glyph-name="uni0326" unicode="&#x326;" horiz-adv-x="1" 
d="M-129 -255l-70 40q16 11 29 43.5t13 65.5q0 31 -12 51h130q13 -29 13 -57q0 -84 -103 -143z" />
    <glyph glyph-name="uni0327" unicode="&#x327;" horiz-adv-x="1" 
d="M-129 -255l-70 40q16 11 29 43.5t13 65.5q0 31 -12 51h130q13 -29 13 -57q0 -84 -103 -143z" />
    <glyph glyph-name="uni0328" unicode="&#x328;" horiz-adv-x="1" 
d="M-91 -220q-45 0 -74 23t-29 69q0 72 80 128h90q-43 -62 -43 -86q0 -27 28 -27q14 0 40 4v-91q-31 -20 -92 -20z" />
    <glyph glyph-name="uni0335" unicode="&#x335;" horiz-adv-x="1" 
d="M-580 210v150h540v-150h-540z" />
    <glyph glyph-name="uni0336" unicode="&#x336;" horiz-adv-x="1" 
d="M-1120 210v150h1080v-150h-1080z" />
    <glyph glyph-name="uni0394" unicode="&#x394;" horiz-adv-x="720" 
d="M0 0l360 700l360 -700h-720zM262 160h196l-98 191z" />
    <glyph glyph-name="uni03A9" unicode="&#x3a9;" horiz-adv-x="790" 
d="M40 0l-20 160h120q-44 31 -72 99.5t-28 120.5q0 145 100.5 232.5t259.5 87.5q156 0 258 -92t102 -228q0 -52 -28 -120.5t-72 -99.5h120l-20 -160h-290v140q50 28 75 83t25 117q0 89 -47 139.5t-123 50.5t-123 -50.5t-47 -139.5q0 -62 25 -117t75 -83v-140h-290z" />
    <glyph glyph-name="uni03BC" unicode="&#x3bc;" horiz-adv-x="580" 
d="M50 -200v660h180v-250q0 -70 60 -70t60 70v250h180v-460h-180v54q-24 -25 -46 -37.5t-35 -14.5t-39 -2v-200h-180z" />
    <glyph glyph-name="pi" unicode="&#x3c0;" horiz-adv-x="560" 
d="M60 0v310h-45l5 150h520l5 -150h-45v-310h-180v310h-80v-310h-180z" />
    <glyph glyph-name="uni2007" unicode="&#x2007;" horiz-adv-x="580" 
 />
    <glyph glyph-name="uni2008" unicode="&#x2008;" horiz-adv-x="360" 
 />
    <glyph glyph-name="uni200B" unicode="&#x200b;" horiz-adv-x="0" 
 />
    <glyph glyph-name="endash" unicode="&#x2013;" 
d="M40 210v150h540v-150h-540z" />
    <glyph glyph-name="emdash" unicode="&#x2014;" horiz-adv-x="1160" 
d="M40 210v150h1080v-150h-1080z" />
    <glyph glyph-name="quoteleft" unicode="&#x2018;" horiz-adv-x="300" 
d="M70 440v140q0 56 29 106t71 84l100 -70q-13 -20 -20 -32t-13.5 -37.5t-6.5 -55.5v-135h-160z" />
    <glyph glyph-name="quoteright" unicode="&#x2019;" horiz-adv-x="300" 
d="M130 390l-100 70q13 20 20 32t13.5 37.5t6.5 55.5v135h160v-140q0 -56 -29 -106t-71 -84z" />
    <glyph glyph-name="quotesinglbase" unicode="&#x201a;" horiz-adv-x="300" 
d="M130 -150l-100 70q13 20 20 32t13.5 37.5t6.5 55.5v135h160v-140q0 -56 -29 -106t-71 -84z" />
    <glyph glyph-name="quotedblleft" unicode="&#x201c;" horiz-adv-x="520" 
d="M290 440v140q0 56 29 106t71 84l100 -70q-13 -20 -20 -32t-13.5 -37.5t-6.5 -55.5v-135h-160zM70 440v140q0 56 29 106t71 84l100 -70q-13 -20 -20 -32t-13.5 -37.5t-6.5 -55.5v-135h-160z" />
    <glyph glyph-name="quotedblright" unicode="&#x201d;" horiz-adv-x="520" 
d="M350 390l-100 70q13 20 20 32t13.5 37.5t6.5 55.5v135h160v-140q0 -56 -29 -106t-71 -84zM130 390l-100 70q13 20 20 32t13.5 37.5t6.5 55.5v135h160v-140q0 -56 -29 -106t-71 -84z" />
    <glyph glyph-name="quotedblbase" unicode="&#x201e;" horiz-adv-x="520" 
d="M350 -150l-100 70q13 20 20 32t13.5 37.5t6.5 55.5v135h160v-140q0 -56 -29 -106t-71 -84zM130 -150l-100 70q13 20 20 32t13.5 37.5t6.5 55.5v135h160v-140q0 -56 -29 -106t-71 -84z" />
    <glyph glyph-name="dagger" unicode="&#x2020;" 
d="M220 -200v510h-220v170h220v200h180v-200h220v-170h-220v-510h-180z" />
    <glyph glyph-name="daggerdbl" unicode="&#x2021;" 
d="M220 -199v199h-220v170h220v140h-220v170h220v200h180v-200h220v-170h-220v-140h220v-170h-220v-199h-180z" />
    <glyph glyph-name="bullet" unicode="&#x2022;" horiz-adv-x="460" 
d="M230 55q-87 0 -148.5 61.5t-61.5 148.5t61.5 148.5t148.5 61.5t148.5 -61.5t61.5 -148.5t-61.5 -148.5t-148.5 -61.5z" />
    <glyph glyph-name="ellipsis" unicode="&#x2026;" horiz-adv-x="1041" 
d="M90 0v180h180v-180h-180zM430 0v180h180v-180h-180zM771 1v180h180v-180h-180z" />
    <glyph glyph-name="perthousand" unicode="&#x2030;" horiz-adv-x="1260" 
d="M1050 -20q-81 0 -125.5 54t-44.5 146t44.5 146t125.5 54t125.5 -54t44.5 -146t-44.5 -146t-125.5 -54zM680 -20q-81 0 -125.5 54t-44.5 146t44.5 146t125.5 54t125.5 -54t44.5 -146t-44.5 -146t-125.5 -54zM160 0l410 680h160l-410 -680h-160zM210 300q-81 0 -125.5 54
t-44.5 146t44.5 146t125.5 54t125.5 -54t44.5 -146t-44.5 -146t-125.5 -54zM1050 110q16 0 23 14t7 56t-7 56t-23 14t-23 -14t-7 -56t7 -56t23 -14zM680 110q16 0 23 14t7 56t-7 56t-23 14t-23 -14t-7 -56t7 -56t23 -14zM210 430q16 0 23 14t7 56t-7 56t-23 14t-23 -14
t-7 -56t7 -56t23 -14z" />
    <glyph glyph-name="guilsinglleft" unicode="&#x2039;" horiz-adv-x="300" 
d="M180 80l-160 160l160 160l90 -90l-70 -70l70 -70z" />
    <glyph glyph-name="guilsinglright" unicode="&#x203a;" horiz-adv-x="300" 
d="M110 80l-90 90l70 70l-70 70l90 90l160 -160z" />
    <glyph glyph-name="fraction" unicode="&#x2044;" horiz-adv-x="202" 
d="M-190 0l410 680h160l-410 -680h-160z" />
    <glyph glyph-name="uni2070" unicode="&#x2070;" horiz-adv-x="424" 
d="M212 404q26 0 38 26t12 84q0 60 -12 86t-38 26t-38 -26t-12 -86q0 -58 12 -84t38 -26zM212 290q-86 0 -136.5 60t-50.5 165t50.5 165t136.5 60t136.5 -60t50.5 -165t-50.5 -165t-136.5 -60z" />
    <glyph glyph-name="uni2074" unicode="&#x2074;" horiz-adv-x="424" 
d="M202 310v63h-186l153 347h173v-251h48v-96h-48v-63h-140zM144 469h58v137z" />
    <glyph glyph-name="uni2075" unicode="&#x2075;" horiz-adv-x="424" 
d="M194 291q-106 0 -166 74l101 77q26 -35 58 -35q17 0 30 9.5t13 30.5q0 17 -14.5 30.5t-52.5 13.5q-44 0 -93 -40l14 269h255l-12 -102h-144l-3 -48q26 10 59 10q58 0 95 -34.5t37 -95.5q0 -67 -47.5 -113t-129.5 -46z" />
    <glyph glyph-name="uni2076" unicode="&#x2076;" horiz-adv-x="424" 
d="M209 290q-75 0 -122 47.5t-47 115.5q0 77 61 151l95 116h152l-104 -120h7q62 -3 94 -46t32 -95q0 -72 -47 -120.5t-121 -48.5zM209 400q17 0 28.5 14t11.5 39q0 23 -10.5 38.5t-29.5 15.5t-30.5 -15.5t-11.5 -38.5t11 -38t31 -15z" />
    <glyph glyph-name="uni2077" unicode="&#x2077;" horiz-adv-x="364" 
d="M66 310l133 299h-174l17 111h297v-103l-137 -307h-136z" />
    <glyph glyph-name="uni2078" unicode="&#x2078;" horiz-adv-x="424" 
d="M213 576q17 0 26 10.5t9 25.5q0 12 -9 22.5t-26 10.5q-18 0 -27.5 -10.5t-9.5 -22.5q0 -15 9 -25.5t28 -10.5zM213 394q20 0 34 11t14 34q0 22 -14 33.5t-34 11.5q-21 0 -35 -11.5t-14 -33.5q0 -45 49 -45zM213 290q-83 0 -126 38.5t-43 105.5q0 30 18.5 59.5t44.5 41.5
q-19 13 -31.5 37t-12.5 50q0 51 42 84.5t108 33.5q65 0 106.5 -33.5t41.5 -84.5q0 -27 -12 -51t-31 -36q25 -14 43.5 -43.5t18.5 -57.5q0 -67 -42.5 -105.5t-124.5 -38.5z" />
    <glyph glyph-name="uni2079" unicode="&#x2079;" horiz-adv-x="424" 
d="M72 310l104 120h-7q-62 3 -94 46t-32 95q0 72 47 120.5t121 48.5q75 0 122 -47.5t47 -115.5q0 -77 -61 -151l-95 -116h-152zM211 630q-17 0 -28.5 -14t-11.5 -39q0 -23 10.5 -38.5t29.5 -15.5t30.5 15.5t11.5 38.5t-11 38t-31 15z" />
    <glyph glyph-name="uni2080" unicode="&#x2080;" horiz-adv-x="424" 
d="M212 -111q26 0 38 26t12 84q0 60 -12 86t-38 26t-38 -26t-12 -86q0 -58 12 -84t38 -26zM212 -225q-86 0 -136.5 60t-50.5 165t50.5 165t136.5 60t136.5 -60t50.5 -165t-50.5 -165t-136.5 -60z" />
    <glyph glyph-name="uni2081" unicode="&#x2081;" horiz-adv-x="331" 
d="M124 -205v270l-78 -52v140l88 52h130v-410h-140z" />
    <glyph glyph-name="uni2082" unicode="&#x2082;" horiz-adv-x="424" 
d="M57 -205v62q0 50 29 89t63.5 58.5t63.5 42.5t29 44q0 11 -8 21t-27 10q-37 0 -37 -56l-123 11q6 74 52.5 111t111.5 37q81 0 122 -37.5t41 -95.5q0 -42 -25.5 -76t-56 -51t-56 -35t-25.5 -32h165l-12 -103h-307z" />
    <glyph glyph-name="uni2083" unicode="&#x2083;" horiz-adv-x="424" 
d="M207 -225q-77 0 -119 39.5t-49 102.5l118 13q8 -47 40 -47q41 0 41 42q0 45 -43 45h-14v81h9q19 1 28.5 9.5t9.5 28.5q0 33 -30 33q-19 0 -28 -13.5t-9 -32.5l-109 9q0 62 39.5 101t109.5 39q72 0 115 -31t43 -86q0 -53 -45 -83q62 -32 62 -107q0 -67 -47.5 -105
t-121.5 -38z" />
    <glyph glyph-name="uni2084" unicode="&#x2084;" horiz-adv-x="424" 
d="M202 -205v63h-186l153 347h173v-251h48v-96h-48v-63h-140zM144 -46h58v137z" />
    <glyph glyph-name="uni2085" unicode="&#x2085;" horiz-adv-x="424" 
d="M194 -224q-106 0 -166 74l101 77q26 -35 58 -35q17 0 30 9.5t13 30.5q0 17 -14.5 30.5t-52.5 13.5q-44 0 -93 -40l14 269h255l-12 -102h-144l-3 -48q26 10 59 10q58 0 95 -34.5t37 -95.5q0 -67 -47.5 -113t-129.5 -46z" />
    <glyph glyph-name="uni2086" unicode="&#x2086;" horiz-adv-x="424" 
d="M209 -225q-75 0 -122 47.5t-47 115.5q0 77 61 151l95 116h152l-104 -120h7q62 -3 94 -46t32 -95q0 -72 -47 -120.5t-121 -48.5zM209 -115q17 0 28.5 14t11.5 39q0 23 -10.5 38.5t-29.5 15.5t-30.5 -15.5t-11.5 -38.5t11 -38t31 -15z" />
    <glyph glyph-name="uni2087" unicode="&#x2087;" horiz-adv-x="364" 
d="M66 -205l133 299h-174l17 111h297v-103l-137 -307h-136z" />
    <glyph glyph-name="uni2088" unicode="&#x2088;" horiz-adv-x="424" 
d="M213 61q17 0 26 10.5t9 25.5q0 12 -9 22.5t-26 10.5q-18 0 -27.5 -10.5t-9.5 -22.5q0 -15 9 -25.5t28 -10.5zM213 -121q20 0 34 11t14 34q0 22 -14 33.5t-34 11.5q-21 0 -35 -11.5t-14 -33.5q0 -45 49 -45zM213 -225q-83 0 -126 38.5t-43 105.5q0 30 18.5 59.5t44.5 41.5
q-19 13 -31.5 37t-12.5 50q0 51 42 84.5t108 33.5q65 0 106.5 -33.5t41.5 -84.5q0 -27 -12 -51t-31 -36q25 -14 43.5 -43.5t18.5 -57.5q0 -67 -42.5 -105.5t-124.5 -38.5z" />
    <glyph glyph-name="uni2089" unicode="&#x2089;" horiz-adv-x="424" 
d="M72 -205l104 120h-7q-62 3 -94 46t-32 95q0 72 47 120.5t121 48.5q75 0 122 -47.5t47 -115.5q0 -77 -61 -151l-95 -116h-152zM211 115q-17 0 -28.5 -14t-11.5 -39q0 -23 10.5 -38.5t29.5 -15.5t30.5 15.5t11.5 38.5t-11 38t-31 15z" />
    <glyph glyph-name="Euro" unicode="&#x20ac;" horiz-adv-x="660" 
d="M370 -20q-104 0 -171 63t-89 182h-70l15 95h45v40h-60l15 95h55q21 119 88 182t172 63q166 0 230 -180l-150 -60q-7 36 -33 58t-57 22q-55 0 -78 -85h118l-15 -95h-115v-40h130l-15 -95h-105q20 -85 80 -85q31 0 57 22t33 58l150 -60q-64 -180 -230 -180z" />
    <glyph glyph-name="uni2117" unicode="&#x2117;" horiz-adv-x="850" 
d="M425 -20q-168 0 -281.5 110.5t-113.5 269.5t113.5 269.5t281.5 110.5t281.5 -110.5t113.5 -269.5t-113.5 -269.5t-281.5 -110.5zM425 70q119 0 204.5 85.5t85.5 204.5t-85.5 204.5t-204.5 85.5t-204.5 -85.5t-85.5 -204.5t85.5 -204.5t204.5 -85.5zM290 130v460h180
q67 0 113.5 -44.5t46.5 -105.5q0 -67 -45.5 -108.5t-114.5 -41.5h-50v-160h-130zM420 390h30q29 0 44.5 14t15.5 36t-15.5 36t-44.5 14h-30v-100z" />
    <glyph glyph-name="trademark" unicode="&#x2122;" horiz-adv-x="850" 
d="M360 360v360h130l80 -120l80 120h130v-360h-130v190l-80 -120l-80 120v-190h-130zM110 360v240h-90v120h310v-120h-90v-240h-130z" />
    <glyph glyph-name="Omega" unicode="&#x2126;" horiz-adv-x="790" 
d="M40 0l-20 160h120q-44 31 -72 99.5t-28 120.5q0 145 100.5 232.5t259.5 87.5q156 0 258 -92t102 -228q0 -52 -28 -120.5t-72 -99.5h120l-20 -160h-290v140q50 28 75 83t25 117q0 89 -47 139.5t-123 50.5t-123 -50.5t-47 -139.5q0 -62 25 -117t75 -83v-140h-290z" />
    <glyph glyph-name="uni2150" unicode="&#x2150;" horiz-adv-x="917" 
d="M124 269v270l-78 -52v140l88 52h130v-410h-140zM141 0l410 680h160l-410 -680h-160zM619 0l133 299h-174l17 111h297v-103l-137 -307h-136z" />
    <glyph glyph-name="uni2151" unicode="&#x2151;" horiz-adv-x="957" 
d="M124 269v270l-78 -52v140l88 52h130v-410h-140zM141 0l410 680h160l-410 -680h-160zM605 0l104 120h-7q-62 3 -94 46t-32 95q0 72 47 120.5t121 48.5q75 0 122 -47.5t47 -115.5q0 -77 -61 -151l-95 -116h-152zM744 320q-17 0 -28.5 -14t-11.5 -39q0 -23 10.5 -38.5
t29.5 -15.5t30.5 15.5t11.5 38.5t-11 38t-31 15z" />
    <glyph glyph-name="uni2152" unicode="&#x2152;" horiz-adv-x="1268" 
d="M124 269v270l-78 -52v140l88 52h130v-410h-140zM141 0l410 680h160l-410 -680h-160zM657 0v270l-78 -52v140l88 52h130v-410h-140zM1056 94q26 0 38 26t12 84q0 60 -12 86t-38 26t-38 -26t-12 -86q0 -58 12 -84t38 -26zM1056 -20q-86 0 -136.5 60t-50.5 165t50.5 165
t136.5 60t136.5 -60t50.5 -165t-50.5 -165t-136.5 -60z" />
    <glyph glyph-name="onethird" unicode="&#x2153;" horiz-adv-x="957" 
d="M124 269v270l-78 -52v140l88 52h130v-410h-140zM141 0l410 680h160l-410 -680h-160zM740 -20q-77 0 -119 39.5t-49 102.5l118 13q8 -47 40 -47q41 0 41 42q0 45 -43 45h-14v81h9q19 1 28.5 9.5t9.5 28.5q0 33 -30 33q-19 0 -28 -13.5t-9 -32.5l-109 9q0 62 39.5 101
t109.5 39q72 0 115 -31t43 -86q0 -53 -45 -83q62 -32 62 -107q0 -67 -47.5 -105t-121.5 -38z" />
    <glyph glyph-name="twothirds" unicode="&#x2154;" horiz-adv-x="1050" 
d="M57 269v62q0 50 29 89t63.5 58.5t63.5 42.5t29 44q0 11 -8 21t-27 10q-37 0 -37 -56l-123 11q6 74 52.5 111t111.5 37q81 0 122 -37.5t41 -95.5q0 -42 -25.5 -76t-56 -51t-56 -35t-25.5 -32h165l-12 -103h-307zM234 0l410 680h160l-410 -680h-160zM833 -20
q-77 0 -119 39.5t-49 102.5l118 13q8 -47 40 -47q41 0 41 42q0 45 -43 45h-14v81h9q19 1 28.5 9.5t9.5 28.5q0 33 -30 33q-19 0 -28 -13.5t-9 -32.5l-109 9q0 62 39.5 101t109.5 39q72 0 115 -31t43 -86q0 -53 -45 -83q62 -32 62 -107q0 -67 -47.5 -105t-121.5 -38z" />
    <glyph glyph-name="uni2155" unicode="&#x2155;" horiz-adv-x="957" 
d="M124 269v270l-78 -52v140l88 52h130v-410h-140zM141 0l410 680h160l-410 -680h-160zM727 -19q-106 0 -166 74l101 77q26 -35 58 -35q17 0 30 9.5t13 30.5q0 17 -14.5 30.5t-52.5 13.5q-44 0 -93 -40l14 269h255l-12 -102h-144l-3 -48q26 10 59 10q58 0 95 -34.5t37 -95.5
q0 -67 -47.5 -113t-129.5 -46z" />
    <glyph glyph-name="uni2156" unicode="&#x2156;" horiz-adv-x="1050" 
d="M57 269v62q0 50 29 89t63.5 58.5t63.5 42.5t29 44q0 11 -8 21t-27 10q-37 0 -37 -56l-123 11q6 74 52.5 111t111.5 37q81 0 122 -37.5t41 -95.5q0 -42 -25.5 -76t-56 -51t-56 -35t-25.5 -32h165l-12 -103h-307zM234 0l410 680h160l-410 -680h-160zM820 -19
q-106 0 -166 74l101 77q26 -35 58 -35q17 0 30 9.5t13 30.5q0 17 -14.5 30.5t-52.5 13.5q-44 0 -93 -40l14 269h255l-12 -102h-144l-3 -48q26 10 59 10q58 0 95 -34.5t37 -95.5q0 -67 -47.5 -113t-129.5 -46z" />
    <glyph glyph-name="uni2157" unicode="&#x2157;" horiz-adv-x="1050" 
d="M207 249q-77 0 -119 39.5t-49 102.5l118 13q8 -47 40 -47q41 0 41 42q0 45 -43 45h-14v81h9q19 1 28.5 9.5t9.5 28.5q0 33 -30 33q-19 0 -28 -13.5t-9 -32.5l-109 9q0 62 39.5 101t109.5 39q72 0 115 -31t43 -86q0 -53 -45 -83q62 -32 62 -107q0 -67 -47.5 -105
t-121.5 -38zM234 0l410 680h160l-410 -680h-160zM820 -19q-106 0 -166 74l101 77q26 -35 58 -35q17 0 30 9.5t13 30.5q0 17 -14.5 30.5t-52.5 13.5q-44 0 -93 -40l14 269h255l-12 -102h-144l-3 -48q26 10 59 10q58 0 95 -34.5t37 -95.5q0 -67 -47.5 -113t-129.5 -46z" />
    <glyph glyph-name="uni2158" unicode="&#x2158;" horiz-adv-x="1050" 
d="M202 269v63h-186l153 347h173v-251h48v-96h-48v-63h-140zM144 428h58v137zM234 0l410 680h160l-410 -680h-160zM820 -19q-106 0 -166 74l101 77q26 -35 58 -35q17 0 30 9.5t13 30.5q0 17 -14.5 30.5t-52.5 13.5q-44 0 -93 -40l14 269h255l-12 -102h-144l-3 -48
q26 10 59 10q58 0 95 -34.5t37 -95.5q0 -67 -47.5 -113t-129.5 -46z" />
    <glyph glyph-name="uni2159" unicode="&#x2159;" horiz-adv-x="897" 
d="M124 269v270l-78 -52v140l88 52h130v-410h-140zM141 0l410 680h160l-410 -680h-160zM682 -20q-75 0 -122 47.5t-47 115.5q0 77 61 151l95 116h152l-104 -120h7q62 -3 94 -46t32 -95q0 -72 -47 -120.5t-121 -48.5zM682 90q17 0 28.5 14t11.5 39q0 23 -10.5 38.5
t-29.5 15.5t-30.5 -15.5t-11.5 -38.5t11 -38t31 -15z" />
    <glyph glyph-name="uni215A" unicode="&#x215a;" horiz-adv-x="990" 
d="M194 250q-106 0 -166 74l101 77q26 -35 58 -35q17 0 30 9.5t13 30.5q0 17 -14.5 30.5t-52.5 13.5q-44 0 -93 -40l14 269h255l-12 -102h-144l-3 -48q26 10 59 10q58 0 95 -34.5t37 -95.5q0 -67 -47.5 -113t-129.5 -46zM234 0l410 680h160l-410 -680h-160zM775 -20
q-75 0 -122 47.5t-47 115.5q0 77 61 151l95 116h152l-104 -120h7q62 -3 94 -46t32 -95q0 -72 -47 -120.5t-121 -48.5zM775 90q17 0 28.5 14t11.5 39q0 23 -10.5 38.5t-29.5 15.5t-30.5 -15.5t-11.5 -38.5t11 -38t31 -15z" />
    <glyph glyph-name="oneeighth" unicode="&#x215b;" horiz-adv-x="957" 
d="M124 269v270l-78 -52v140l88 52h130v-410h-140zM141 0l410 680h160l-410 -680h-160zM746 266q18 0 26.5 10.5t8.5 25.5q0 12 -9 22.5t-26 10.5q-18 0 -27.5 -10.5t-9.5 -22.5q0 -15 9 -25.5t28 -10.5zM746 84q20 0 34 11t14 34q0 22 -14 33.5t-34 11.5q-21 0 -35 -11.5
t-14 -33.5q0 -45 49 -45zM746 -20q-83 0 -126 38.5t-43 105.5q0 30 18.5 59.5t44.5 41.5q-19 13 -31.5 37t-12.5 50q0 51 42 84.5t108 33.5q65 0 106.5 -33.5t41.5 -84.5q0 -27 -12 -51t-31 -36q25 -14 43.5 -43.5t18.5 -57.5q0 -67 -42.5 -105.5t-124.5 -38.5z" />
    <glyph glyph-name="threeeighths" unicode="&#x215c;" horiz-adv-x="1050" 
d="M207 249q-77 0 -119 39.5t-49 102.5l118 13q8 -47 40 -47q41 0 41 42q0 45 -43 45h-14v81h9q19 1 28.5 9.5t9.5 28.5q0 33 -30 33q-19 0 -28 -13.5t-9 -32.5l-109 9q0 62 39.5 101t109.5 39q72 0 115 -31t43 -86q0 -53 -45 -83q62 -32 62 -107q0 -67 -47.5 -105
t-121.5 -38zM234 0l410 680h160l-410 -680h-160zM839 266q17 0 26 10.5t9 25.5q0 12 -9 22.5t-26 10.5q-18 0 -27.5 -10.5t-9.5 -22.5q0 -15 9 -25.5t28 -10.5zM839 84q20 0 34 11t14 34q0 22 -14 33.5t-34 11.5q-21 0 -35 -11.5t-14 -33.5q0 -45 49 -45zM839 -20
q-83 0 -126 38.5t-43 105.5q0 30 18.5 59.5t44.5 41.5q-19 13 -31.5 37t-12.5 50q0 51 42 84.5t108 33.5q65 0 106.5 -33.5t41.5 -84.5q0 -27 -12 -51t-31 -36q25 -14 43.5 -43.5t18.5 -57.5q0 -67 -42.5 -105.5t-124.5 -38.5z" />
    <glyph glyph-name="fiveeighths" unicode="&#x215d;" horiz-adv-x="1050" 
d="M194 250q-106 0 -166 74l101 77q26 -35 58 -35q17 0 30 9.5t13 30.5q0 17 -14.5 30.5t-52.5 13.5q-44 0 -93 -40l14 269h255l-12 -102h-144l-3 -48q26 10 59 10q58 0 95 -34.5t37 -95.5q0 -67 -47.5 -113t-129.5 -46zM234 0l410 680h160l-410 -680h-160zM839 266
q17 0 26 10.5t9 25.5q0 12 -9 22.5t-26 10.5q-18 0 -27.5 -10.5t-9.5 -22.5q0 -15 9 -25.5t28 -10.5zM839 84q20 0 34 11t14 34q0 22 -14 33.5t-34 11.5q-21 0 -35 -11.5t-14 -33.5q0 -45 49 -45zM839 -20q-83 0 -126 38.5t-43 105.5q0 30 18.5 59.5t44.5 41.5
q-19 13 -31.5 37t-12.5 50q0 51 42 84.5t108 33.5q65 0 106.5 -33.5t41.5 -84.5q0 -27 -12 -51t-31 -36q25 -14 43.5 -43.5t18.5 -57.5q0 -67 -42.5 -105.5t-124.5 -38.5z" />
    <glyph glyph-name="seveneighths" unicode="&#x215e;" horiz-adv-x="940" 
d="M66 269l133 299h-174l17 111h297v-103l-137 -307h-136zM124 0l410 680h160l-410 -680h-160zM729 266q17 0 26 10.5t9 25.5q0 12 -9 22.5t-26 10.5q-18 0 -27.5 -10.5t-9.5 -22.5q0 -15 9 -25.5t28 -10.5zM729 84q20 0 34 11t14 34q0 22 -14 33.5t-34 11.5
q-21 0 -35 -11.5t-14 -33.5q0 -45 49 -45zM729 -20q-83 0 -126 38.5t-43 105.5q0 30 18.5 59.5t44.5 41.5q-19 13 -31.5 37t-12.5 50q0 51 42 84.5t108 33.5q65 0 106.5 -33.5t41.5 -84.5q0 -27 -12 -51t-31 -36q25 -14 43.5 -43.5t18.5 -57.5q0 -67 -42.5 -105.5
t-124.5 -38.5z" />
    <glyph glyph-name="uni215F" unicode="&#x215f;" horiz-adv-x="533" 
d="M124 269v270l-78 -52v140l88 52h130v-410h-140zM141 0l410 680h160l-410 -680h-160z" />
    <glyph glyph-name="uni2189" unicode="&#x2189;" horiz-adv-x="1050" 
d="M212 363q26 0 38 26t12 84q0 60 -12 86t-38 26t-38 -26t-12 -86q0 -58 12 -84t38 -26zM212 249q-86 0 -136.5 60t-50.5 165t50.5 165t136.5 60t136.5 -60t50.5 -165t-50.5 -165t-136.5 -60zM234 0l410 680h160l-410 -680h-160zM833 -20q-77 0 -119 39.5t-49 102.5l118 13
q8 -47 40 -47q41 0 41 42q0 45 -43 45h-14v81h9q19 1 28.5 9.5t9.5 28.5q0 33 -30 33q-19 0 -28 -13.5t-9 -32.5l-109 9q0 62 39.5 101t109.5 39q72 0 115 -31t43 -86q0 -53 -45 -83q62 -32 62 -107q0 -67 -47.5 -105t-121.5 -38z" />
    <glyph glyph-name="partialdiff" unicode="&#x2202;" horiz-adv-x="571" 
d="M281 -20q-125 0 -193 71.5t-68 189.5q0 97 53 165.5t154 68.5q87 0 135 -36q0 29 -17 57t-46 42q-43 20 -100 20q-43 0 -80 -11l45 153q196 0 297 -108q90 -97 90 -306q0 -143 -71.5 -224.5t-198.5 -81.5zM281 142q35 0 58 28t23 71q0 42 -23 66t-58 24t-58 -24t-23 -66
t24 -70.5t57 -28.5z" />
    <glyph glyph-name="Delta" unicode="&#x2206;" horiz-adv-x="720" 
d="M0 0l360 700l360 -700h-720zM262 160h196l-98 191z" />
    <glyph glyph-name="product" unicode="&#x220f;" horiz-adv-x="740" 
d="M120 -104v604h-100l10 180h680l10 -180h-100v-604h-180v604h-140v-604h-180z" />
    <glyph glyph-name="summation" unicode="&#x2211;" horiz-adv-x="610" 
d="M40 -103v180l148 218l-148 205v180h510l20 -180h-320l138 -205l-138 -218h320l-20 -180h-510z" />
    <glyph glyph-name="minus" unicode="&#x2212;" horiz-adv-x="564" 
d="M27 230v150h510v-150h-510z" />
    <glyph glyph-name="uni2219" unicode="&#x2219;" horiz-adv-x="564" 
d="M282 55q-87 0 -148.5 61.5t-61.5 148.5t61.5 148.5t148.5 61.5t148.5 -61.5t61.5 -148.5t-61.5 -148.5t-148.5 -61.5z" />
    <glyph glyph-name="radical" unicode="&#x221a;" horiz-adv-x="740" 
d="M260 0l-120 340h-140l20 160h230l90 -260l220 620h180l-320 -860h-160z" />
    <glyph glyph-name="infinity" unicode="&#x221e;" horiz-adv-x="1010" 
d="M254 54q-98 0 -166 68t-68 166t68 166t166 68q67 0 127 -33.5t125 -92.5q137 126 252 126q98 0 166 -68t68 -166t-68 -166t-166 -68q-115 0 -252 126q-65 -59 -125 -92.5t-127 -33.5zM758 216q30 0 51 21t21 51t-21 51t-51 21q-49 0 -144 -72q97 -72 144 -72zM254 216
q21 0 48 12t45.5 24.5t50.5 35.5q-32 23 -50.5 35.5t-45.5 24.5t-48 12q-30 0 -51 -21t-21 -51t21 -51t51 -21z" />
    <glyph glyph-name="integral" unicode="&#x222b;" horiz-adv-x="540" 
d="M0 -210v170q62 -20 100 -20q80 0 80 80v640q0 128 43 188t161 60q63 0 156 -18v-170q-62 20 -100 20q-80 0 -80 -80v-640q0 -128 -43 -188t-161 -60q-63 0 -156 18z" />
    <glyph glyph-name="approxequal" unicode="&#x2248;" horiz-adv-x="564" 
d="M27 290v150q46 39 81 54.5t79 15.5q36 0 98.5 -30t91.5 -30q31 0 77.5 22t82.5 58v-150q-46 -39 -81 -54.5t-79 -15.5q-36 0 -98.5 30t-91.5 30q-31 0 -77.5 -22t-82.5 -58zM27 70v150q46 39 81 54.5t79 15.5q36 0 98.5 -30t91.5 -30q31 0 77.5 22t82.5 58v-150
q-46 -39 -81 -54.5t-79 -15.5q-36 0 -98.5 30t-91.5 30q-31 0 -77.5 -22t-82.5 -58z" />
    <glyph glyph-name="notequal" unicode="&#x2260;" horiz-adv-x="564" 
d="M87 0l53 130h-113v140h171l28 70h-199v140h257l53 130h140l-53 -130h113v-140h-171l-28 -70h199v-140h-257l-53 -130h-140z" />
    <glyph glyph-name="lessequal" unicode="&#x2264;" horiz-adv-x="564" 
d="M537 161l-510 189v130l510 190v-180l-320 -75l320 -74v-180zM27 0v150h510v-150h-510z" />
    <glyph glyph-name="greaterequal" unicode="&#x2265;" horiz-adv-x="564" 
d="M27 161v180l320 74l-320 75v180l510 -190v-130zM27 0v150h510v-150h-510z" />
    <glyph glyph-name="dotmath" unicode="&#x22c5;" horiz-adv-x="564" 
d="M182 180v200h200v-200h-200z" />
    <glyph glyph-name="lozenge" unicode="&#x25ca;" horiz-adv-x="600" 
d="M300 -20l-300 360l300 360l300 -360zM300 200l117 140l-117 140l-117 -140z" />
    <glyph glyph-name="uniFB00" unicode="&#xfb00;" horiz-adv-x="725" 
d="M95 0v310h-80l20 150h60v90q0 180 220 180h50v-160q-48 0 -69 -12t-21 -48v-50h160v90q0 180 220 180h50v-160q-48 0 -69 -12t-21 -48v-50h90v-150h-90v-310h-180v310h-160v-310h-180z" />
    <glyph glyph-name="fi" unicode="&#xfb01;" horiz-adv-x="665" 
d="M435 560v160h180v-160h-180zM95 0v310h-80l20 150h60v90q0 180 220 180h50v-160q-48 0 -69 -12t-21 -48v-50h340v-460h-180v310h-160v-310h-180z" />
    <glyph glyph-name="fl" unicode="&#xfb02;" horiz-adv-x="665" 
d="M95 0v310h-80l20 150h60v90q0 180 220 180h300v-730h-180v570h-70q-48 0 -69 -12t-21 -48v-50h90v-150h-90v-310h-180z" />
    <glyph glyph-name="uniFB03" unicode="&#xfb03;" horiz-adv-x="1005" 
d="M775 560v160h180v-160h-180zM95 0v310h-80l20 150h60v90q0 180 220 180h50v-160q-48 0 -69 -12t-21 -48v-50h160v90q0 180 220 180h50v-160q-48 0 -69 -12t-21 -48v-50h340v-460h-180v310h-160v-310h-180v310h-160v-310h-180z" />
    <glyph glyph-name="uniFB04" unicode="&#xfb04;" horiz-adv-x="1005" 
d="M95 0v310h-80l20 150h60v90q0 180 220 180h50v-160q-48 0 -69 -12t-21 -48v-50h160v90q0 180 220 180h300v-730h-180v570h-70q-48 0 -69 -12t-21 -48v-50h90v-150h-90v-310h-180v310h-160v-310h-180z" />
    <glyph glyph-name="uniFEFF" unicode="&#xfeff;" horiz-adv-x="0" 
 />
    <glyph glyph-name="Agrave.alt001" horiz-adv-x="700" 
d="M300 610l-140 160h200l70 -160h-130zM0 0l231 666l62 -71h160l-55 125h52l250 -720h-210l-34 110h-212l-34 -110h-210zM291 270h118l-58 200h-2z" />
    <glyph glyph-name="Aacute.alt001" horiz-adv-x="700" 
d="M270 610l70 160h200l-140 -160h-130zM0 0l250 720h52l-55 -125h160l62 71l231 -666h-210l-34 110h-212l-34 -110h-210zM291 270h118l-58 200h-2z" />
    <glyph glyph-name="Acircumflex.alt001" horiz-adv-x="700" 
d="M150 610l110 160h180l110 -160h-160l-40 80l-40 -80h-160zM0 0l207 595h112l31 62l30 -62h113l207 -595h-210l-34 110h-212l-34 -110h-210zM291 270h118l-58 200h-2z" />
    <glyph glyph-name="Atilde.alt001" horiz-adv-x="700" 
d="M460 600q-40 0 -112 30t-88 30q-21 0 -25.5 -9t-4.5 -41h-100v40q0 68 25.5 99t84.5 31q40 0 112 -30t88 -30q21 0 25.5 9t4.5 41h100v-40q0 -68 -25.5 -99t-84.5 -31zM0 0l207 595h38q0 35 2 42.5t13 7.5q16 0 61 -20q90 -40 139 -40q20 0 36 3l204 -588h-210l-34 110
h-212l-34 -110h-210zM291 270h118l-58 200h-2z" />
    <glyph glyph-name="Adieresis.alt001" horiz-adv-x="700" 
d="M530 560v160h160v-160h-160zM10 560v160h160v-160h-160zM0 0l250 720h200l250 -720h-210l-34 110h-212l-34 -110h-210zM291 270h118l-58 200h-2z" />
    <glyph glyph-name="Aring.alt001" horiz-adv-x="700" 
d="M350 580q-46 0 -78 32t-32 78t32 78t78 32t78 -32t32 -78t-32 -78t-78 -32zM0 0l229 660q10 -41 43 -68t78 -27q43 0 77 26.5t44 68.5l229 -660h-210l-34 110h-212l-34 -110h-210zM350 650q16 0 28 12t12 28t-12 28t-28 12t-28 -12t-12 -28t12 -28t28 -12zM291 270h118
l-58 200h-2z" />
    <glyph glyph-name="Ccedilla.alt001" horiz-adv-x="676" 
d="M470 -16q9 24 9 49q0 35 -18 72h-165q21 -25 21 -67q0 -25 -6 -46q-126 30 -203 130t-77 238q0 165 107.5 272.5t272.5 107.5q159 0 250 -90l-100 -170q-65 80 -150 80q-76 0 -128 -56t-52 -144t52 -144t128 -56q90 0 150 90l110 -160q-62 -87 -201 -106zM361 -110
l-70 40q16 11 29 43.5t13 65.5q0 31 -12 51h130q13 -29 13 -57q0 -84 -103 -143z" />
    <glyph glyph-name="Egrave.alt001" horiz-adv-x="560" 
d="M250 610l-140 160h200l70 -160h-130zM60 0v720h74l109 -125h160l-55 125h142l20 -180h-250v-90h223v-170h-223v-100h250l-20 -180h-430z" />
    <glyph glyph-name="Eacute.alt001" horiz-adv-x="560" 
d="M170 610l70 160h200l-140 -160h-130zM60 0v720h142l-55 -125h160l109 125h74l20 -180h-250v-90h223v-170h-223v-100h250l-20 -180h-430z" />
    <glyph glyph-name="Ecircumflex.alt001" horiz-adv-x="560" 
d="M503 602l-82 118h69zM80 610l110 160h180l110 -160h-160l-40 80l-40 -80h-160zM60 607v113h78zM60 0v595h189l31 62l30 -62h194l6 -55h-250v-90h223v-170h-223v-100h250l-20 -180h-430z" />
    <glyph glyph-name="Edieresis.alt001" horiz-adv-x="560" 
d="M280 610v160h160v-160h-160zM105 610v160h160v-160h-160zM60 0v720h30v-125h365v125h35l20 -180h-250v-90h223v-170h-223v-100h250l-20 -180h-430z" />
    <glyph glyph-name="Igrave.alt001" horiz-adv-x="320" 
d="M260 648l-32 72h32v-72zM130 610l-140 160h200l70 -160h-130zM60 0v667l63 -72h137v-595h-200z" />
    <glyph glyph-name="Iacute.alt001" horiz-adv-x="320" 
d="M60 610l70 160h200l-140 -160h-130zM60 648v72h32zM60 0v595h137l63 72v-667h-200z" />
    <glyph glyph-name="Icircumflex.alt001" horiz-adv-x="320" 
d="M-40 610l110 160h180l110 -160h-160l-40 80l-40 -80h-160zM60 0v595h69l31 62l30 -62h70v-595h-200z" />
    <glyph glyph-name="Idieresis.alt001" horiz-adv-x="320" 
d="M168 560v160h160v-160h-160zM-8 560v160h160v-160h-160zM60 0v545h200v-545h-200z" />
    <glyph glyph-name="Ntilde.alt001" horiz-adv-x="730" 
d="M475 600q-40 0 -112 30t-88 30q-21 0 -25.5 -9t-4.5 -41h-100v40q0 68 25.5 99t84.5 31q40 0 112 -30t88 -30q21 0 25.5 9t4.5 41h100v-40q0 -68 -25.5 -99t-84.5 -31zM60 0v720h79q-9 -28 -9 -70v-55h130q0 35 2 42.5t13 7.5q5 0 17 -3l176 -262h2v205q68 0 98 31
t32 104h70v-720h-180l-228 340h-2v-340h-200z" />
    <glyph glyph-name="Ograve.alt001" horiz-adv-x="820" 
d="M350 610l-140 160h200l70 -160h-130zM410 -20q-163 0 -271.5 110.5t-108.5 269.5q0 115 59 207.5t158 137.5l96 -110h160l-63 144q153 -12 251.5 -120.5t98.5 -258.5q0 -159 -108.5 -269.5t-271.5 -110.5zM410 160q76 0 128 56t52 144t-52 144t-128 56t-128 -56t-52 -144
t52 -144t128 -56z" />
    <glyph glyph-name="Oacute.alt001" horiz-adv-x="820" 
d="M340 610l70 160h200l-140 -160h-130zM410 -20q-163 0 -271.5 110.5t-108.5 269.5q0 150 98.5 258.5t251.5 120.5l-63 -144h160l96 110q99 -45 158 -137.5t59 -207.5q0 -159 -108.5 -269.5t-271.5 -110.5zM410 160q76 0 128 56t52 144t-52 144t-128 56t-128 -56t-52 -144
t52 -144t128 -56z" />
    <glyph glyph-name="Ocircumflex.alt001" horiz-adv-x="820" 
d="M210 610l110 160h180l110 -160h-160l-40 80l-40 -80h-160zM410 -20q-163 0 -271.5 110.5t-108.5 269.5q0 118 63 213.5t170 139.5l-81 -118h197l31 62l30 -62h198l-80 117q106 -42 169 -137.5t63 -214.5q0 -159 -108.5 -269.5t-271.5 -110.5zM410 160q76 0 128 56t52 144
t-52 144t-128 56t-128 -56t-52 -144t52 -144t128 -56z" />
    <glyph glyph-name="Otilde.alt001" horiz-adv-x="820" 
d="M520 610q-40 0 -112 30t-88 30q-21 0 -25.5 -9t-4.5 -41h-100v40q0 68 25.5 99t84.5 31q40 0 112 -30t88 -30q21 0 25.5 9t4.5 41h100v-40q0 -68 -25.5 -99t-84.5 -31zM410 -20q-163 0 -271.5 110.5t-108.5 269.5q0 91 38.5 170t106.5 132v-57h130q0 35 2 42.5t13 7.5
q16 0 61 -20q90 -40 139 -40q94 0 116 73q72 -52 113 -132.5t41 -175.5q0 -159 -108.5 -269.5t-271.5 -110.5zM410 160q76 0 128 56t52 144t-52 144t-128 56t-128 -56t-52 -144t52 -144t128 -56z" />
    <glyph glyph-name="Odieresis.alt001" horiz-adv-x="820" 
d="M600 560v160h160v-160h-160zM60 560v160h160v-160h-160zM410 -20q-163 0 -271.5 110.5t-108.5 269.5q0 101 46 185h159v154q73 41 175 41q100 0 175 -41v-154h160q45 -85 45 -185q0 -159 -108.5 -269.5t-271.5 -110.5zM410 160q76 0 128 56t52 144t-52 144t-128 56
t-128 -56t-52 -144t52 -144t128 -56z" />
    <glyph glyph-name="Ugrave.alt001" horiz-adv-x="720" 
d="M295 610l-130 160h190l70 -160h-130zM360 -20q-134 0 -219.5 78.5t-85.5 211.5v450h131l69 -85v-365q0 -50 30 -75t75 -25t75 25t30 75v450h200v-450q0 -133 -85.5 -211.5t-219.5 -78.5z" />
    <glyph glyph-name="Uacute.alt001" horiz-adv-x="720" 
d="M295 610l70 160h190l-130 -160h-130zM360 -20q-134 0 -219.5 78.5t-85.5 211.5v450h200v-450q0 -50 30 -75t75 -25t75 25t30 75v365l69 85h131v-450q0 -133 -85.5 -211.5t-219.5 -78.5z" />
    <glyph glyph-name="Ucircumflex.alt001" horiz-adv-x="720" 
d="M185 610l99 160h153l98 -160h-140l-35 75l-35 -75h-140zM360 -20q-134 0 -219.5 78.5t-85.5 211.5v450h180l-77 -125h97v-325q0 -50 30 -75t75 -25t75 25t30 75v325h97l-77 125h180v-450q0 -133 -85.5 -211.5t-219.5 -78.5z" />
    <glyph glyph-name="Udieresis.alt001" horiz-adv-x="720" 
d="M395 560v160h160v-160h-160zM165 560v160h160v-160h-160zM360 -20q-134 0 -219.5 78.5t-85.5 211.5v450h95v-175h105v-285q0 -50 30 -75t75 -25t75 25t30 75v285h105v175h95v-450q0 -133 -85.5 -211.5t-219.5 -78.5z" />
    <glyph glyph-name="Yacute.alt001" 
d="M240 610l70 160h200l-140 -160h-130zM210 0v230l-210 490h200l34 -86l-17 -39h32l60 -155h2l60 155h6l109 125h134l-210 -490v-230h-200z" />
    <glyph glyph-name="Scaron.alt001" horiz-adv-x="550" 
d="M295 -20q-153 0 -260 80l92 153l63 -37q38 -23 77 -23q26 0 42 12t16 35q0 27 -28 49t-67.5 41.5t-79 45.5t-67.5 73t-28 111q0 108 79 169l64 -94h194l74 107q22 -13 39 -28l-68 -158q-66 60 -125 60q-30 0 -48.5 -16t-18.5 -40q0 -18 20.5 -34t52 -28.5t67.5 -34
t67.5 -47t52 -71.5t20.5 -105q0 -104 -62 -162t-168 -58zM205 610l-110 160h160l40 -80l40 80h160l-110 -160h-180zM295 723l-8 17h16z" />
    <glyph glyph-name="Ydieresis.alt001" 
d="M340 610v160h150v-160h-150zM130 610v160h150v-160h-150zM210 0v230l-210 490h115v-125h134l61 -155l61 155h134v125h115l-210 -490v-230h-200z" />
    <glyph glyph-name="Zcaron.alt001" 
d="M234 610l-110 160h160l40 -80l40 80h160l-110 -160h-180zM34 0l252 540h-243l27 180h71l86 -125h194l86 125h85l-252 -540h252l-27 -180h-531z" />
    <glyph glyph-name="i.latn_TRK" horiz-adv-x="280" 
d="M50 560v160h180v-160h-180zM50 0v460h180v-460h-180z" />
    <glyph glyph-name="zero.numr" horiz-adv-x="424" 
d="M212 363q26 0 38 26t12 84q0 60 -12 86t-38 26t-38 -26t-12 -86q0 -58 12 -84t38 -26zM212 249q-86 0 -136.5 60t-50.5 165t50.5 165t136.5 60t136.5 -60t50.5 -165t-50.5 -165t-136.5 -60z" />
    <glyph glyph-name="one.numr" horiz-adv-x="331" 
d="M124 269v270l-78 -52v140l88 52h130v-410h-140z" />
    <glyph glyph-name="two.numr" horiz-adv-x="424" 
d="M57 269v62q0 50 29 89t63.5 58.5t63.5 42.5t29 44q0 11 -8 21t-27 10q-37 0 -37 -56l-123 11q6 74 52.5 111t111.5 37q81 0 122 -37.5t41 -95.5q0 -42 -25.5 -76t-56 -51t-56 -35t-25.5 -32h165l-12 -103h-307z" />
    <glyph glyph-name="three.numr" horiz-adv-x="424" 
d="M207 249q-77 0 -119 39.5t-49 102.5l118 13q8 -47 40 -47q41 0 41 42q0 45 -43 45h-14v81h9q19 1 28.5 9.5t9.5 28.5q0 33 -30 33q-19 0 -28 -13.5t-9 -32.5l-109 9q0 62 39.5 101t109.5 39q72 0 115 -31t43 -86q0 -53 -45 -83q62 -32 62 -107q0 -67 -47.5 -105
t-121.5 -38z" />
    <glyph glyph-name="four.numr" horiz-adv-x="424" 
d="M202 269v63h-186l153 347h173v-251h48v-96h-48v-63h-140zM144 428h58v137z" />
    <glyph glyph-name="five.numr" horiz-adv-x="424" 
d="M194 250q-106 0 -166 74l101 77q26 -35 58 -35q17 0 30 9.5t13 30.5q0 17 -14.5 30.5t-52.5 13.5q-44 0 -93 -40l14 269h255l-12 -102h-144l-3 -48q26 10 59 10q58 0 95 -34.5t37 -95.5q0 -67 -47.5 -113t-129.5 -46z" />
    <glyph glyph-name="six.numr" horiz-adv-x="424" 
d="M209 249q-75 0 -122 47.5t-47 115.5q0 77 61 151l95 116h152l-104 -120h7q62 -3 94 -46t32 -95q0 -72 -47 -120.5t-121 -48.5zM209 359q17 0 28.5 14t11.5 39q0 23 -10.5 38.5t-29.5 15.5t-30.5 -15.5t-11.5 -38.5t11 -38t31 -15z" />
    <glyph glyph-name="seven.numr" horiz-adv-x="364" 
d="M66 269l133 299h-174l17 111h297v-103l-137 -307h-136z" />
    <glyph glyph-name="eight.numr" horiz-adv-x="424" 
d="M213 535q17 0 26 10.5t9 25.5q0 12 -9 22.5t-26 10.5q-18 0 -27.5 -10.5t-9.5 -22.5q0 -15 9 -25.5t28 -10.5zM213 353q20 0 34 11t14 34q0 22 -14 33.5t-34 11.5q-21 0 -35 -11.5t-14 -33.5q0 -45 49 -45zM213 249q-83 0 -126 38.5t-43 105.5q0 30 18.5 59.5t44.5 41.5
q-19 13 -31.5 37t-12.5 50q0 51 42 84.5t108 33.5q65 0 106.5 -33.5t41.5 -84.5q0 -27 -12 -51t-31 -36q25 -14 43.5 -43.5t18.5 -57.5q0 -67 -42.5 -105.5t-124.5 -38.5z" />
    <glyph glyph-name="nine.numr" horiz-adv-x="424" 
d="M72 269l104 120h-7q-62 3 -94 46t-32 95q0 72 47 120.5t121 48.5q75 0 122 -47.5t47 -115.5q0 -77 -61 -151l-95 -116h-152zM211 589q-17 0 -28.5 -14t-11.5 -39q0 -23 10.5 -38.5t29.5 -15.5t30.5 15.5t11.5 38.5t-11 38t-31 15z" />
    <glyph glyph-name="zero.dnom" horiz-adv-x="424" 
d="M212 94q26 0 38 26t12 84q0 60 -12 86t-38 26t-38 -26t-12 -86q0 -58 12 -84t38 -26zM212 -20q-86 0 -136.5 60t-50.5 165t50.5 165t136.5 60t136.5 -60t50.5 -165t-50.5 -165t-136.5 -60z" />
    <glyph glyph-name="one.dnom" horiz-adv-x="331" 
d="M124 0v270l-78 -52v140l88 52h130v-410h-140z" />
    <glyph glyph-name="two.dnom" horiz-adv-x="424" 
d="M57 0v62q0 50 29 89t63.5 58.5t63.5 42.5t29 44q0 11 -8 21t-27 10q-37 0 -37 -56l-123 11q6 74 52.5 111t111.5 37q81 0 122 -37.5t41 -95.5q0 -42 -25.5 -76t-56 -51t-56 -35t-25.5 -32h165l-12 -103h-307z" />
    <glyph glyph-name="three.dnom" horiz-adv-x="424" 
d="M207 -20q-77 0 -119 39.5t-49 102.5l118 13q8 -47 40 -47q41 0 41 42q0 45 -43 45h-14v81h9q19 1 28.5 9.5t9.5 28.5q0 33 -30 33q-19 0 -28 -13.5t-9 -32.5l-109 9q0 62 39.5 101t109.5 39q72 0 115 -31t43 -86q0 -53 -45 -83q62 -32 62 -107q0 -67 -47.5 -105
t-121.5 -38z" />
    <glyph glyph-name="four.dnom" horiz-adv-x="424" 
d="M202 0v63h-186l153 347h173v-251h48v-96h-48v-63h-140zM144 159h58v137z" />
    <glyph glyph-name="five.dnom" horiz-adv-x="424" 
d="M194 -19q-106 0 -166 74l101 77q26 -35 58 -35q17 0 30 9.5t13 30.5q0 17 -14.5 30.5t-52.5 13.5q-44 0 -93 -40l14 269h255l-12 -102h-144l-3 -48q26 10 59 10q58 0 95 -34.5t37 -95.5q0 -67 -47.5 -113t-129.5 -46z" />
    <glyph glyph-name="six.dnom" horiz-adv-x="424" 
d="M209 -20q-75 0 -122 47.5t-47 115.5q0 77 61 151l95 116h152l-104 -120h7q62 -3 94 -46t32 -95q0 -72 -47 -120.5t-121 -48.5zM209 90q17 0 28.5 14t11.5 39q0 23 -10.5 38.5t-29.5 15.5t-30.5 -15.5t-11.5 -38.5t11 -38t31 -15z" />
    <glyph glyph-name="seven.dnom" horiz-adv-x="364" 
d="M66 0l133 299h-174l17 111h297v-103l-137 -307h-136z" />
    <glyph glyph-name="eight.dnom" horiz-adv-x="424" 
d="M213 266q17 0 26 10.5t9 25.5q0 12 -9 22.5t-26 10.5q-18 0 -27.5 -10.5t-9.5 -22.5q0 -15 9 -25.5t28 -10.5zM213 84q20 0 34 11t14 34q0 22 -14 33.5t-34 11.5q-21 0 -35 -11.5t-14 -33.5q0 -45 49 -45zM213 -20q-83 0 -126 38.5t-43 105.5q0 30 18.5 59.5t44.5 41.5
q-19 13 -31.5 37t-12.5 50q0 51 42 84.5t108 33.5q65 0 106.5 -33.5t41.5 -84.5q0 -27 -12 -51t-31 -36q25 -14 43.5 -43.5t18.5 -57.5q0 -67 -42.5 -105.5t-124.5 -38.5z" />
    <glyph glyph-name="nine.dnom" horiz-adv-x="424" 
d="M72 0l104 120h-7q-62 3 -94 46t-32 95q0 72 47 120.5t121 48.5q75 0 122 -47.5t47 -115.5q0 -77 -61 -151l-95 -116h-152zM211 320q-17 0 -28.5 -14t-11.5 -39q0 -23 10.5 -38.5t29.5 -15.5t30.5 15.5t11.5 38.5t-11 38t-31 15z" />
    <glyph glyph-name="space.frac" horiz-adv-x="50" 
 />
    <glyph glyph-name="zero.tf" horiz-adv-x="534" 
d="M267 -20q-121 0 -188 95.5t-67 264.5t67 264.5t188 95.5t188 -95.5t67 -264.5t-67 -264.5t-188 -95.5zM267 140q44 0 59.5 48.5t15.5 151.5q0 104 -15.5 152t-59.5 48t-59.5 -48t-15.5 -152q0 -103 15.5 -151.5t59.5 -48.5z" />
    <glyph glyph-name="one.tf" horiz-adv-x="564" 
d="M64 0v160h150v328l-155 -79v191l165 80h170v-520h140v-160h-470z" />
    <glyph glyph-name="two.tf" horiz-adv-x="564" 
d="M32 0v100q0 59 23.5 107t58.5 77t75.5 55.5t75.5 45t58.5 43t23.5 52.5q0 26 -19.5 43t-55.5 17q-70 0 -70 -100l-180 15q0 113 75 179t175 66q133 0 196.5 -62t63.5 -158q0 -60 -29 -107.5t-70 -76t-82 -50.5t-70 -43t-29 -43h290l-20 -160h-490z" />
    <glyph glyph-name="three.tf" horiz-adv-x="564" 
d="M287 -20q-121 0 -188 60t-75 150l182 20q14 -70 80 -70q68 0 68 76q0 29 -16 50.5t-42 21.5h-36v142h14q25 0 41.5 15.5t16.5 47.5q0 54 -58 54q-56 0 -56 -74l-170 13q0 103 63 158.5t176 55.5q92 0 158.5 -52t66.5 -137q0 -90 -73 -133v-2q100 -55 100 -171
q0 -92 -66 -158.5t-186 -66.5z" />
    <glyph glyph-name="four.tf" horiz-adv-x="564" 
d="M315 0v100h-310l260 580h230v-430h60v-150h-60v-100h-180zM205 250h110v250h-2z" />
    <glyph glyph-name="five.tf" horiz-adv-x="564" 
d="M261 -20q-87 0 -135.5 23.5t-112.5 88.5l142 108q20 -30 43.5 -43t57.5 -13q29 0 51.5 19t22.5 65q0 17 -4 32t-14.5 32.5t-34.5 28t-60 10.5q-69 0 -137 -63l23 412h369l-18 -140h-220l-6 -86q46 18 102 18q84 0 138 -63t54 -157q0 -117 -69 -194.5t-192 -77.5z" />
    <glyph glyph-name="six.tf" horiz-adv-x="564" 
d="M285 -20q-113 0 -184 76t-71 184q0 70 18.5 120t71.5 120l150 200h210l-148 -195q106 -5 157 -73.5t51 -171.5q0 -108 -71 -184t-184 -76zM285 140q34 0 54.5 27.5t20.5 72.5t-20.5 72.5t-54.5 27.5t-54.5 -27.5t-20.5 -72.5t20.5 -72.5t54.5 -27.5z" />
    <glyph glyph-name="seven.tf" horiz-adv-x="564" 
d="M102 0l220 520h-280l25 160h455v-160l-220 -520h-200z" />
    <glyph glyph-name="eight.tf" horiz-adv-x="564" 
d="M282 -20q-127 0 -196 66.5t-69 173.5q0 105 93 161q-63 38 -63 139q0 77 66 128.5t169 51.5q102 0 168.5 -51.5t66.5 -128.5q0 -99 -65 -139q95 -57 95 -161q0 -107 -69 -173.5t-196 -66.5zM282 427q32 0 47.5 19t15.5 45q0 24 -16 42.5t-47 18.5q-33 0 -49.5 -18.5
t-16.5 -42.5q0 -26 16.5 -45t49.5 -19zM282 140q37 0 61 19.5t24 60.5q0 40 -24.5 60t-60.5 20q-38 0 -61.5 -20t-23.5 -60q0 -80 85 -80z" />
    <glyph glyph-name="nine.tf" horiz-adv-x="564" 
d="M87 0l148 195q-106 5 -157 73.5t-51 171.5q0 108 71 184t184 76t184 -76t71 -184q0 -70 -18.5 -120t-71.5 -120l-150 -200h-210zM282 340q34 0 54.5 27.5t20.5 72.5t-20.5 72.5t-54.5 27.5t-54.5 -27.5t-20.5 -72.5t20.5 -72.5t54.5 -27.5z" />
    <glyph glyph-name="uni2007.tf" horiz-adv-x="534" 
 />
    <glyph glyph-name="zero.lf" horiz-adv-x="550" 
d="M275 -20q-122 0 -191 95.5t-69 264.5t69 264.5t191 95.5t191 -95.5t69 -264.5t-69 -264.5t-191 -95.5zM275 140q45 0 62.5 50t17.5 150q0 102 -17.5 151t-62.5 49t-62.5 -49t-17.5 -151q0 -100 17.5 -150t62.5 -50z" />
    <glyph glyph-name="one.lf" horiz-adv-x="370" 
d="M130 0v480l-110 -64v194l120 70h170v-680h-180z" />
    <glyph glyph-name="two.lf" horiz-adv-x="590" 
d="M45 0v100q0 59 23.5 107t58.5 77t75.5 55.5t75.5 45t58.5 43t23.5 52.5q0 26 -19.5 43t-55.5 17q-70 0 -70 -100l-180 15q0 113 75 179t175 66q133 0 196.5 -62t63.5 -158q0 -60 -29 -107.5t-70 -76t-82 -50.5t-70 -43t-29 -43h290l-20 -160h-490z" />
    <glyph glyph-name="three.lf" horiz-adv-x="560" 
d="M283 -20q-121 0 -188 60t-75 150l182 20q14 -70 80 -70q68 0 68 76q0 29 -16 50.5t-42 21.5h-36v142h14q25 0 41.5 15.5t16.5 47.5q0 54 -58 54q-56 0 -56 -74l-170 13q0 103 63 158.5t176 55.5q92 0 158.5 -52t66.5 -137q0 -90 -73 -133v-2q100 -55 100 -171
q0 -92 -66 -158.5t-186 -66.5z" />
    <glyph glyph-name="four.lf" horiz-adv-x="560" 
d="M300 0v100h-310l260 580h230v-430h60v-150h-60v-100h-180zM190 250h110v250h-2z" />
    <glyph glyph-name="five.lf" horiz-adv-x="539" 
d="M253 -20q-87 0 -135.5 23.5t-112.5 88.5l142 108q20 -30 43.5 -43t57.5 -13q29 0 51.5 19t22.5 65q0 17 -4 32t-14.5 32.5t-34.5 28t-60 10.5q-69 0 -137 -63l23 412h369l-18 -140h-220l-6 -86q46 18 102 18q84 0 138 -63t54 -157q0 -117 -69 -194.5t-192 -77.5z" />
    <glyph glyph-name="six.lf" horiz-adv-x="570" 
d="M285 -20q-113 0 -184 76t-71 184q0 70 18.5 120t71.5 120l150 200h210l-148 -195q106 -5 157 -73.5t51 -171.5q0 -108 -71 -184t-184 -76zM285 140q34 0 54.5 27.5t20.5 72.5t-20.5 72.5t-54.5 27.5t-54.5 -27.5t-20.5 -72.5t20.5 -72.5t54.5 -27.5z" />
    <glyph glyph-name="seven.lf" horiz-adv-x="490" 
d="M60 0l220 520h-280l25 160h455v-160l-220 -520h-200z" />
    <glyph glyph-name="eight.lf" horiz-adv-x="590" 
d="M295 -20q-127 0 -196 66.5t-69 173.5q0 105 93 161q-63 38 -63 139q0 77 66 128.5t169 51.5q102 0 168.5 -51.5t66.5 -128.5q0 -99 -65 -139q95 -57 95 -161q0 -107 -69 -173.5t-196 -66.5zM295 427q32 0 47.5 19t15.5 45q0 24 -16 42.5t-47 18.5q-33 0 -49.5 -18.5
t-16.5 -42.5q0 -26 16.5 -45t49.5 -19zM295 140q37 0 61 19.5t24 60.5q0 40 -24.5 60t-60.5 20q-38 0 -61.5 -20t-23.5 -60q0 -80 85 -80z" />
    <glyph glyph-name="nine.lf" horiz-adv-x="570" 
d="M90 0l148 195q-106 5 -157 73.5t-51 171.5q0 108 71 184t184 76t184 -76t71 -184q0 -70 -18.5 -120t-71.5 -120l-150 -200h-210zM285 340q34 0 54.5 27.5t20.5 72.5t-20.5 72.5t-54.5 27.5t-54.5 -27.5t-20.5 -72.5t20.5 -72.5t54.5 -27.5z" />
    <glyph glyph-name="zero.tosf" horiz-adv-x="564" 
d="M282 -15q-118 0 -189 69t-71 176t71 176t189 69t189 -69t71 -176t-71 -176t-189 -69zM282 140q36 0 58 26t22 64q0 39 -21.5 64.5t-58.5 25.5t-58.5 -25.5t-21.5 -64.5t21.5 -64.5t58.5 -25.5z" />
    <glyph glyph-name="one.tosf" horiz-adv-x="564" 
d="M67 0v130h149v169l-160 -50v151l170 60h170v-330h124v-130h-453z" />
    <glyph glyph-name="two.tosf" horiz-adv-x="564" 
d="M45 0v100q0 47 31 81t75 51t88 28t75 20.5t31 19.5q0 40 -60 40q-70 0 -100 -60l-160 60q75 135 260 135q113 0 176.5 -46t63.5 -109q0 -45 -29 -77t-70 -48t-82 -26.5t-70 -19.5t-29 -19l280 10l-10 -140h-470z" />
    <glyph glyph-name="three.tosf" horiz-adv-x="564" 
d="M286 -215q-107 0 -171.5 53t-88.5 142l150 50q8 -38 35.5 -64t64.5 -26q38 0 54 17t16 53q0 29 -18.5 49.5t-41.5 20.5h-30v140h30q40 0 40 57q0 53 -50 53q-29 0 -50.5 -19.5t-29.5 -50.5l-150 50q35 78 89 121.5t151 43.5q93 0 156.5 -49.5t63.5 -135.5q0 -82 -70 -123
q90 -51 90 -167q0 -88 -62.5 -151.5t-177.5 -63.5z" />
    <glyph glyph-name="four.tosf" horiz-adv-x="564" 
d="M302 -200v200h-300l250 460h230v-320h80l-10 -140h-70v-200h-180zM222 140h80v170z" />
    <glyph glyph-name="five.tosf" horiz-adv-x="564" 
d="M242 -215q-77 0 -121.5 24.5t-108.5 89.5l130 101q41 -60 100 -60q28 0 54 19.5t26 60.5q0 39 -24.5 69.5t-88.5 30.5q-67 0 -127 -40l17 380h363l-10 -150h-215l-5 -70q48 20 90 20q80 0 130 -64t50 -156q0 -112 -68 -183.5t-192 -71.5z" />
    <glyph glyph-name="six.tosf" horiz-adv-x="564" 
d="M282 -15q-119 0 -189.5 70.5t-70.5 184.5q0 70 21.5 122.5t68.5 117.5l145 205h210l-155 -210h9q95 0 158 -68.5t63 -176.5q0 -107 -71 -176t-189 -69zM282 140q36 0 58 26t22 64q0 39 -21.5 64.5t-58.5 25.5t-58.5 -25.5t-21.5 -64.5t21.5 -64.5t58.5 -25.5z" />
    <glyph glyph-name="seven.tosf" horiz-adv-x="564" 
d="M98 -200l230 500h-300l20 160h480v-160l-230 -500h-200z" />
    <glyph glyph-name="eight.tosf" horiz-adv-x="564" 
d="M282 -20q-127 0 -196 66.5t-69 173.5q0 105 93 161q-63 38 -63 139q0 77 66 128.5t169 51.5q102 0 168.5 -51.5t66.5 -128.5q0 -99 -65 -139q95 -57 95 -161q0 -107 -69 -173.5t-196 -66.5zM282 427q32 0 47.5 19t15.5 45q0 24 -16 42.5t-47 18.5q-33 0 -49.5 -18.5
t-16.5 -42.5q0 -26 16.5 -45t49.5 -19zM282 140q37 0 61 19.5t24 60.5q0 40 -24.5 60t-60.5 20q-38 0 -61.5 -20t-23.5 -60q0 -80 85 -80z" />
    <glyph glyph-name="nine.tosf" horiz-adv-x="564" 
d="M114 -200l138 185h-9q-95 0 -158 68.5t-63 176.5q0 107 71 176t189 69q119 0 189.5 -70.5t70.5 -184.5q0 -71 -22 -126t-68 -114l-140 -180h-198zM282 140q37 0 58.5 25.5t21.5 64.5t-21.5 64.5t-58.5 25.5q-36 0 -58 -26t-22 -64q0 -39 21.5 -64.5t58.5 -25.5z" />
    <glyph glyph-name="uni2007.tosf" horiz-adv-x="564" 
 />
    <glyph glyph-name="parenleft.case" horiz-adv-x="420" 
d="M260 -120q-240 189 -240 480t240 480l130 -140q-180 -147 -180 -340t180 -340z" />
    <glyph glyph-name="parenright.case" horiz-adv-x="420" 
d="M160 -120l-130 140q180 147 180 340t-180 340l130 140q240 -189 240 -480t-240 -480z" />
    <glyph glyph-name="hyphen.case" horiz-adv-x="340" 
d="M40 285v150h270v-150h-270z" />
    <glyph glyph-name="bracketleft.case" horiz-adv-x="370" 
d="M330 -90l-260 10v880l260 10l10 -160h-80v-580h80z" />
    <glyph glyph-name="bracketright.case" horiz-adv-x="370" 
d="M40 -90l-10 160h80v580h-80l10 160l260 -10v-880z" />
    <glyph glyph-name="braceleft.case" horiz-adv-x="380" 
d="M280 -80q-116 0 -153 40.5t-37 149.5v120q0 36 -15.5 48t-54.5 12v140q39 0 54.5 12t15.5 48v120q0 109 37 149.5t153 40.5h80v-140q-14 2 -20 2q-31 0 -45.5 -17.5t-14.5 -44.5v-160q0 -63 -50 -80q50 -17 50 -80v-160q0 -62 58 -62q6 0 22 2v-140h-80z" />
    <glyph glyph-name="braceright.case" horiz-adv-x="380" 
d="M20 -80v140q16 -2 22 -2q58 0 58 62v160q0 63 50 80q-50 17 -50 80v160q0 27 -14.5 44.5t-45.5 17.5q-6 0 -20 -2v140h80q116 0 153 -40.5t37 -149.5v-120q0 -36 15.5 -48t54.5 -12v-140q-39 0 -54.5 -12t-15.5 -48v-120q0 -109 -37 -149.5t-153 -40.5h-80z" />
    <glyph glyph-name="exclamdown.case" horiz-adv-x="300" 
d="M60 540v180h180v-180h-180zM60 0v490h180v-490h-180z" />
    <glyph glyph-name="guillemotleft.case" horiz-adv-x="520" 
d="M400 200l-160 160l160 160l90 -90l-70 -70l70 -70zM180 200l-160 160l160 160l90 -90l-70 -70l70 -70z" />
    <glyph glyph-name="uni00AD.case" horiz-adv-x="340" 
d="M40 285v150h270v-150h-270z" />
    <glyph glyph-name="guillemotright.case" horiz-adv-x="520" 
d="M330 200l-90 90l70 70l-70 70l90 90l160 -160zM110 200l-90 90l70 70l-70 70l90 90l160 -160z" />
    <glyph glyph-name="questiondown.case" horiz-adv-x="530" 
d="M190 540v180h190v-180h-190zM270 -20q-122 0 -186 50.5t-64 129.5q0 42 12.5 75t31.5 51.5t41 37t41 33.5t31.5 39t12.5 54v40h190q3 -27 3 -51q0 -55 -17 -94.5t-41 -60t-47.5 -35t-40.5 -28.5t-17 -31q0 -22 14 -36t36 -14q70 0 70 80l190 -20q0 -94 -68.5 -157
t-191.5 -63z" />
    <glyph glyph-name="gravecomb.case" horiz-adv-x="1" 
d="M-469 780l-140 160h200l70 -160h-130z" />
    <glyph glyph-name="acutecomb.case" horiz-adv-x="1" 
d="M-479 780l70 160h200l-140 -160h-130z" />
    <glyph glyph-name="uni0302.case" horiz-adv-x="1" 
d="M-609 780l110 160h180l110 -160h-160l-40 80l-40 -80h-160z" />
    <glyph glyph-name="tildecomb.case" horiz-adv-x="1" 
d="M-299 770q-40 0 -112 30t-88 30q-21 0 -25.5 -9t-4.5 -41h-100v40q0 68 25.5 99t84.5 31q40 0 112 -30t88 -30q21 0 25.5 9t4.5 41h100v-40q0 -68 -25.5 -99t-84.5 -31z" />
    <glyph glyph-name="uni0304.case" horiz-adv-x="1" 
d="M-485 804v113h430v-113h-430z" />
    <glyph glyph-name="uni0306.case" horiz-adv-x="1" 
d="M-220 770q-103 0 -141.5 45.5t-38.5 124.5h110q0 -38 16 -54t54 -16t54 16t16 54h110q0 -79 -38.5 -124.5t-141.5 -45.5z" />
    <glyph glyph-name="uni0307.case" horiz-adv-x="1" 
d="M-220 780v160h180v-160h-180z" />
    <glyph glyph-name="uni0308.case" horiz-adv-x="1" 
d="M-199 780v160h160v-160h-160zM-459 780v160h160v-160h-160z" />
    <glyph glyph-name="uni030A.case" horiz-adv-x="1" 
d="M-149 760q-46 0 -78 32t-32 78t32 78t78 32t78 -32t32 -78t-32 -78t-78 -32zM-149 830q17 0 28.5 12t11.5 28t-11.5 28t-28.5 12t-28.5 -12t-11.5 -28t11.5 -28t28.5 -12z" />
    <glyph glyph-name="uni030B.case" horiz-adv-x="1" 
d="M-310 780l80 160h190l-150 -160h-120zM-550 780l80 160h190l-150 -160h-120z" />
    <glyph glyph-name="uni030C.case" horiz-adv-x="1" 
d="M-369 780l-110 160h140l40 -80l40 80h140l-110 -160h-140z" />
    <glyph glyph-name="uni0326.case" horiz-adv-x="1" 
d="M-129 -255l-70 40q16 11 29 43.5t13 65.5q0 31 -12 51h130q13 -29 13 -57q0 -84 -103 -143z" />
    <glyph glyph-name="uni0327.case" horiz-adv-x="1" 
d="M-129 -260l-70 40q16 11 29 43.5t13 65.5q0 31 -12 51h130q13 -29 13 -57q0 -84 -103 -143z" />
    <glyph glyph-name="uni0328.case" horiz-adv-x="1" 
d="M-91 -220q-45 0 -74 23t-29 69q0 72 80 128h90q-43 -62 -43 -86q0 -27 28 -27q14 0 40 4v-91q-31 -20 -92 -20z" />
    <glyph glyph-name="endash.case" 
d="M40 285v150h540v-150h-540z" />
    <glyph glyph-name="emdash.case" horiz-adv-x="1160" 
d="M40 285v150h1080v-150h-1080z" />
    <glyph glyph-name="guilsinglleft.case" horiz-adv-x="300" 
d="M180 200l-160 160l160 160l90 -90l-70 -70l70 -70z" />
    <glyph glyph-name="guilsinglright.case" horiz-adv-x="300" 
d="M110 200l-90 90l70 70l-70 70l90 90l160 -160z" />
    <glyph glyph-name="A.dlig" horiz-adv-x="490" 
d="M0 0l250 720h200l137 -395l-104 -302l-27 87h-212l-34 -110h-210zM291 270h118l-58 200h-2z" />
    <glyph glyph-name="S.dlig" horiz-adv-x="428" 
d="M295 -20q-157 0 -262 81l94 152l63 -37q38 -23 77 -23q26 0 42 12t16 35q0 27 -28 49t-67.5 41.5t-79 45.5t-67.5 73t-28 111q0 101 69 160.5t171 59.5q65 0 113.5 -13.5t95.5 -52.5l-67 -158q-66 60 -125 60q-30 0 -48.5 -16t-18.5 -40q0 -21 20.5 -38t52 -29t67.5 -33
t67.5 -46t52 -70t20.5 -104v-10l-82 -133q18 -14 23 -16q-61 -61 -171 -61z" />
    <glyph glyph-name="Agrave.dlig" horiz-adv-x="490" 
d="M0 0l250 720h200l137 -395l-104 -302l-27 87h-212l-34 -110h-210zM291 270h118l-58 200h-2zM290 780l-140 160h200l70 -160h-130z" />
    <glyph glyph-name="Aacute.dlig" horiz-adv-x="490" 
d="M0 0l250 720h200l137 -395l-104 -302l-27 87h-212l-34 -110h-210zM291 270h118l-58 200h-2zM280 780l70 160h200l-140 -160h-130z" />
    <glyph glyph-name="Acircumflex.dlig" horiz-adv-x="490" 
d="M0 0l250 720h200l137 -395l-104 -302l-27 87h-212l-34 -110h-210zM291 270h118l-58 200h-2zM150 780l110 160h180l110 -160h-160l-40 80l-40 -80h-160z" />
    <glyph glyph-name="Atilde.dlig" horiz-adv-x="490" 
d="M0 0l250 720h200l137 -395l-104 -302l-27 87h-212l-34 -110h-210zM291 270h118l-58 200h-2zM460 770q-40 0 -112 30t-88 30q-21 0 -25.5 -9t-4.5 -41h-100v40q0 68 25.5 99t84.5 31q40 0 112 -30t88 -30q21 0 25.5 9t4.5 41h100v-40q0 -68 -25.5 -99t-84.5 -31z" />
    <glyph glyph-name="Adieresis.dlig" horiz-adv-x="490" 
d="M0 0l250 720h200l137 -395l-104 -302l-27 87h-212l-34 -110h-210zM291 270h118l-58 200h-2zM400 780v160h160v-160h-160zM140 780v160h160v-160h-160z" />
    <glyph glyph-name="Aring.dlig" horiz-adv-x="490" 
d="M0 0l250 720h200l137 -395l-104 -302l-27 87h-212l-34 -110h-210zM291 270h118l-58 200h-2zM350 760q-46 0 -78 32t-32 78t32 78t78 32t78 -32t32 -78t-32 -78t-78 -32zM350 830q16 0 28 12t12 28t-12 28t-28 12t-28 -12t-12 -28t12 -28t28 -12z" />
    <glyph glyph-name="Amacron.dlig" horiz-adv-x="490" 
d="M0 0l250 720h200l137 -395l-104 -302l-27 87h-212l-34 -110h-210zM291 270h118l-58 200h-2zM135 804v113h430v-113h-430z" />
    <glyph glyph-name="Abreve.dlig" horiz-adv-x="490" 
d="M0 0l250 720h200l137 -395l-104 -302l-27 87h-212l-34 -110h-210zM291 270h118l-58 200h-2zM350 770q-103 0 -141.5 45.5t-38.5 124.5h110q0 -38 16 -54t54 -16t54 16t16 54h110q0 -79 -38.5 -124.5t-141.5 -45.5z" />
    <glyph glyph-name="Sacute.dlig" horiz-adv-x="428" 
d="M295 -20q-157 0 -262 81l94 152l63 -37q38 -23 77 -23q26 0 42 12t16 35q0 27 -28 49t-67.5 41.5t-79 45.5t-67.5 73t-28 111q0 101 69 160.5t171 59.5q65 0 113.5 -13.5t95.5 -52.5l-67 -158q-66 60 -125 60q-30 0 -48.5 -16t-18.5 -40q0 -21 20.5 -38t52 -29t67.5 -33
t67.5 -46t52 -70t20.5 -104v-10l-82 -133q18 -14 23 -16q-61 -61 -171 -61zM225 780l70 160h200l-140 -160h-130z" />
    <glyph glyph-name="Scircumflex.dlig" horiz-adv-x="428" 
d="M295 -20q-157 0 -262 81l94 152l63 -37q38 -23 77 -23q26 0 42 12t16 35q0 27 -28 49t-67.5 41.5t-79 45.5t-67.5 73t-28 111q0 101 69 160.5t171 59.5q65 0 113.5 -13.5t95.5 -52.5l-67 -158q-66 60 -125 60q-30 0 -48.5 -16t-18.5 -40q0 -21 20.5 -38t52 -29t67.5 -33
t67.5 -46t52 -70t20.5 -104v-10l-82 -133q18 -14 23 -16q-61 -61 -171 -61zM95 780l110 160h180l110 -160h-160l-40 80l-40 -80h-160z" />
    <glyph glyph-name="Scedilla.dlig" horiz-adv-x="428" 
d="M295 -20q-157 0 -262 81l94 152l63 -37q38 -23 77 -23q26 0 42 12t16 35q0 27 -28 49t-67.5 41.5t-79 45.5t-67.5 73t-28 111q0 101 69 160.5t171 59.5q65 0 113.5 -13.5t95.5 -52.5l-67 -158q-66 60 -125 60q-30 0 -48.5 -16t-18.5 -40q0 -21 20.5 -38t52 -29t67.5 -33
t67.5 -46t52 -70t20.5 -104v-10l-82 -133q18 -14 23 -16q-61 -61 -171 -61zM270 -260l-70 40q16 11 29 43.5t13 65.5q0 31 -12 51h130q13 -29 13 -57q0 -84 -103 -143z" />
    <glyph glyph-name="Scaron.dlig" horiz-adv-x="428" 
d="M295 -20q-157 0 -262 81l94 152l63 -37q38 -23 77 -23q26 0 42 12t16 35q0 27 -28 49t-67.5 41.5t-79 45.5t-67.5 73t-28 111q0 101 69 160.5t171 59.5q65 0 113.5 -13.5t95.5 -52.5l-67 -158q-66 60 -125 60q-30 0 -48.5 -16t-18.5 -40q0 -21 20.5 -38t52 -29t67.5 -33
t67.5 -46t52 -70t20.5 -104v-10l-82 -133q18 -14 23 -16q-61 -61 -171 -61zM220 780l-110 160h140l40 -80l40 80h140l-110 -160h-140z" />
    <glyph glyph-name="Scommaaccent.dlig" horiz-adv-x="428" 
d="M295 -20q-157 0 -262 81l94 152l63 -37q38 -23 77 -23q26 0 42 12t16 35q0 27 -28 49t-67.5 41.5t-79 45.5t-67.5 73t-28 111q0 101 69 160.5t171 59.5q65 0 113.5 -13.5t95.5 -52.5l-67 -158q-66 60 -125 60q-30 0 -48.5 -16t-18.5 -40q0 -21 20.5 -38t52 -29t67.5 -33
t67.5 -46t52 -70t20.5 -104v-10l-82 -133q18 -14 23 -16q-61 -61 -171 -61zM270 -260l-70 40q16 11 29 43.5t13 65.5q0 31 -12 51h130q13 -29 13 -57q0 -84 -103 -143z" />
    <glyph glyph-name="a.ss01" horiz-adv-x="590" 
d="M260 120q70 0 105 70h-95q-60 0 -60 -40q0 -30 50 -30zM195 -15q-77 0 -123.5 36.5t-46.5 108.5q0 160 255 160h85q0 41 -15 55.5t-60 14.5q-60 0 -101 -10t-109 -40l-30 110q110 55 280 55q34 0 59.5 -2.5t56.5 -13t51 -28.5t34 -51.5t14 -79.5v-300h-180v50h-2
q-62 -65 -168 -65z" />
    <glyph glyph-name="ordfeminine.ss01" horiz-adv-x="430" 
d="M160 380q-27 0 -52 7.5t-46.5 31.5t-21.5 61q0 100 170 100h70q0 40 -60 40q-70 0 -130 -30l-25 65q70 35 165 35q36 0 61.5 -3.5t52.5 -14t41.5 -33.5t14.5 -59v-190h-120v30q-40 -40 -120 -40zM50 210v120h350v-120h-350zM210 470q53 0 70 50h-70q-30 0 -30 -25t30 -25
z" />
    <glyph glyph-name="agrave.ss01" horiz-adv-x="590" 
d="M260 120q70 0 105 70h-95q-60 0 -60 -40q0 -30 50 -30zM195 -15q-77 0 -123.5 36.5t-46.5 108.5q0 160 255 160h85q0 41 -15 55.5t-60 14.5q-60 0 -101 -10t-109 -40l-30 110q110 55 280 55q34 0 59.5 -2.5t56.5 -13t51 -28.5t34 -51.5t14 -79.5v-300h-180v50h-2
q-62 -65 -168 -65zM265 560l-140 160h200l70 -160h-130z" />
    <glyph glyph-name="aacute.ss01" horiz-adv-x="590" 
d="M260 120q70 0 105 70h-95q-60 0 -60 -40q0 -30 50 -30zM195 -15q-77 0 -123.5 36.5t-46.5 108.5q0 160 255 160h85q0 41 -15 55.5t-60 14.5q-60 0 -101 -10t-109 -40l-30 110q110 55 280 55q34 0 59.5 -2.5t56.5 -13t51 -28.5t34 -51.5t14 -79.5v-300h-180v50h-2
q-62 -65 -168 -65zM215 560l70 160h200l-140 -160h-130z" />
    <glyph glyph-name="acircumflex.ss01" horiz-adv-x="590" 
d="M260 120q70 0 105 70h-95q-60 0 -60 -40q0 -30 50 -30zM195 -15q-77 0 -123.5 36.5t-46.5 108.5q0 160 255 160h85q0 41 -15 55.5t-60 14.5q-60 0 -101 -10t-109 -40l-30 110q110 55 280 55q34 0 59.5 -2.5t56.5 -13t51 -28.5t34 -51.5t14 -79.5v-300h-180v50h-2
q-62 -65 -168 -65zM105 560l110 160h180l110 -160h-160l-40 80l-40 -80h-160z" />
    <glyph glyph-name="atilde.ss01" horiz-adv-x="590" 
d="M260 120q70 0 105 70h-95q-60 0 -60 -40q0 -30 50 -30zM195 -15q-77 0 -123.5 36.5t-46.5 108.5q0 160 255 160h85q0 41 -15 55.5t-60 14.5q-60 0 -101 -10t-109 -40l-30 110q110 55 280 55q34 0 59.5 -2.5t56.5 -13t51 -28.5t34 -51.5t14 -79.5v-300h-180v50h-2
q-62 -65 -168 -65zM410 550q-40 0 -112 30t-88 30q-21 0 -25.5 -9t-4.5 -41h-100v40q0 68 25.5 99t84.5 31q40 0 112 -30t88 -30q21 0 25.5 9t4.5 41h100v-40q0 -68 -25.5 -99t-84.5 -31z" />
    <glyph glyph-name="adieresis.ss01" horiz-adv-x="590" 
d="M260 120q70 0 105 70h-95q-60 0 -60 -40q0 -30 50 -30zM195 -15q-77 0 -123.5 36.5t-46.5 108.5q0 160 255 160h85q0 41 -15 55.5t-60 14.5q-60 0 -101 -10t-109 -40l-30 110q110 55 280 55q34 0 59.5 -2.5t56.5 -13t51 -28.5t34 -51.5t14 -79.5v-300h-180v50h-2
q-62 -65 -168 -65zM360 560v160h160v-160h-160zM100 560v160h160v-160h-160z" />
    <glyph glyph-name="aring.ss01" horiz-adv-x="590" 
d="M260 120q70 0 105 70h-95q-60 0 -60 -40q0 -30 50 -30zM195 -15q-77 0 -123.5 36.5t-46.5 108.5q0 160 255 160h85q0 41 -15 55.5t-60 14.5q-60 0 -101 -10t-109 -40l-30 110q110 55 280 55q34 0 59.5 -2.5t56.5 -13t51 -28.5t34 -51.5t14 -79.5v-300h-180v50h-2
q-62 -65 -168 -65zM300 540q-46 0 -78 32t-32 78t32 78t78 32t78 -32t32 -78t-32 -78t-78 -32zM300 610q16 0 28 12t12 28t-12 28t-28 12t-28 -12t-12 -28t12 -28t28 -12z" />
    <glyph glyph-name="ae.ss01" horiz-adv-x="920" 
d="M195 -15q-78 0 -124 36.5t-46 108.5q0 160 255 160h85q0 41 -15 55.5t-60 14.5q-60 0 -101 -10t-109 -40l-30 110q110 55 281 55q53 0 85.5 -6.5t66.5 -26.5q63 33 147 33q51 0 96 -15.5t82.5 -48t59.5 -91t22 -135.5h-340q4 -27 27 -46t53 -19t48.5 8.5t41.5 31.5
l140 -70q-90 -105 -230 -105q-125 0 -200 75q-88 -75 -235 -75zM550 280h160q-8 31 -26 45.5t-54 14.5t-54 -14.5t-26 -45.5zM260 120q70 0 105 70h-95q-60 0 -60 -40q0 -30 50 -30z" />
    <glyph glyph-name="amacron.ss01" horiz-adv-x="590" 
d="M260 120q70 0 105 70h-95q-60 0 -60 -40q0 -30 50 -30zM195 -15q-77 0 -123.5 36.5t-46.5 108.5q0 160 255 160h85q0 41 -15 55.5t-60 14.5q-60 0 -101 -10t-109 -40l-30 110q110 55 280 55q34 0 59.5 -2.5t56.5 -13t51 -28.5t34 -51.5t14 -79.5v-300h-180v50h-2
q-62 -65 -168 -65zM108 584v113h390v-113h-390z" />
    <glyph glyph-name="abreve.ss01" horiz-adv-x="590" 
d="M260 120q70 0 105 70h-95q-60 0 -60 -40q0 -30 50 -30zM195 -15q-77 0 -123.5 36.5t-46.5 108.5q0 160 255 160h85q0 41 -15 55.5t-60 14.5q-60 0 -101 -10t-109 -40l-30 110q110 55 280 55q34 0 59.5 -2.5t56.5 -13t51 -28.5t34 -51.5t14 -79.5v-300h-180v50h-2
q-62 -65 -168 -65zM300 550q-103 0 -141.5 45.5t-38.5 124.5h110q0 -38 16 -54t54 -16t54 16t16 54h110q0 -79 -38.5 -124.5t-141.5 -45.5z" />
    <glyph glyph-name="aogonek.ss01" horiz-adv-x="590" 
d="M453 -220q-45 0 -74 23t-29 69q0 72 80 128h-65v50h-2q-62 -65 -168 -65q-77 0 -123.5 36.5t-46.5 108.5q0 160 255 160h85q0 41 -15 55.5t-60 14.5q-60 0 -101 -10t-109 -40l-30 110q110 55 280 55q34 0 59.5 -2.5t56.5 -13t51 -28.5t34 -51.5t14 -79.5v-300h-25
q-43 -62 -43 -86q0 -27 28 -27q8 0 40 4v-91q-31 -20 -92 -20zM260 120q70 0 105 70h-95q-60 0 -60 -40q0 -30 50 -30z" />
    <glyph glyph-name="g.ss02" horiz-adv-x="575" 
d="M275 -240q-145 0 -207.5 35t-62.5 105q0 52 50 91q-20 29 -20 69q0 58 64 103q-54 48 -54 122q0 82 67 136t183 54q52 0 94 -12q18 32 22 61t4 96h150q0 -123 -85 -201q65 -53 65 -134t-66.5 -133t-183.5 -52q-52 0 -91 10q-9 -10 -9 -20q0 -21 17.5 -25.5t82.5 -4.5
q171 0 230.5 -26.5t59.5 -113.5q0 -160 -310 -160zM295 240q80 0 80 45q0 19 -21.5 32t-58.5 13t-58.5 -13t-21.5 -32t21.5 -32t58.5 -13zM285 -140q110 0 110 30q0 18 -20 21.5t-100 3.5q-63 0 -106 11q-4 -7 -4 -16q0 -27 26.5 -38.5t93.5 -11.5z" />
    <glyph glyph-name="gcircumflex.ss02" horiz-adv-x="575" 
d="M275 -240q-145 0 -207.5 35t-62.5 105q0 52 50 91q-20 29 -20 69q0 58 64 103q-54 48 -54 122q0 82 67 136t183 54q52 0 94 -12q26 29 26 97h150q0 -92 -85 -141q65 -53 65 -134t-66.5 -133t-183.5 -52q-52 0 -91 10q-9 -10 -9 -20q0 -21 17.5 -25.5t82.5 -4.5
q171 0 230.5 -26.5t59.5 -113.5q0 -160 -310 -160zM295 240q80 0 80 45q0 19 -21.5 32t-58.5 13t-58.5 -13t-21.5 -32t21.5 -32t58.5 -13zM285 -140q110 0 110 30q0 18 -20 21.5t-100 3.5q-63 0 -106 11q-4 -7 -4 -16q0 -27 26.5 -38.5t93.5 -11.5zM94 592l110 160h180
l110 -160h-160l-40 80l-40 -80h-160z" />
    <glyph glyph-name="gbreve.ss02" horiz-adv-x="575" 
d="M275 -240q-145 0 -207.5 35t-62.5 105q0 52 50 91q-20 29 -20 69q0 58 64 103q-54 48 -54 122q0 82 67 136t183 54q52 0 94 -12q26 29 26 97h150q0 -92 -85 -141q65 -53 65 -134t-66.5 -133t-183.5 -52q-52 0 -91 10q-9 -10 -9 -20q0 -21 17.5 -25.5t82.5 -4.5
q171 0 230.5 -26.5t59.5 -113.5q0 -160 -310 -160zM295 240q80 0 80 45q0 19 -21.5 32t-58.5 13t-58.5 -13t-21.5 -32t21.5 -32t58.5 -13zM285 -140q110 0 110 30q0 18 -20 21.5t-100 3.5q-63 0 -106 11q-4 -7 -4 -16q0 -27 26.5 -38.5t93.5 -11.5zM295 560
q-103 0 -141.5 45.5t-38.5 124.5h110q0 -38 16.5 -54t53.5 -16t53.5 16t16.5 54h110q0 -79 -38.5 -124.5t-141.5 -45.5z" />
    <glyph glyph-name="gdotaccent.ss02" horiz-adv-x="575" 
d="M275 -240q-145 0 -207.5 35t-62.5 105q0 52 50 91q-20 29 -20 69q0 58 64 103q-54 48 -54 122q0 82 67 136t183 54q52 0 94 -12q26 29 26 97h150q0 -92 -85 -141q65 -53 65 -134t-66.5 -133t-183.5 -52q-52 0 -91 10q-9 -10 -9 -20q0 -21 17.5 -25.5t82.5 -4.5
q171 0 230.5 -26.5t59.5 -113.5q0 -160 -310 -160zM295 240q80 0 80 45q0 19 -21.5 32t-58.5 13t-58.5 -13t-21.5 -32t21.5 -32t58.5 -13zM285 -140q110 0 110 30q0 18 -20 21.5t-100 3.5q-63 0 -106 11q-4 -7 -4 -16q0 -27 26.5 -38.5t93.5 -11.5zM198 560v160h180v-160
h-180z" />
    <glyph glyph-name="gcommaaccent.ss02" horiz-adv-x="575" 
d="M275 -240q-145 0 -207.5 35t-62.5 105q0 52 50 91q-20 29 -20 69q0 58 64 103q-54 48 -54 122q0 82 67 136t183 54q52 0 94 -12q18 32 22 61t4 96h150q0 -123 -85 -201q65 -53 65 -134t-66.5 -133t-183.5 -52q-52 0 -91 10q-9 -10 -9 -20q0 -21 17.5 -25.5t82.5 -4.5
q171 0 230.5 -26.5t59.5 -113.5q0 -160 -310 -160zM295 240q80 0 80 45q0 19 -21.5 32t-58.5 13t-58.5 -13t-21.5 -32t21.5 -32t58.5 -13zM285 -140q110 0 110 30q0 18 -20 21.5t-100 3.5q-63 0 -106 11q-4 -7 -4 -16q0 -27 26.5 -38.5t93.5 -11.5zM320 760l70 -40
q-16 -11 -29 -43.5t-13 -65.5q0 -31 12 -51h-130q-13 29 -13 57q0 84 103 143z" />
    <glyph glyph-name="L.dligA" horiz-adv-x="380" 
d="M60 0v720h200v-540h166l-62 -180h-304z" />
    <glyph glyph-name="Lacute.dligA" horiz-adv-x="380" 
d="M60 0v720h200v-540h166l-62 -180h-304zM90 780l70 160h200l-140 -160h-130z" />
    <glyph glyph-name="Lcommaaccent.dligA" horiz-adv-x="380" 
d="M60 0v720h200v-540h166l-62 -180h-304zM286 -255l-70 40q16 11 29 43.5t13 65.5q0 31 -12 51h130q13 -29 13 -57q0 -84 -103 -143z" />
    <glyph glyph-name="Lslash.dligA" horiz-adv-x="380" 
d="M60 0v180l-60 -60v180l60 60v360h200v-160l120 120v-180l-120 -120v-200h166l-62 -180h-304z" />
    <glyph glyph-name="L.dligAE" horiz-adv-x="300" 
d="M60 0v720h200v-540h109l-95 -180h-214z" />
    <glyph glyph-name="Lacute.dligAE" horiz-adv-x="300" 
d="M60 0v720h200v-540h109l-95 -180h-214zM90 780l70 160h200l-140 -160h-130z" />
    <glyph glyph-name="Lcommaaccent.dligAE" horiz-adv-x="300" 
d="M60 0v720h200v-540h109l-95 -180h-214zM276 -255l-70 40q16 11 29 43.5t13 65.5q0 31 -12 51h130q13 -29 13 -57q0 -84 -103 -143z" />
    <glyph glyph-name="O.dligOCG" horiz-adv-x="460" 
d="M763 215q-58 53 -58 145q0 93 57 145q28 -67 28 -145q0 -74 -27 -145zM410 -20q-163 0 -271.5 110.5t-108.5 269.5t108.5 269.5t271.5 110.5q119 0 215 -63q-77 -57 -116 -148q-43 31 -99 31q-76 0 -128 -56t-52 -144t52 -144t128 -56q54 0 99 31q16 -40 47.5 -80.5
t68.5 -66.5q-94 -64 -215 -64z" />
    <glyph glyph-name="Ograve.dligOCG" horiz-adv-x="460" 
d="M763 215q-58 53 -58 145q0 93 57 145q28 -67 28 -145q0 -74 -27 -145zM410 -20q-163 0 -271.5 110.5t-108.5 269.5t108.5 269.5t271.5 110.5q119 0 215 -63q-77 -57 -116 -148q-43 31 -99 31q-76 0 -128 -56t-52 -144t52 -144t128 -56q54 0 99 31q16 -40 47.5 -80.5
t68.5 -66.5q-94 -64 -215 -64zM350 780l-140 160h200l70 -160h-130z" />
    <glyph glyph-name="Oacute.dligOCG" horiz-adv-x="460" 
d="M763 215q-58 53 -58 145q0 93 57 145q28 -67 28 -145q0 -74 -27 -145zM410 -20q-163 0 -271.5 110.5t-108.5 269.5t108.5 269.5t271.5 110.5q119 0 215 -63q-77 -57 -116 -148q-43 31 -99 31q-76 0 -128 -56t-52 -144t52 -144t128 -56q54 0 99 31q16 -40 47.5 -80.5
t68.5 -66.5q-94 -64 -215 -64zM340 780l70 160h200l-140 -160h-130z" />
    <glyph glyph-name="Ocircumflex.dligOCG" horiz-adv-x="460" 
d="M763 215q-58 53 -58 145q0 93 57 145q28 -67 28 -145q0 -74 -27 -145zM410 -20q-163 0 -271.5 110.5t-108.5 269.5t108.5 269.5t271.5 110.5q119 0 215 -63q-77 -57 -116 -148q-43 31 -99 31q-76 0 -128 -56t-52 -144t52 -144t128 -56q54 0 99 31q16 -40 47.5 -80.5
t68.5 -66.5q-94 -64 -215 -64zM210 780l110 160h180l110 -160h-160l-40 80l-40 -80h-160z" />
    <glyph glyph-name="Otilde.dligOCG" horiz-adv-x="460" 
d="M763 215q-58 53 -58 145q0 93 57 145q28 -67 28 -145q0 -74 -27 -145zM410 -20q-163 0 -271.5 110.5t-108.5 269.5t108.5 269.5t271.5 110.5q119 0 215 -63q-77 -57 -116 -148q-43 31 -99 31q-76 0 -128 -56t-52 -144t52 -144t128 -56q54 0 99 31q16 -40 47.5 -80.5
t68.5 -66.5q-94 -64 -215 -64zM520 770q-40 0 -112 30t-88 30q-21 0 -25.5 -9t-4.5 -41h-100v40q0 68 25.5 99t84.5 31q40 0 112 -30t88 -30q21 0 25.5 9t4.5 41h100v-40q0 -68 -25.5 -99t-84.5 -31z" />
    <glyph glyph-name="Odieresis.dligOCG" horiz-adv-x="460" 
d="M763 215q-58 53 -58 145q0 93 57 145q28 -67 28 -145q0 -74 -27 -145zM410 -20q-163 0 -271.5 110.5t-108.5 269.5t108.5 269.5t271.5 110.5q119 0 215 -63q-77 -57 -116 -148q-43 31 -99 31q-76 0 -128 -56t-52 -144t52 -144t128 -56q54 0 99 31q16 -40 47.5 -80.5
t68.5 -66.5q-94 -64 -215 -64zM460 780v160h160v-160h-160zM200 780v160h160v-160h-160z" />
    <glyph glyph-name="Omacron.dligOCG" horiz-adv-x="460" 
d="M763 215q-58 53 -58 145q0 93 57 145q28 -67 28 -145q0 -74 -27 -145zM410 -20q-163 0 -271.5 110.5t-108.5 269.5t108.5 269.5t271.5 110.5q119 0 215 -63q-77 -57 -116 -148q-43 31 -99 31q-76 0 -128 -56t-52 -144t52 -144t128 -56q54 0 99 31q16 -40 47.5 -80.5
t68.5 -66.5q-94 -64 -215 -64zM195 804v113h430v-113h-430z" />
    <glyph glyph-name="Ohungarumlaut.dligOCG" horiz-adv-x="460" 
d="M763 215q-58 53 -58 145q0 93 57 145q28 -67 28 -145q0 -74 -27 -145zM410 -20q-163 0 -271.5 110.5t-108.5 269.5t108.5 269.5t271.5 110.5q119 0 215 -63q-77 -57 -116 -148q-43 31 -99 31q-76 0 -128 -56t-52 -144t52 -144t128 -56q54 0 99 31q16 -40 47.5 -80.5
t68.5 -66.5q-94 -64 -215 -64zM435 780l80 160h190l-150 -160h-120zM195 780l80 160h190l-150 -160h-120z" />
    <glyph glyph-name="T.dligT1" horiz-adv-x="462" 
d="M160 0v540h-150l20 180h440l-20 -180h-90v-540h-200z" />
    <glyph glyph-name="Tcommaaccent.dligT1" horiz-adv-x="462" 
d="M160 0v540h-150l20 180h440l-20 -180h-90v-540h-200zM230 -260l-70 40q16 11 29 43.5t13 65.5q0 31 -12 51h130q13 -29 13 -57q0 -84 -103 -143z" />
    <glyph glyph-name="Tcaron.dligT1" horiz-adv-x="462" 
d="M160 0v540h-150l20 180h440l-20 -180h-90v-540h-200zM195 780l-110 160h140l40 -80l40 80h140l-110 -160h-140z" />
    <glyph glyph-name="uni021A.dligT1" horiz-adv-x="462" 
d="M160 0v540h-150l20 180h440l-20 -180h-90v-540h-200zM226 -255l-70 40q16 11 29 43.5t13 65.5q0 31 -12 51h130q13 -29 13 -57q0 -84 -103 -143z" />
    <glyph glyph-name="T.dligT2" horiz-adv-x="478" 
d="M118 0v540h-115l20 180h425l20 -180h-150v-540h-200z" />
    <glyph glyph-name="Tcommaaccent.dligT2" horiz-adv-x="478" 
d="M118 0v540h-115l20 180h425l20 -180h-150v-540h-200zM188 -260l-70 40q16 11 29 43.5t13 65.5q0 31 -12 51h130q13 -29 13 -57q0 -84 -103 -143z" />
    <glyph glyph-name="Tcaron.dligT2" horiz-adv-x="478" 
d="M118 0v540h-115l20 180h425l20 -180h-150v-540h-200zM153 780l-110 160h140l40 -80l40 80h140l-110 -160h-140z" />
    <glyph glyph-name="uni021A.dligT2" horiz-adv-x="478" 
d="M118 0v540h-115l20 180h425l20 -180h-150v-540h-200zM184 -255l-70 40q16 11 29 43.5t13 65.5q0 31 -12 51h130q13 -29 13 -57q0 -84 -103 -143z" />
    <glyph glyph-name="T.dligW" horiz-adv-x="460" 
d="M160 0v540h-150l20 180h415l56 -180h-141v-540h-200z" />
    <glyph glyph-name="Tcommaaccent.dligW" horiz-adv-x="460" 
d="M160 0v540h-150l20 180h415l56 -180h-141v-540h-200zM230 -260l-70 40q16 11 29 43.5t13 65.5q0 31 -12 51h130q13 -29 13 -57q0 -84 -103 -143z" />
    <glyph glyph-name="Tcaron.dligW" horiz-adv-x="460" 
d="M160 0v540h-150l20 180h415l56 -180h-141v-540h-200zM195 780l-110 160h140l40 -80l40 80h140l-110 -160h-140z" />
    <glyph glyph-name="uni021A.dligW" horiz-adv-x="460" 
d="M160 0v540h-150l20 180h415l56 -180h-141v-540h-200zM230 -260l-70 40q16 11 29 43.5t13 65.5q0 31 -12 51h130q13 -29 13 -57q0 -84 -103 -143z" />
    <glyph glyph-name="T.dligY" horiz-adv-x="450" 
d="M160 0v540h-150l20 180h404l77 -180h-151v-540h-200z" />
    <glyph glyph-name="Tcommaaccent.dligY" horiz-adv-x="450" 
d="M160 0v540h-150l20 180h404l77 -180h-151v-540h-200zM230 -260l-70 40q16 11 29 43.5t13 65.5q0 31 -12 51h130q13 -29 13 -57q0 -84 -103 -143z" />
    <glyph glyph-name="Tcaron.dligY" horiz-adv-x="450" 
d="M160 0v540h-150l20 180h404l77 -180h-151v-540h-200zM195 780l-110 160h140l40 -80l40 80h140l-110 -160h-140z" />
    <glyph glyph-name="uni021A.dligY" horiz-adv-x="450" 
d="M160 0v540h-150l20 180h404l77 -180h-151v-540h-200zM230 -260l-70 40q16 11 29 43.5t13 65.5q0 31 -12 51h130q13 -29 13 -57q0 -84 -103 -143z" />
    <glyph glyph-name="f.dligbkh" horiz-adv-x="385" 
d="M95 0v310h-80l20 150h60v90q0 180 220 180h130v-160h-80q-48 0 -69 -12t-21 -48v-50h90v-150h-90v-310h-180z" />
    <glyph glyph-name="f.dligft" horiz-adv-x="340" 
d="M95 0v310h-80l20 150h60v90q0 180 220 180h50v-160q-48 0 -69 -12t-21 -48v-50h170v-150h-170v-310h-180z" />
    <glyph glyph-name="T.dligh" horiz-adv-x="450" 
d="M160 0v540h-150l20 180h455v-180h-125v-540h-200z" />
    <glyph glyph-name="Tcommaaccent.dligh" horiz-adv-x="450" 
d="M160 0v540h-150l20 180h455v-180h-125v-540h-200zM230 -260l-70 40q16 11 29 43.5t13 65.5q0 31 -12 51h130q13 -29 13 -57q0 -84 -103 -143z" />
    <glyph glyph-name="Tcaron.dligh" horiz-adv-x="450" 
d="M160 0v540h-150l20 180h455v-180h-125v-540h-200zM195 780l-110 160h140l40 -80l40 80h140l-110 -160h-140z" />
    <glyph glyph-name="uni021A.dligh" horiz-adv-x="450" 
d="M160 0v540h-150l20 180h455v-180h-125v-540h-200zM230 -260l-70 40q16 11 29 43.5t13 65.5q0 31 -12 51h130q13 -29 13 -57q0 -84 -103 -143z" />
    <glyph glyph-name="f.dligj" horiz-adv-x="385" 
d="M95 0v310h-80l20 150h60v90q0 180 220 180h50v-160q-48 0 -69 -12t-21 -48v-50h170v-150h-170v-310h-180z" />
    <glyph glyph-name="t.dligt" horiz-adv-x="340" 
d="M255 -20q-78 0 -119 35t-41 115v180h-80l20 150h60v120l180 30v-150h171v-150h-171v-110q0 -34 8.5 -47t31.5 -13q29 0 50 25v-145q-53 -40 -110 -40z" />
    <glyph glyph-name="tcommaaccent.dligt" horiz-adv-x="340" 
d="M255 -20q-78 0 -119 35t-41 115v180h-80l20 150h60v120l180 30v-150h171v-150h-171v-110q0 -34 8.5 -47t31.5 -13q29 0 50 25v-145q-53 -40 -110 -40zM200 -255l-70 40q16 11 29 43.5t13 65.5q0 31 -12 51h130q13 -29 13 -57q0 -84 -103 -143z" />
    <glyph glyph-name="uni021B.dligt" horiz-adv-x="340" 
d="M255 -20q-78 0 -119 35t-41 115v180h-80l20 150h60v120l180 30v-150h171v-150h-171v-110q0 -34 8.5 -47t31.5 -13q29 0 50 25v-145q-53 -40 -110 -40zM200 -255l-70 40q16 11 29 43.5t13 65.5q0 31 -12 51h130q13 -29 13 -57q0 -84 -103 -143z" />
    <glyph glyph-name="f.dligy" horiz-adv-x="315" 
d="M95 0v310h-80l20 150h60v90q0 180 220 180h50v-160q-48 0 -69 -12t-21 -48v-50h107v-150h-107v-310h-180z" />
    <glyph glyph-name="t.dligy" horiz-adv-x="315" 
d="M255 -20q-78 0 -119 35t-41 115v180h-80l20 150h60v120l180 30v-150h107v-150h-107v-110q0 -34 8.5 -47t31.5 -13q29 0 50 25v-145q-53 -40 -110 -40z" />
    <glyph glyph-name="tcommaaccent.dligy" horiz-adv-x="315" 
d="M255 -20q-78 0 -119 35t-41 115v180h-80l20 150h60v120l180 30v-150h107v-150h-107v-110q0 -34 8.5 -47t31.5 -13q29 0 50 25v-145q-53 -40 -110 -40zM200 -255l-70 40q16 11 29 43.5t13 65.5q0 31 -12 51h130q13 -29 13 -57q0 -84 -103 -143z" />
    <glyph glyph-name="uni021B.dligy" horiz-adv-x="315" 
d="M255 -20q-78 0 -119 35t-41 115v180h-80l20 150h60v120l180 30v-150h107v-150h-107v-110q0 -34 8.5 -47t31.5 -13q29 0 50 25v-145q-53 -40 -110 -40zM200 -255l-70 40q16 11 29 43.5t13 65.5q0 31 -12 51h130q13 -29 13 -57q0 -84 -103 -143z" />
    <glyph glyph-name="t.dligz" horiz-adv-x="367" 
d="M255 -20q-78 0 -119 35t-41 115v190h-78l18 140h60v120l180 30v-150h174v-140h-174v-120q0 -34 8.5 -47t31.5 -13q29 0 50 25v-145q-53 -40 -110 -40z" />
    <glyph glyph-name="tcommaaccent.dligz" horiz-adv-x="367" 
d="M255 -20q-78 0 -119 35t-41 115v190h-78l18 140h60v120l180 30v-150h174v-140h-174v-120q0 -34 8.5 -47t31.5 -13q29 0 50 25v-145q-53 -40 -110 -40zM200 -255l-70 40q16 11 29 43.5t13 65.5q0 31 -12 51h130q13 -29 13 -57q0 -84 -103 -143z" />
    <glyph glyph-name="uni021B.dligz" horiz-adv-x="367" 
d="M255 -20q-78 0 -119 35t-41 115v190h-78l18 140h60v120l180 30v-150h174v-140h-174v-120q0 -34 8.5 -47t31.5 -13q29 0 50 25v-145q-53 -40 -110 -40zM200 -255l-70 40q16 11 29 43.5t13 65.5q0 31 -12 51h130q13 -29 13 -57q0 -84 -103 -143z" />
    </font>
</defs>
</svg>
