<?xml version="1.0" standalone="no"?>
<!DOCTYPE svg PUBLIC "-//W3C//DTD SVG 20010904//EN"
 "http://www.w3.org/TR/2001/REC-SVG-20010904/DTD/svg10.dtd">
<svg version="1.0" xmlns="http://www.w3.org/2000/svg"
 width="1024.000000pt" height="1024.000000pt" viewBox="0 0 1024.000000 1024.000000"
 preserveAspectRatio="xMidYMid meet">
<metadata>
Created by potrace 1.11, written by Peter Selinger 2001-2013
</metadata>
<g transform="translate(0.000000,1024.000000) scale(0.100000,-0.100000)"
fill="#000000" stroke="none">
<path d="M5050 8070 c-36 -10 -101 -29 -145 -43 -122 -38 -617 -194 -735 -232
-58 -18 -172 -54 -255 -80 -82 -26 -199 -62 -260 -82 -60 -19 -114 -36 -120
-37 -12 -3 -230 -71 -305 -96 -30 -10 -91 -29 -135 -43 -44 -14 -152 -48 -240
-75 -734 -232 -933 -294 -954 -298 -14 -3 -28 -7 -32 -10 -4 -2 -50 -17 -101
-33 -51 -16 -223 -70 -383 -121 -390 -123 -574 -181 -611 -191 -49 -14 -82
-46 -91 -87 -16 -79 4 -121 70 -152 23 -11 247 -83 497 -160 250 -78 525 -164
611 -191 86 -27 161 -49 167 -49 19 0 15 -12 -24 -70 -42 -63 -121 -217 -157
-305 -22 -53 -75 -215 -81 -247 -2 -7 -8 -31 -14 -53 -6 -22 -14 -56 -17 -75
-3 -19 -10 -53 -15 -75 -9 -44 -16 -84 -25 -160 -4 -27 -8 -61 -11 -75 -2 -14
-6 -61 -9 -105 -3 -44 -7 -87 -8 -97 -2 -9 -27 -35 -56 -58 -29 -23 -61 -50
-70 -59 -129 -132 -163 -367 -77 -544 34 -70 98 -148 150 -182 26 -17 27 -25
10 -125 -5 -35 -29 -213 -39 -300 -3 -25 -7 -52 -10 -60 -2 -8 -7 -42 -10 -75
-3 -33 -10 -87 -15 -120 -5 -33 -12 -85 -15 -115 -11 -88 -15 -122 -20 -149
-2 -14 -9 -64 -15 -111 -6 -47 -13 -96 -15 -110 -3 -14 -7 -50 -11 -80 -3 -30
-8 -64 -10 -75 -2 -11 -6 -42 -9 -70 -4 -27 -8 -62 -10 -76 -3 -14 -7 -41 -9
-60 -2 -19 -8 -59 -12 -89 -12 -88 -9 -129 13 -158 40 -55 44 -55 478 -55 451
0 435 -2 474 75 11 23 19 44 17 47 -2 3 -7 35 -11 71 -4 36 -9 74 -11 85 -2
11 -6 43 -9 70 -4 28 -8 61 -10 75 -8 54 -15 107 -20 150 -3 25 -8 61 -11 80
-3 19 -7 50 -9 68 -2 18 -7 52 -10 75 -13 99 -26 194 -30 222 -2 17 -7 53 -10
80 -3 28 -8 61 -10 75 -3 14 -7 48 -11 75 -3 28 -7 61 -9 75 -2 14 -6 43 -9
65 -3 22 -17 126 -31 230 l-26 190 23 18 c136 107 199 233 199 397 -1 169 -75
316 -203 396 -37 23 -37 25 -33 76 3 29 7 80 10 112 6 66 32 222 45 276 5 19
11 46 14 60 10 57 71 231 111 317 59 125 134 232 201 285 21 17 25 17 80 -1
33 -11 127 -40 209 -66 83 -26 204 -64 270 -85 188 -60 506 -160 545 -171 19
-6 44 -14 55 -19 15 -6 754 -241 800 -254 6 -1 30 -9 55 -16 25 -8 47 -14 50
-14 3 -1 10 -4 15 -7 8 -5 39 -15 80 -25 6 -1 30 -9 55 -17 146 -49 320 -100
350 -103 19 -1 80 11 135 29 55 17 102 32 105 32 3 1 66 20 140 44 245 77 484
153 550 173 36 11 90 28 120 38 30 10 109 35 175 55 66 20 131 40 145 45 14 5
104 33 200 64 96 30 256 80 355 111 99 31 207 65 240 75 33 11 152 48 265 84
113 35 273 85 355 111 83 26 197 62 255 80 254 81 499 158 540 170 232 66 819
260 837 277 22 21 41 63 37 86 -1 6 -2 24 -3 38 0 14 -13 38 -28 53 -28 27
-34 29 -423 151 -91 28 -176 56 -190 61 -14 5 -34 11 -45 14 -11 2 -200 61
-420 130 -220 70 -479 151 -575 182 -96 30 -260 81 -365 114 -104 33 -217 69
-250 79 -33 10 -104 32 -157 49 -54 17 -140 44 -190 60 -220 69 -807 254 -853
269 -27 9 -52 16 -55 17 -6 1 -16 4 -165 52 -60 19 -117 36 -125 38 -8 2 -28
8 -45 15 -16 6 -52 18 -80 25 -27 8 -129 39 -225 70 -252 81 -238 78 -320 55z"/>
<path d="M2719 5338 c0 -7 -2 -33 -3 -58 -2 -25 -6 -101 -10 -170 -4 -69 -9
-150 -11 -180 -2 -30 -6 -109 -10 -175 -7 -137 -11 -204 -21 -360 -15 -215
-11 -365 10 -420 77 -202 326 -399 676 -534 47 -18 94 -37 105 -42 26 -11 244
-78 271 -83 12 -3 57 -14 100 -25 85 -22 197 -46 254 -55 19 -3 46 -8 60 -11
14 -3 45 -8 70 -11 25 -3 53 -8 64 -10 10 -2 44 -6 75 -10 31 -3 63 -8 72 -9
8 -2 51 -6 95 -10 43 -4 95 -8 114 -10 165 -17 623 -23 820 -11 178 11 308 22
370 31 14 2 50 6 80 10 30 3 80 10 110 15 30 5 71 12 90 15 92 16 247 48 310
65 25 7 52 13 60 15 130 25 427 130 580 206 67 33 201 109 210 119 3 3 21 17
40 30 127 89 223 203 266 315 21 54 24 198 10 420 -9 148 -12 200 -31 530 -2
44 -7 121 -10 170 -3 50 -7 125 -9 168 -2 43 -6 80 -8 83 -3 2 -36 -6 -74 -18
-38 -12 -71 -22 -74 -23 -3 0 -16 -5 -30 -9 -94 -29 -436 -137 -590 -186 -222
-71 -486 -154 -830 -261 -140 -44 -311 -98 -380 -121 -69 -22 -132 -42 -140
-44 -8 -2 -51 -15 -95 -28 -113 -34 -258 -34 -370 0 -44 14 -93 29 -110 33
-32 9 -627 197 -970 306 -115 37 -223 71 -240 75 -53 15 -769 241 -790 250
-11 5 -31 12 -45 15 -14 4 -33 9 -42 11 -11 3 -18 0 -19 -8z"/>
</g>
</svg>
